<ttFont>
<head>
    <!-- Most of this table will be recalculated by the compiler -->
    <tableVersion value="1.0"/>
    <fontRevision value="0.79999"/>
    <checkSumAdjustment value="0x8e629989"/>
    <magicNumber value="0x5f0f3cf5"/>
    <flags value="00000000 00001011"/>
    <unitsPerEm value="1024"/>
    <created value="Sat May  3 09:56:44 2014"/>
    <modified value="Sat May  3 10:10:24 2014"/>
    <xMin value="-136"/>
    <yMin value="-240"/>
    <xMax value="1003"/>
    <yMax value="915"/>
    <macStyle value="00000000 00000011"/>
    <lowestRecPPEM value="8"/>
    <fontDirectionHint value="2"/>
    <indexToLocFormat value="0"/>
    <glyphDataFormat value="0"/>
  </head>
    <TTGlyph name=".notdef" xMin="34" yMin="0" xMax="306" yMax="682">
      <contour>
        <pt x="34" y="0" on="1"/>
        <pt x="34" y="682" on="1"/>
        <pt x="306" y="682" on="1"/>
        <pt x="306" y="0" on="1"/>
      </contour>
      <contour>
        <pt x="68" y="34" on="1"/>
        <pt x="272" y="34" on="1"/>
        <pt x="272" y="648" on="1"/>
        <pt x="68" y="648" on="1"/>
      </contour>
    </TTGlyph>
    <TTGlyph name="A" xMin="-61" yMin="-4" xMax="562" yMax="662">
      <contour>
        <pt x="63" y="136" on="1"/>
        <pt x="348" y="629" on="1"/>
        <pt x="354" y="639" on="0"/>
        <pt x="382" y="662" on="0"/>
        <pt x="396" y="662" on="0"/>
        <pt x="400" y="658" on="1"/>
        <pt x="490" y="137" on="1"/>
        <pt x="494" y="117" on="0"/>
        <pt x="498" y="92" on="1"/>
        <pt x="501" y="68" on="1"/>
        <pt x="504" y="54" on="0"/>
        <pt x="533" y="35" on="0"/>
        <pt x="555" y="30" on="0"/>
        <pt x="562" y="30" on="1"/>
        <pt x="564" y="24" on="0"/>
        <pt x="560" y="-1" on="0"/>
        <pt x="557" y="-4" on="1"/>
        <pt x="549" y="-4" on="0"/>
        <pt x="469" y="3" on="0"/>
        <pt x="445" y="3" on="1"/>
        <pt x="419" y="3" on="0"/>
        <pt x="323" y="-4" on="0"/>
        <pt x="320" y="-4" on="1"/>
        <pt x="317" y="0" on="0"/>
        <pt x="323" y="29" on="0"/>
        <pt x="327" y="30" on="1"/>
        <pt x="365" y="30" on="0"/>
        <pt x="383" y="45" on="1"/>
        <pt x="390" y="51" on="0"/>
        <pt x="392" y="60" on="1"/>
        <pt x="394" y="69" on="0"/>
        <pt x="381" y="156" on="0"/>
        <pt x="374" y="195" on="1"/>
        <pt x="367" y="234" on="1"/>
        <pt x="365" y="238" on="0"/>
        <pt x="362" y="238" on="1"/>
        <pt x="271" y="238" on="1"/>
        <pt x="211" y="238" on="0"/>
        <pt x="173" y="236" on="1"/>
        <pt x="166" y="236" on="0"/>
        <pt x="166" y="232" on="1"/>
        <pt x="128" y="168" on="0"/>
        <pt x="108" y="130" on="1"/>
        <pt x="82" y="82" on="0"/>
        <pt x="78" y="60" on="1"/>
        <pt x="76" y="49" on="0"/>
        <pt x="105" y="34" on="0"/>
        <pt x="132" y="30" on="0"/>
        <pt x="139" y="30" on="1"/>
        <pt x="141" y="26" on="0"/>
        <pt x="137" y="0" on="0"/>
        <pt x="134" y="-4" on="1"/>
        <pt x="55" y="3" on="0"/>
        <pt x="40" y="3" on="1"/>
        <pt x="29" y="3" on="0"/>
        <pt x="-60" y="-4" on="1"/>
        <pt x="-62" y="-1" on="0"/>
        <pt x="-59" y="22" on="0"/>
        <pt x="-55" y="28" on="1"/>
        <pt x="-45" y="28" on="0"/>
        <pt x="1" y="45" on="0"/>
        <pt x="9" y="54" on="1"/>
        <pt x="34" y="85" on="0"/>
      </contour>
      <contour>
        <pt x="321" y="506" on="1"/>
        <pt x="197" y="290" on="1"/>
        <pt x="197" y="286" on="0"/>
        <pt x="199" y="286" on="1"/>
        <pt x="230" y="283" on="0"/>
        <pt x="277" y="283" on="1"/>
        <pt x="310" y="283" on="0"/>
        <pt x="354" y="286" on="1"/>
        <pt x="358" y="291" on="1"/>
      </contour>
    </TTGlyph>
    <TTGlyph name="AE" xMin="-63" yMin="-4" xMax="787" yMax="664">
      <contour>
        <pt x="485" y="656" on="1"/>
        <pt x="515" y="656" on="0"/>
        <pt x="746" y="664" on="0"/>
        <pt x="787" y="664" on="1"/>
        <pt x="787" y="523" on="1"/>
        <pt x="782" y="518" on="0"/>
        <pt x="768" y="518" on="1"/>
        <pt x="755" y="518" on="0"/>
        <pt x="755" y="526" on="1"/>
        <pt x="742" y="618" on="0"/>
        <pt x="669" y="618" on="1"/>
        <pt x="601" y="618" on="1"/>
        <pt x="541" y="618" on="0"/>
        <pt x="536" y="606" on="1"/>
        <pt x="531" y="591" on="0"/>
        <pt x="523" y="526" on="1"/>
        <pt x="507" y="353" on="1"/>
        <pt x="507" y="345" on="0"/>
        <pt x="542" y="345" on="1"/>
        <pt x="583" y="345" on="1"/>
        <pt x="635" y="345" on="0"/>
        <pt x="664" y="366" on="0"/>
        <pt x="684" y="415" on="1"/>
        <pt x="687" y="422" on="0"/>
        <pt x="697" y="422" on="1"/>
        <pt x="710" y="422" on="0"/>
        <pt x="713" y="418" on="1"/>
        <pt x="708" y="397" on="0"/>
        <pt x="692" y="257" on="0"/>
        <pt x="690" y="226" on="1"/>
        <pt x="686" y="222" on="0"/>
        <pt x="675" y="222" on="1"/>
        <pt x="662" y="222" on="0"/>
        <pt x="662" y="229" on="1"/>
        <pt x="658" y="281" on="0"/>
        <pt x="640" y="292" on="1"/>
        <pt x="628" y="299" on="0"/>
        <pt x="556" y="299" on="1"/>
        <pt x="502" y="299" on="0"/>
        <pt x="501" y="287" on="1"/>
        <pt x="487" y="148" on="1"/>
        <pt x="487" y="147" on="0"/>
        <pt x="483" y="107" on="0"/>
        <pt x="481" y="73" on="0"/>
        <pt x="482" y="62" on="1"/>
        <pt x="485" y="43" on="0"/>
        <pt x="542" y="43" on="1"/>
        <pt x="580" y="43" on="1"/>
        <pt x="645" y="43" on="0"/>
        <pt x="681" y="68" on="1"/>
        <pt x="711" y="91" on="0"/>
        <pt x="746" y="166" on="1"/>
        <pt x="749" y="172" on="0"/>
        <pt x="760" y="172" on="1"/>
        <pt x="780" y="172" on="0"/>
        <pt x="784" y="166" on="1"/>
        <pt x="732" y="58" on="0"/>
        <pt x="714" y="-3" on="1"/>
        <pt x="688" y="-3" on="0"/>
        <pt x="472" y="0" on="0"/>
        <pt x="414" y="0" on="1"/>
        <pt x="386" y="0" on="0"/>
        <pt x="326" y="-1" on="0"/>
        <pt x="289" y="-3" on="0"/>
        <pt x="288" y="-3" on="1"/>
        <pt x="286" y="1" on="0"/>
        <pt x="289" y="29" on="0"/>
        <pt x="293" y="32" on="1"/>
        <pt x="306" y="32" on="0"/>
        <pt x="356" y="43" on="0"/>
        <pt x="360" y="50" on="1"/>
        <pt x="372" y="71" on="0"/>
        <pt x="381" y="158" on="1"/>
        <pt x="382" y="168" on="0"/>
        <pt x="391" y="266" on="0"/>
        <pt x="392" y="275" on="1"/>
        <pt x="392" y="281" on="0"/>
        <pt x="387" y="281" on="1"/>
        <pt x="372" y="282" on="0"/>
        <pt x="313" y="282" on="1"/>
        <pt x="266" y="282" on="0"/>
        <pt x="236" y="281" on="1"/>
        <pt x="233" y="281" on="0"/>
        <pt x="229" y="277" on="1"/>
        <pt x="139" y="147" on="0"/>
        <pt x="129" y="133" on="1"/>
        <pt x="89" y="74" on="0"/>
        <pt x="87" y="58" on="1"/>
        <pt x="85" y="49" on="0"/>
        <pt x="111" y="34" on="0"/>
        <pt x="138" y="28" on="0"/>
        <pt x="144" y="28" on="1"/>
        <pt x="146" y="25" on="0"/>
        <pt x="144" y="-1" on="0"/>
        <pt x="141" y="-4" on="1"/>
        <pt x="62" y="3" on="0"/>
        <pt x="38" y="3" on="1"/>
        <pt x="28" y="3" on="0"/>
        <pt x="-61" y="-4" on="1"/>
        <pt x="-63" y="-2" on="0"/>
        <pt x="-63" y="24" on="0"/>
        <pt x="-59" y="28" on="1"/>
        <pt x="-49" y="28" on="0"/>
        <pt x="-1" y="45" on="0"/>
        <pt x="8" y="54" on="1"/>
        <pt x="38" y="85" on="0"/>
        <pt x="73" y="136" on="1"/>
        <pt x="387" y="588" on="1"/>
        <pt x="394" y="595" on="0"/>
        <pt x="394" y="604" on="1"/>
        <pt x="394" y="612" on="0"/>
        <pt x="376" y="624" on="0"/>
        <pt x="366" y="624" on="1"/>
        <pt x="364" y="627" on="0"/>
        <pt x="367" y="653" on="0"/>
        <pt x="369" y="658" on="1"/>
        <pt x="389" y="656" on="0"/>
      </contour>
      <contour>
        <pt x="421" y="557" on="1"/>
        <pt x="265" y="334" on="1"/>
        <pt x="265" y="330" on="0"/>
        <pt x="267" y="330" on="1"/>
        <pt x="285" y="328" on="0"/>
        <pt x="325" y="328" on="1"/>
        <pt x="369" y="328" on="0"/>
        <pt x="393" y="330" on="1"/>
        <pt x="398" y="336" on="1"/>
        <pt x="421" y="549" on="0"/>
      </contour>
    </TTGlyph>
    <TTGlyph name="Aacute" xMin="-60" yMin="-4" xMax="562" yMax="839">
      <component glyphName="acutecomb.cap" x="197" y="14" flags="0x1004"/>
      <component glyphName="A" x="0" y="0" flags="0x1204"/>
    </TTGlyph>
    <TTGlyph name="Abreve" xMin="-60" yMin="-4" xMax="562" yMax="842">
      <component glyphName="uni0306.cap" x="161" y="112" flags="0x1004"/>
      <component glyphName="A" x="0" y="0" flags="0x1204"/>
    </TTGlyph>
    <TTGlyph name="Acircumflex" xMin="-60" yMin="-4" xMax="562" yMax="860">
      <component glyphName="uni0302.cap" x="94" y="20" flags="0x1004"/>
      <component glyphName="A" x="0" y="0" flags="0x1204"/>
    </TTGlyph>
    <TTGlyph name="Adieresis" xMin="-60" yMin="-4" xMax="563" yMax="845">
      <component glyphName="uni0308.cap" x="77" y="12" flags="0x1004"/>
      <component glyphName="A" x="0" y="0" flags="0x1204"/>
    </TTGlyph>
    <TTGlyph name="Agrave" xMin="-60" yMin="-4" xMax="562" yMax="839">
      <component glyphName="gravecomb.cap" x="61" y="14" flags="0x1004"/>
      <component glyphName="A" x="0" y="0" flags="0x1204"/>
    </TTGlyph>
    <TTGlyph name="Amacron" xMin="-60" yMin="-4" xMax="562" yMax="769">
      <component glyphName="uni0304.cap" x="85" y="74" flags="0x1004"/>
      <component glyphName="A" x="0" y="0" flags="0x1204"/>
    </TTGlyph>
    <TTGlyph name="Aogonek" xMin="-61" yMin="-224" xMax="562" yMax="662">
      <contour>
        <pt x="557" y="-4" on="1"/>
        <pt x="544" y="-3" on="0"/>
        <pt x="494" y="2" on="0"/>
        <pt x="472" y="2" on="1"/>
        <pt x="411" y="2" on="0"/>
        <pt x="306" y="-90" on="0"/>
        <pt x="306" y="-130" on="1"/>
        <pt x="306" y="-164" on="0"/>
        <pt x="339" y="-164" on="1"/>
        <pt x="359" y="-164" on="0"/>
        <pt x="394" y="-146" on="0"/>
        <pt x="417" y="-126" on="0"/>
        <pt x="418" y="-126" on="1"/>
        <pt x="423" y="-128" on="0"/>
        <pt x="419" y="-151" on="0"/>
        <pt x="416" y="-154" on="1"/>
        <pt x="396" y="-182" on="0"/>
        <pt x="334" y="-224" on="0"/>
        <pt x="304" y="-224" on="1"/>
        <pt x="280" y="-224" on="0"/>
        <pt x="248" y="-190" on="0"/>
        <pt x="248" y="-169" on="1"/>
        <pt x="248" y="-141" on="0"/>
        <pt x="283" y="-77" on="0"/>
        <pt x="314" y="-42" on="0"/>
        <pt x="345" y="-9" on="1"/>
        <pt x="350" y="-4" on="0"/>
        <pt x="374" y="19" on="0"/>
        <pt x="383" y="30" on="0"/>
        <pt x="392" y="53" on="0"/>
        <pt x="392" y="67" on="1"/>
        <pt x="392" y="78" on="0"/>
        <pt x="380" y="161" on="0"/>
        <pt x="374" y="198" on="1"/>
        <pt x="367" y="234" on="1"/>
        <pt x="365" y="238" on="0"/>
        <pt x="362" y="238" on="1"/>
        <pt x="271" y="238" on="1"/>
        <pt x="211" y="238" on="0"/>
        <pt x="173" y="236" on="1"/>
        <pt x="166" y="236" on="0"/>
        <pt x="166" y="232" on="1"/>
        <pt x="128" y="168" on="0"/>
        <pt x="108" y="130" on="1"/>
        <pt x="82" y="82" on="0"/>
        <pt x="78" y="60" on="1"/>
        <pt x="76" y="49" on="0"/>
        <pt x="105" y="34" on="0"/>
        <pt x="132" y="30" on="0"/>
        <pt x="139" y="30" on="1"/>
        <pt x="141" y="26" on="0"/>
        <pt x="137" y="0" on="0"/>
        <pt x="134" y="-4" on="1"/>
        <pt x="55" y="3" on="0"/>
        <pt x="40" y="3" on="1"/>
        <pt x="29" y="3" on="0"/>
        <pt x="-60" y="-4" on="1"/>
        <pt x="-62" y="-1" on="0"/>
        <pt x="-59" y="22" on="0"/>
        <pt x="-55" y="28" on="1"/>
        <pt x="-45" y="28" on="0"/>
        <pt x="1" y="45" on="0"/>
        <pt x="9" y="54" on="1"/>
        <pt x="34" y="85" on="0"/>
        <pt x="63" y="136" on="1"/>
        <pt x="348" y="629" on="1"/>
        <pt x="354" y="639" on="0"/>
        <pt x="382" y="662" on="0"/>
        <pt x="396" y="662" on="0"/>
        <pt x="400" y="658" on="1"/>
        <pt x="488" y="147" on="0"/>
        <pt x="490" y="137" on="1"/>
        <pt x="494" y="117" on="0"/>
        <pt x="498" y="92" on="1"/>
        <pt x="501" y="68" on="1"/>
        <pt x="504" y="54" on="0"/>
        <pt x="533" y="35" on="0"/>
        <pt x="555" y="30" on="0"/>
        <pt x="562" y="30" on="1"/>
        <pt x="564" y="24" on="0"/>
        <pt x="560" y="-1" on="0"/>
      </contour>
      <contour>
        <pt x="321" y="506" on="1"/>
        <pt x="197" y="290" on="1"/>
        <pt x="197" y="286" on="0"/>
        <pt x="199" y="286" on="1"/>
        <pt x="230" y="283" on="0"/>
        <pt x="277" y="283" on="1"/>
        <pt x="310" y="283" on="0"/>
        <pt x="354" y="286" on="1"/>
        <pt x="358" y="291" on="1"/>
      </contour>
    </TTGlyph>
    <TTGlyph name="Aring" xMin="-60" yMin="-4" xMax="562" yMax="848">
      <component glyphName="uni030A.cap" x="115" y="79" flags="0x1004"/>
      <component glyphName="A" x="0" y="0" flags="0x1204"/>
    </TTGlyph>
    <TTGlyph name="Atilde" xMin="-60" yMin="-4" xMax="565" yMax="812">
      <component glyphName="tildecomb.cap" x="77" y="0" flags="0x1004"/>
      <component glyphName="A" x="0" y="0" flags="0x1204"/>
    </TTGlyph>
    <TTGlyph name="B" xMin="-7" yMin="-3" xMax="538" yMax="661">
      <contour>
        <pt x="240" y="371" on="1"/>
        <pt x="311" y="371" on="1"/>
        <pt x="352" y="371" on="0"/>
        <pt x="413" y="436" on="0"/>
        <pt x="423" y="487" on="1"/>
        <pt x="436" y="554" on="0"/>
        <pt x="390" y="622" on="0"/>
        <pt x="339" y="622" on="1"/>
        <pt x="297" y="622" on="0"/>
        <pt x="290" y="611" on="1"/>
        <pt x="285" y="602" on="0"/>
        <pt x="273" y="543" on="1"/>
      </contour>
      <contour>
        <pt x="232" y="333" on="1"/>
        <pt x="189" y="114" on="1"/>
        <pt x="179" y="63" on="0"/>
        <pt x="185" y="50" on="1"/>
        <pt x="194" y="35" on="0"/>
        <pt x="248" y="35" on="1"/>
        <pt x="299" y="35" on="0"/>
        <pt x="383" y="100" on="0"/>
        <pt x="398" y="176" on="1"/>
        <pt x="411" y="243" on="0"/>
        <pt x="363" y="333" on="0"/>
        <pt x="284" y="333" on="1"/>
      </contour>
      <contour>
        <pt x="380" y="660" on="1"/>
        <pt x="455" y="660" on="0"/>
        <pt x="553" y="585" on="0"/>
        <pt x="538" y="506" on="1"/>
        <pt x="527" y="455" on="0"/>
        <pt x="448" y="381" on="0"/>
        <pt x="414" y="368" on="1"/>
        <pt x="405" y="364" on="0"/>
        <pt x="410" y="362" on="1"/>
        <pt x="453" y="358" on="0"/>
        <pt x="534" y="265" on="0"/>
        <pt x="521" y="196" on="1"/>
        <pt x="512" y="150" on="0"/>
        <pt x="448" y="64" on="0"/>
        <pt x="405" y="38" on="1"/>
        <pt x="339" y="-3" on="0"/>
        <pt x="208" y="-3" on="1"/>
        <pt x="-7" y="-3" on="1"/>
        <pt x="-9" y="1" on="0"/>
        <pt x="-4" y="25" on="0"/>
        <pt x="0" y="30" on="1"/>
        <pt x="15" y="30" on="0"/>
        <pt x="61" y="38" on="0"/>
        <pt x="65" y="46" on="1"/>
        <pt x="74" y="62" on="0"/>
        <pt x="87" y="130" on="1"/>
        <pt x="164" y="528" on="1"/>
        <pt x="177" y="597" on="0"/>
        <pt x="175" y="612" on="1"/>
        <pt x="174" y="620" on="0"/>
        <pt x="131" y="628" on="0"/>
        <pt x="116" y="628" on="1"/>
        <pt x="114" y="632" on="0"/>
        <pt x="118" y="657" on="0"/>
        <pt x="122" y="661" on="1"/>
        <pt x="202" y="657" on="0"/>
        <pt x="243" y="657" on="1"/>
        <pt x="260" y="657" on="0"/>
        <pt x="351" y="660" on="0"/>
      </contour>
    </TTGlyph>
    <TTGlyph name="C" xMin="55" yMin="-8" xMax="632" yMax="667">
      <contour>
        <pt x="439" y="628" on="1"/>
        <pt x="328" y="628" on="0"/>
        <pt x="175" y="432" on="0"/>
        <pt x="175" y="275" on="1"/>
        <pt x="175" y="232" on="0"/>
        <pt x="195" y="151" on="0"/>
        <pt x="236" y="77" on="0"/>
        <pt x="311" y="32" on="0"/>
        <pt x="361" y="32" on="1"/>
        <pt x="434" y="32" on="0"/>
        <pt x="490" y="79" on="1"/>
        <pt x="538" y="119" on="0"/>
        <pt x="571" y="188" on="1"/>
        <pt x="592" y="188" on="0"/>
        <pt x="600" y="178" on="1"/>
        <pt x="597" y="164" on="0"/>
        <pt x="540" y="41" on="0"/>
        <pt x="530" y="34" on="1"/>
        <pt x="453" y="-8" on="0"/>
        <pt x="333" y="-8" on="1"/>
        <pt x="206" y="-8" on="0"/>
        <pt x="55" y="157" on="0"/>
        <pt x="55" y="270" on="1"/>
        <pt x="55" y="361" on="0"/>
        <pt x="125" y="515" on="0"/>
        <pt x="240" y="613" on="0"/>
        <pt x="381" y="668" on="0"/>
        <pt x="454" y="667" on="1"/>
        <pt x="518" y="666" on="0"/>
        <pt x="632" y="639" on="1"/>
        <pt x="631" y="605" on="0"/>
        <pt x="620" y="494" on="1"/>
        <pt x="618" y="483" on="0"/>
        <pt x="604" y="483" on="1"/>
        <pt x="592" y="483" on="0"/>
        <pt x="588" y="489" on="1"/>
        <pt x="590" y="540" on="0"/>
        <pt x="509" y="628" on="0"/>
      </contour>
    </TTGlyph>
    <TTGlyph name="Cacute" xMin="55" yMin="-8" xMax="632" yMax="840">
      <component glyphName="acutecomb.cap" x="273" y="15" flags="0x1004"/>
      <component glyphName="C" x="0" y="0" flags="0x1204"/>
    </TTGlyph>
    <TTGlyph name="Ccaron" xMin="55" yMin="-8" xMax="632" yMax="859">
      <component glyphName="uni030C.cap" x="127" y="7" flags="0x1004"/>
      <component glyphName="C" x="0" y="0" flags="0x1204"/>
    </TTGlyph>
    <TTGlyph name="Ccedilla" xMin="55" yMin="-153" xMax="632" yMax="667">
      <component glyphName="uni0327.cap" x="161" y="5" flags="0x1004"/>
      <component glyphName="C" x="0" y="0" flags="0x1204"/>
    </TTGlyph>
    <TTGlyph name="Ccircumflex" xMin="55" yMin="-8" xMax="632" yMax="860">
      <component glyphName="uni0302.cap" x="153" y="20" flags="0x1004"/>
      <component glyphName="C" x="0" y="0" flags="0x1204"/>
    </TTGlyph>
    <TTGlyph name="Cdotaccent" xMin="55" yMin="-8" xMax="632" yMax="847">
      <component glyphName="uni0307.cap" x="176" y="8" flags="0x1004"/>
      <component glyphName="C" x="0" y="0" flags="0x1204"/>
    </TTGlyph>
    <TTGlyph name="D" xMin="-7" yMin="-3" xMax="665" yMax="661">
      <contour>
        <pt x="273" y="543" on="1"/>
        <pt x="193" y="130" on="1"/>
        <pt x="181" y="68" on="0"/>
        <pt x="185" y="54" on="1"/>
        <pt x="191" y="35" on="0"/>
        <pt x="248" y="35" on="1"/>
        <pt x="363" y="35" on="0"/>
        <pt x="515" y="172" on="0"/>
        <pt x="543" y="314" on="1"/>
        <pt x="573" y="466" on="0"/>
        <pt x="464" y="622" on="0"/>
        <pt x="349" y="622" on="1"/>
        <pt x="298" y="622" on="0"/>
        <pt x="291" y="610" on="1"/>
        <pt x="285" y="599" on="0"/>
      </contour>
      <contour>
        <pt x="382" y="659" on="1"/>
        <pt x="541" y="659" on="0"/>
        <pt x="694" y="474" on="0"/>
        <pt x="665" y="326" on="1"/>
        <pt x="635" y="172" on="0"/>
        <pt x="418" y="-3" on="0"/>
        <pt x="244" y="-3" on="1"/>
        <pt x="-7" y="-3" on="1"/>
        <pt x="-9" y="1" on="0"/>
        <pt x="-4" y="25" on="0"/>
        <pt x="0" y="30" on="1"/>
        <pt x="15" y="30" on="0"/>
        <pt x="61" y="38" on="0"/>
        <pt x="65" y="46" on="1"/>
        <pt x="74" y="62" on="0"/>
        <pt x="87" y="130" on="1"/>
        <pt x="164" y="528" on="1"/>
        <pt x="177" y="597" on="0"/>
        <pt x="175" y="612" on="1"/>
        <pt x="174" y="620" on="0"/>
        <pt x="131" y="628" on="0"/>
        <pt x="116" y="628" on="1"/>
        <pt x="114" y="632" on="0"/>
        <pt x="118" y="657" on="0"/>
        <pt x="122" y="661" on="1"/>
        <pt x="202" y="657" on="0"/>
        <pt x="243" y="657" on="1"/>
        <pt x="261" y="657" on="0"/>
        <pt x="357" y="659" on="0"/>
      </contour>
    </TTGlyph>
    <TTGlyph name="Dcaron" xMin="-7" yMin="-3" xMax="665" yMax="858">
      <component glyphName="uni030C.cap" x="58" y="6" flags="0x1004"/>
      <component glyphName="D" x="0" y="0" flags="0x1204"/>
    </TTGlyph>
    <TTGlyph name="Dcroat" xMin="-7" yMin="-3" xMax="665" yMax="661">
      <component glyphName="Eth" x="0" y="0" flags="0x1204"/>
    </TTGlyph>
    <TTGlyph name="E" xMin="-6" yMin="-3" xMax="546" yMax="664">
      <contour>
        <pt x="244" y="656" on="1"/>
        <pt x="274" y="656" on="0"/>
        <pt x="505" y="664" on="0"/>
        <pt x="546" y="664" on="1"/>
        <pt x="546" y="522" on="1"/>
        <pt x="541" y="517" on="0"/>
        <pt x="525" y="517" on="1"/>
        <pt x="513" y="517" on="0"/>
        <pt x="513" y="524" on="1"/>
        <pt x="508" y="575" on="0"/>
        <pt x="467" y="620" on="0"/>
        <pt x="427" y="620" on="1"/>
        <pt x="348" y="620" on="1"/>
        <pt x="298" y="620" on="0"/>
        <pt x="291" y="609" on="1"/>
        <pt x="286" y="601" on="0"/>
        <pt x="274" y="543" on="1"/>
        <pt x="238" y="362" on="1"/>
        <pt x="236" y="353" on="0"/>
        <pt x="277" y="353" on="1"/>
        <pt x="326" y="353" on="1"/>
        <pt x="378" y="353" on="0"/>
        <pt x="410" y="376" on="0"/>
        <pt x="432" y="424" on="1"/>
        <pt x="435" y="432" on="0"/>
        <pt x="457" y="432" on="0"/>
        <pt x="461" y="426" on="1"/>
        <pt x="425" y="236" on="1"/>
        <pt x="421" y="232" on="0"/>
        <pt x="408" y="232" on="1"/>
        <pt x="396" y="232" on="0"/>
        <pt x="396" y="240" on="1"/>
        <pt x="394" y="295" on="0"/>
        <pt x="379" y="304" on="1"/>
        <pt x="367" y="311" on="0"/>
        <pt x="296" y="311" on="1"/>
        <pt x="228" y="311" on="0"/>
        <pt x="226" y="300" on="1"/>
        <pt x="193" y="128" on="1"/>
        <pt x="181" y="67" on="0"/>
        <pt x="185" y="54" on="1"/>
        <pt x="192" y="40" on="0"/>
        <pt x="245" y="40" on="1"/>
        <pt x="298" y="40" on="1"/>
        <pt x="365" y="40" on="0"/>
        <pt x="406" y="68" on="1"/>
        <pt x="443" y="95" on="0"/>
        <pt x="479" y="166" on="1"/>
        <pt x="482" y="172" on="0"/>
        <pt x="494" y="172" on="1"/>
        <pt x="514" y="172" on="0"/>
        <pt x="518" y="166" on="1"/>
        <pt x="444" y="23" on="0"/>
        <pt x="435" y="-3" on="1"/>
        <pt x="411" y="-3" on="0"/>
        <pt x="184" y="-1" on="0"/>
        <pt x="114" y="-1" on="1"/>
        <pt x="83" y="-1" on="0"/>
        <pt x="2" y="-3" on="0"/>
        <pt x="-6" y="-3" on="1"/>
        <pt x="-8" y="1" on="0"/>
        <pt x="-4" y="26" on="0"/>
        <pt x="0" y="30" on="1"/>
        <pt x="15" y="30" on="0"/>
        <pt x="62" y="38" on="0"/>
        <pt x="66" y="46" on="1"/>
        <pt x="75" y="62" on="0"/>
        <pt x="88" y="130" on="1"/>
        <pt x="165" y="528" on="1"/>
        <pt x="178" y="594" on="0"/>
        <pt x="175" y="612" on="1"/>
        <pt x="174" y="620" on="0"/>
        <pt x="131" y="628" on="0"/>
        <pt x="116" y="628" on="1"/>
        <pt x="114" y="633" on="0"/>
        <pt x="119" y="657" on="0"/>
        <pt x="123" y="661" on="1"/>
        <pt x="223" y="656" on="0"/>
      </contour>
    </TTGlyph>
    <TTGlyph name="Eacute" xMin="-6" yMin="-3" xMax="546" yMax="839">
      <component glyphName="acutecomb.cap" x="135" y="14" flags="0x1004"/>
      <component glyphName="E" x="0" y="0" flags="0x1204"/>
    </TTGlyph>
    <TTGlyph name="Ebreve" xMin="-6" yMin="-3" xMax="546" yMax="842">
      <component glyphName="uni0306.cap" x="123" y="112" flags="0x1004"/>
      <component glyphName="E" x="0" y="0" flags="0x1204"/>
    </TTGlyph>
    <TTGlyph name="Ecaron" xMin="-6" yMin="-3" xMax="546" yMax="858">
      <component glyphName="uni030C.cap" x="38" y="6" flags="0x1004"/>
      <component glyphName="E" x="0" y="0" flags="0x1204"/>
    </TTGlyph>
    <TTGlyph name="Ecircumflex" xMin="-6" yMin="-3" xMax="546" yMax="860">
      <component glyphName="uni0302.cap" x="58" y="20" flags="0x1004"/>
      <component glyphName="E" x="0" y="0" flags="0x1204"/>
    </TTGlyph>
    <TTGlyph name="Edieresis" xMin="-6" yMin="-3" xMax="546" yMax="845">
      <component glyphName="uni0308.cap" x="24" y="12" flags="0x1004"/>
      <component glyphName="E" x="0" y="0" flags="0x1204"/>
    </TTGlyph>
    <TTGlyph name="Edotaccent" xMin="-6" yMin="-3" xMax="546" yMax="847">
      <component glyphName="uni0307.cap" x="85" y="8" flags="0x1004"/>
      <component glyphName="E" x="0" y="0" flags="0x1204"/>
    </TTGlyph>
    <TTGlyph name="Egrave" xMin="-6" yMin="-3" xMax="546" yMax="839">
      <component glyphName="gravecomb.cap" x="55" y="14" flags="0x1004"/>
      <component glyphName="E" x="0" y="0" flags="0x1204"/>
    </TTGlyph>
    <TTGlyph name="Emacron" xMin="-6" yMin="-3" xMax="546" yMax="769">
      <component glyphName="uni0304.cap" x="53" y="74" flags="0x1004"/>
      <component glyphName="E" x="0" y="0" flags="0x1204"/>
    </TTGlyph>
    <TTGlyph name="Eng" xMin="-15" yMin="-226" xMax="773" yMax="663">
      <contour>
        <pt x="288" y="-204" on="1"/>
        <pt x="332" y="-189" on="0"/>
        <pt x="470" y="-28" on="0"/>
        <pt x="494" y="56" on="1"/>
        <pt x="226" y="544" on="1"/>
        <pt x="147" y="136" on="1"/>
        <pt x="135" y="73" on="0"/>
        <pt x="140" y="53" on="1"/>
        <pt x="143" y="44" on="0"/>
        <pt x="197" y="30" on="0"/>
        <pt x="210" y="30" on="1"/>
        <pt x="216" y="18" on="0"/>
        <pt x="205" y="-4" on="1"/>
        <pt x="196" y="-4" on="0"/>
        <pt x="118" y="3" on="0"/>
        <pt x="70" y="3" on="0"/>
        <pt x="1" y="-3" on="0"/>
        <pt x="-15" y="-4" on="1"/>
        <pt x="-16" y="1" on="0"/>
        <pt x="-11" y="24" on="0"/>
        <pt x="-8" y="29" on="1"/>
        <pt x="6" y="29" on="0"/>
        <pt x="62" y="42" on="0"/>
        <pt x="69" y="52" on="1"/>
        <pt x="85" y="76" on="0"/>
        <pt x="96" y="137" on="1"/>
        <pt x="102" y="170" on="0"/>
        <pt x="167" y="498" on="0"/>
        <pt x="173" y="531" on="1"/>
        <pt x="183" y="587" on="0"/>
        <pt x="175" y="610" on="1"/>
        <pt x="172" y="618" on="0"/>
        <pt x="124" y="630" on="0"/>
        <pt x="112" y="630" on="1"/>
        <pt x="109" y="635" on="0"/>
        <pt x="113" y="659" on="0"/>
        <pt x="117" y="663" on="1"/>
        <pt x="204" y="658" on="0"/>
        <pt x="217" y="658" on="1"/>
        <pt x="260" y="658" on="0"/>
        <pt x="304" y="662" on="1"/>
        <pt x="315" y="627" on="0"/>
        <pt x="399" y="473" on="0"/>
        <pt x="517" y="264" on="0"/>
        <pt x="547" y="207" on="1"/>
        <pt x="548" y="209" on="0"/>
        <pt x="553" y="236" on="0"/>
        <pt x="554" y="239" on="1"/>
        <pt x="607" y="510" on="1"/>
        <pt x="622" y="592" on="0"/>
        <pt x="617" y="609" on="1"/>
        <pt x="614" y="618" on="0"/>
        <pt x="563" y="630" on="0"/>
        <pt x="548" y="630" on="1"/>
        <pt x="546" y="633" on="0"/>
        <pt x="550" y="657" on="0"/>
        <pt x="553" y="663" on="1"/>
        <pt x="566" y="662" on="0"/>
        <pt x="638" y="656" on="0"/>
        <pt x="686" y="656" on="0"/>
        <pt x="761" y="662" on="0"/>
        <pt x="773" y="663" on="1"/>
        <pt x="778" y="647" on="0"/>
        <pt x="765" y="630" on="1"/>
        <pt x="751" y="630" on="0"/>
        <pt x="692" y="618" on="0"/>
        <pt x="686" y="608" on="1"/>
        <pt x="673" y="587" on="0"/>
        <pt x="658" y="512" on="1"/>
        <pt x="614" y="280" on="0"/>
        <pt x="584" y="130" on="1"/>
        <pt x="570" y="60" on="0"/>
        <pt x="514" y="-60" on="0"/>
        <pt x="449" y="-138" on="0"/>
        <pt x="377" y="-196" on="0"/>
        <pt x="318" y="-223" on="0"/>
        <pt x="295" y="-226" on="1"/>
        <pt x="286" y="-219" on="0"/>
      </contour>
    </TTGlyph>
    <TTGlyph name="Eogonek" xMin="-6" yMin="-224" xMax="546" yMax="664">
      <contour>
        <pt x="215" y="-170" on="1"/>
        <pt x="215" y="-127" on="0"/>
        <pt x="289" y="-23" on="0"/>
        <pt x="336" y="-2" on="1"/>
        <pt x="305" y="-2" on="0"/>
        <pt x="155" y="-1" on="0"/>
        <pt x="116" y="-1" on="1"/>
        <pt x="85" y="-1" on="0"/>
        <pt x="2" y="-3" on="0"/>
        <pt x="-6" y="-3" on="1"/>
        <pt x="-8" y="1" on="0"/>
        <pt x="-4" y="26" on="0"/>
        <pt x="0" y="30" on="1"/>
        <pt x="15" y="30" on="0"/>
        <pt x="62" y="38" on="0"/>
        <pt x="66" y="46" on="1"/>
        <pt x="75" y="62" on="0"/>
        <pt x="88" y="130" on="1"/>
        <pt x="165" y="528" on="1"/>
        <pt x="178" y="594" on="0"/>
        <pt x="175" y="612" on="1"/>
        <pt x="174" y="620" on="0"/>
        <pt x="131" y="628" on="0"/>
        <pt x="116" y="628" on="1"/>
        <pt x="114" y="633" on="0"/>
        <pt x="119" y="657" on="0"/>
        <pt x="123" y="661" on="1"/>
        <pt x="223" y="656" on="0"/>
        <pt x="244" y="656" on="1"/>
        <pt x="274" y="656" on="0"/>
        <pt x="505" y="664" on="0"/>
        <pt x="546" y="664" on="1"/>
        <pt x="546" y="522" on="1"/>
        <pt x="541" y="517" on="0"/>
        <pt x="525" y="517" on="1"/>
        <pt x="513" y="517" on="0"/>
        <pt x="513" y="524" on="1"/>
        <pt x="508" y="575" on="0"/>
        <pt x="467" y="620" on="0"/>
        <pt x="427" y="620" on="1"/>
        <pt x="348" y="620" on="1"/>
        <pt x="298" y="620" on="0"/>
        <pt x="291" y="609" on="1"/>
        <pt x="286" y="601" on="0"/>
        <pt x="274" y="543" on="1"/>
        <pt x="238" y="362" on="1"/>
        <pt x="236" y="353" on="0"/>
        <pt x="277" y="353" on="1"/>
        <pt x="326" y="353" on="1"/>
        <pt x="378" y="353" on="0"/>
        <pt x="410" y="376" on="0"/>
        <pt x="432" y="424" on="1"/>
        <pt x="435" y="432" on="0"/>
        <pt x="457" y="432" on="0"/>
        <pt x="461" y="426" on="1"/>
        <pt x="425" y="236" on="1"/>
        <pt x="421" y="232" on="0"/>
        <pt x="408" y="232" on="1"/>
        <pt x="396" y="232" on="0"/>
        <pt x="396" y="240" on="1"/>
        <pt x="394" y="295" on="0"/>
        <pt x="379" y="304" on="1"/>
        <pt x="367" y="311" on="0"/>
        <pt x="296" y="311" on="1"/>
        <pt x="228" y="311" on="0"/>
        <pt x="226" y="300" on="1"/>
        <pt x="193" y="128" on="1"/>
        <pt x="181" y="67" on="0"/>
        <pt x="185" y="54" on="1"/>
        <pt x="192" y="39" on="0"/>
        <pt x="245" y="39" on="1"/>
        <pt x="298" y="39" on="1"/>
        <pt x="363" y="39" on="0"/>
        <pt x="406" y="68" on="1"/>
        <pt x="443" y="95" on="0"/>
        <pt x="479" y="166" on="1"/>
        <pt x="482" y="172" on="0"/>
        <pt x="494" y="172" on="1"/>
        <pt x="514" y="172" on="0"/>
        <pt x="518" y="166" on="1"/>
        <pt x="444" y="23" on="0"/>
        <pt x="435" y="-3" on="1"/>
        <pt x="376" y="-3" on="0"/>
        <pt x="273" y="-89" on="0"/>
        <pt x="273" y="-130" on="1"/>
        <pt x="273" y="-164" on="0"/>
        <pt x="306" y="-164" on="1"/>
        <pt x="326" y="-164" on="0"/>
        <pt x="361" y="-146" on="0"/>
        <pt x="383" y="-126" on="0"/>
        <pt x="384" y="-126" on="1"/>
        <pt x="389" y="-128" on="0"/>
        <pt x="386" y="-151" on="0"/>
        <pt x="383" y="-154" on="1"/>
        <pt x="363" y="-182" on="0"/>
        <pt x="300" y="-224" on="0"/>
        <pt x="270" y="-224" on="1"/>
        <pt x="245" y="-224" on="0"/>
        <pt x="215" y="-192" on="0"/>
      </contour>
    </TTGlyph>
    <TTGlyph name="Eth" xMin="-7" yMin="-3" xMax="665" yMax="661">
      <contour>
        <pt x="69" y="346" on="1"/>
        <pt x="69" y="346" on="0"/>
        <pt x="399" y="346" on="1"/>
        <pt x="406" y="346" on="0"/>
        <pt x="404" y="338" on="1"/>
        <pt x="400" y="316" on="0"/>
        <pt x="394" y="308" on="1"/>
        <pt x="394" y="308" on="0"/>
        <pt x="63" y="308" on="1"/>
        <pt x="57" y="308" on="0"/>
        <pt x="60" y="320" on="1"/>
        <pt x="64" y="341" on="0"/>
      </contour>
      <contour>
        <pt x="273" y="543" on="1"/>
        <pt x="193" y="130" on="1"/>
        <pt x="181" y="68" on="0"/>
        <pt x="185" y="54" on="1"/>
        <pt x="191" y="35" on="0"/>
        <pt x="248" y="35" on="1"/>
        <pt x="363" y="35" on="0"/>
        <pt x="515" y="172" on="0"/>
        <pt x="543" y="314" on="1"/>
        <pt x="573" y="466" on="0"/>
        <pt x="464" y="622" on="0"/>
        <pt x="349" y="622" on="1"/>
        <pt x="298" y="622" on="0"/>
        <pt x="291" y="610" on="1"/>
        <pt x="285" y="599" on="0"/>
      </contour>
      <contour>
        <pt x="382" y="659" on="1"/>
        <pt x="541" y="659" on="0"/>
        <pt x="694" y="474" on="0"/>
        <pt x="665" y="326" on="1"/>
        <pt x="635" y="172" on="0"/>
        <pt x="418" y="-3" on="0"/>
        <pt x="244" y="-3" on="1"/>
        <pt x="-7" y="-3" on="1"/>
        <pt x="-9" y="1" on="0"/>
        <pt x="-4" y="25" on="0"/>
        <pt x="0" y="30" on="1"/>
        <pt x="15" y="30" on="0"/>
        <pt x="61" y="38" on="0"/>
        <pt x="65" y="46" on="1"/>
        <pt x="74" y="62" on="0"/>
        <pt x="87" y="130" on="1"/>
        <pt x="164" y="528" on="1"/>
        <pt x="177" y="597" on="0"/>
        <pt x="175" y="612" on="1"/>
        <pt x="174" y="620" on="0"/>
        <pt x="131" y="628" on="0"/>
        <pt x="116" y="628" on="1"/>
        <pt x="114" y="632" on="0"/>
        <pt x="118" y="657" on="0"/>
        <pt x="122" y="661" on="1"/>
        <pt x="202" y="657" on="0"/>
        <pt x="243" y="657" on="1"/>
        <pt x="261" y="657" on="0"/>
        <pt x="357" y="659" on="0"/>
      </contour>
    </TTGlyph>
    <TTGlyph name="Euro" xMin="32" yMin="-8" xMax="627" yMax="650">
      <contour>
        <pt x="36" y="246" on="1"/>
        <pt x="32" y="246" on="0"/>
        <pt x="32" y="254" on="1"/>
        <pt x="32" y="260" on="0"/>
        <pt x="40" y="283" on="0"/>
        <pt x="45" y="287" on="1"/>
        <pt x="84" y="287" on="1"/>
        <pt x="85" y="317" on="0"/>
        <pt x="91" y="346" on="1"/>
        <pt x="51" y="346" on="1"/>
        <pt x="47" y="346" on="0"/>
        <pt x="47" y="354" on="1"/>
        <pt x="47" y="360" on="0"/>
        <pt x="55" y="383" on="0"/>
        <pt x="60" y="387" on="1"/>
        <pt x="102" y="387" on="1"/>
        <pt x="128" y="468" on="0"/>
        <pt x="244" y="591" on="0"/>
        <pt x="385" y="651" on="0"/>
        <pt x="456" y="650" on="1"/>
        <pt x="524" y="649" on="0"/>
        <pt x="627" y="623" on="1"/>
        <pt x="625" y="586" on="0"/>
        <pt x="615" y="482" on="1"/>
        <pt x="613" y="471" on="0"/>
        <pt x="587" y="471" on="0"/>
        <pt x="583" y="477" on="1"/>
        <pt x="584" y="526" on="0"/>
        <pt x="509" y="612" on="0"/>
        <pt x="444" y="612" on="1"/>
        <pt x="366" y="612" on="0"/>
        <pt x="239" y="490" on="0"/>
        <pt x="214" y="387" on="1"/>
        <pt x="398" y="387" on="1"/>
        <pt x="401" y="387" on="0"/>
        <pt x="401" y="378" on="1"/>
        <pt x="401" y="358" on="0"/>
        <pt x="389" y="346" on="1"/>
        <pt x="206" y="346" on="1"/>
        <pt x="201" y="317" on="0"/>
        <pt x="200" y="287" on="1"/>
        <pt x="383" y="287" on="1"/>
        <pt x="386" y="287" on="0"/>
        <pt x="386" y="279" on="1"/>
        <pt x="386" y="258" on="0"/>
        <pt x="374" y="246" on="1"/>
        <pt x="201" y="246" on="1"/>
        <pt x="203" y="207" on="0"/>
        <pt x="226" y="134" on="0"/>
        <pt x="265" y="70" on="0"/>
        <pt x="330" y="31" on="0"/>
        <pt x="370" y="31" on="1"/>
        <pt x="437" y="31" on="0"/>
        <pt x="491" y="78" on="1"/>
        <pt x="536" y="117" on="0"/>
        <pt x="566" y="184" on="1"/>
        <pt x="586" y="184" on="0"/>
        <pt x="594" y="174" on="1"/>
        <pt x="591" y="160" on="0"/>
        <pt x="537" y="40" on="0"/>
        <pt x="528" y="33" on="1"/>
        <pt x="454" y="-8" on="0"/>
        <pt x="344" y="-8" on="1"/>
        <pt x="271" y="-8" on="0"/>
        <pt x="153" y="65" on="0"/>
        <pt x="88" y="180" on="0"/>
        <pt x="84" y="246" on="1"/>
      </contour>
    </TTGlyph>
    <TTGlyph name="F" xMin="-7" yMin="-4" xMax="545" yMax="664">
      <contour>
        <pt x="243" y="656" on="1"/>
        <pt x="273" y="656" on="0"/>
        <pt x="504" y="664" on="0"/>
        <pt x="545" y="664" on="1"/>
        <pt x="545" y="522" on="1"/>
        <pt x="540" y="517" on="0"/>
        <pt x="524" y="517" on="1"/>
        <pt x="512" y="517" on="0"/>
        <pt x="512" y="524" on="1"/>
        <pt x="507" y="575" on="0"/>
        <pt x="466" y="620" on="0"/>
        <pt x="426" y="620" on="1"/>
        <pt x="348" y="620" on="1"/>
        <pt x="297" y="620" on="0"/>
        <pt x="290" y="609" on="1"/>
        <pt x="285" y="601" on="0"/>
        <pt x="273" y="543" on="1"/>
        <pt x="237" y="360" on="1"/>
        <pt x="237" y="357" on="0"/>
        <pt x="248" y="353" on="0"/>
        <pt x="266" y="351" on="0"/>
        <pt x="276" y="351" on="1"/>
        <pt x="325" y="351" on="1"/>
        <pt x="377" y="351" on="0"/>
        <pt x="409" y="374" on="0"/>
        <pt x="431" y="422" on="1"/>
        <pt x="434" y="430" on="0"/>
        <pt x="456" y="430" on="0"/>
        <pt x="460" y="424" on="1"/>
        <pt x="424" y="234" on="1"/>
        <pt x="420" y="230" on="0"/>
        <pt x="407" y="230" on="1"/>
        <pt x="395" y="230" on="0"/>
        <pt x="395" y="238" on="1"/>
        <pt x="393" y="293" on="0"/>
        <pt x="378" y="302" on="1"/>
        <pt x="366" y="309" on="0"/>
        <pt x="295" y="309" on="1"/>
        <pt x="227" y="309" on="0"/>
        <pt x="225" y="298" on="1"/>
        <pt x="193" y="130" on="1"/>
        <pt x="180" y="64" on="0"/>
        <pt x="183" y="46" on="1"/>
        <pt x="184" y="38" on="0"/>
        <pt x="235" y="29" on="0"/>
        <pt x="250" y="29" on="1"/>
        <pt x="252" y="24" on="0"/>
        <pt x="247" y="0" on="0"/>
        <pt x="243" y="-4" on="1"/>
        <pt x="171" y="2" on="0"/>
        <pt x="115" y="2" on="1"/>
        <pt x="104" y="2" on="0"/>
        <pt x="-7" y="-4" on="1"/>
        <pt x="-9" y="0" on="0"/>
        <pt x="-4" y="24" on="0"/>
        <pt x="0" y="29" on="1"/>
        <pt x="14" y="29" on="0"/>
        <pt x="61" y="38" on="0"/>
        <pt x="65" y="46" on="1"/>
        <pt x="74" y="62" on="0"/>
        <pt x="87" y="130" on="1"/>
        <pt x="165" y="528" on="1"/>
        <pt x="178" y="594" on="0"/>
        <pt x="175" y="612" on="1"/>
        <pt x="174" y="620" on="0"/>
        <pt x="131" y="628" on="0"/>
        <pt x="116" y="628" on="1"/>
        <pt x="114" y="633" on="0"/>
        <pt x="119" y="657" on="0"/>
        <pt x="123" y="661" on="1"/>
        <pt x="223" y="656" on="0"/>
      </contour>
    </TTGlyph>
    <TTGlyph name="G" xMin="55" yMin="-8" xMax="664" yMax="667">
      <contour>
        <pt x="454" y="667" on="1"/>
        <pt x="518" y="666" on="0"/>
        <pt x="632" y="639" on="1"/>
        <pt x="631" y="605" on="0"/>
        <pt x="620" y="494" on="1"/>
        <pt x="618" y="483" on="0"/>
        <pt x="604" y="483" on="1"/>
        <pt x="592" y="483" on="0"/>
        <pt x="588" y="489" on="1"/>
        <pt x="590" y="541" on="0"/>
        <pt x="518" y="628" on="0"/>
        <pt x="449" y="628" on="1"/>
        <pt x="337" y="628" on="0"/>
        <pt x="175" y="431" on="0"/>
        <pt x="175" y="275" on="1"/>
        <pt x="175" y="233" on="0"/>
        <pt x="195" y="151" on="0"/>
        <pt x="235" y="77" on="0"/>
        <pt x="309" y="32" on="0"/>
        <pt x="358" y="32" on="1"/>
        <pt x="411" y="32" on="0"/>
        <pt x="444" y="54" on="1"/>
        <pt x="451" y="58" on="0"/>
        <pt x="454" y="70" on="1"/>
        <pt x="475" y="182" on="0"/>
        <pt x="476" y="186" on="1"/>
        <pt x="486" y="234" on="0"/>
        <pt x="484" y="248" on="1"/>
        <pt x="483" y="260" on="0"/>
        <pt x="437" y="270" on="0"/>
        <pt x="420" y="270" on="1"/>
        <pt x="417" y="271" on="0"/>
        <pt x="422" y="299" on="0"/>
        <pt x="426" y="303" on="1"/>
        <pt x="552" y="297" on="0"/>
        <pt x="555" y="297" on="1"/>
        <pt x="572" y="297" on="0"/>
        <pt x="608" y="299" on="0"/>
        <pt x="651" y="302" on="0"/>
        <pt x="664" y="303" on="1"/>
        <pt x="665" y="296" on="0"/>
        <pt x="660" y="272" on="0"/>
        <pt x="657" y="270" on="1"/>
        <pt x="647" y="270" on="0"/>
        <pt x="607" y="261" on="0"/>
        <pt x="602" y="255" on="1"/>
        <pt x="591" y="239" on="0"/>
        <pt x="582" y="196" on="1"/>
        <pt x="580" y="188" on="0"/>
        <pt x="566" y="110" on="0"/>
        <pt x="564" y="101" on="1"/>
        <pt x="563" y="92" on="0"/>
        <pt x="563" y="83" on="0"/>
        <pt x="565" y="71" on="0"/>
        <pt x="565" y="68" on="1"/>
        <pt x="564" y="55" on="0"/>
        <pt x="536" y="41" on="1"/>
        <pt x="505" y="26" on="0"/>
        <pt x="461" y="8" on="0"/>
        <pt x="379" y="-8" on="0"/>
        <pt x="330" y="-8" on="1"/>
        <pt x="205" y="-8" on="0"/>
        <pt x="55" y="158" on="0"/>
        <pt x="55" y="270" on="1"/>
        <pt x="55" y="361" on="0"/>
        <pt x="125" y="515" on="0"/>
        <pt x="240" y="613" on="0"/>
        <pt x="381" y="668" on="0"/>
      </contour>
    </TTGlyph>
    <TTGlyph name="Gbreve" xMin="55" yMin="-8" xMax="664" yMax="845">
      <component glyphName="uni0306.cap" x="219" y="115" flags="0x1004"/>
      <component glyphName="G" x="0" y="0" flags="0x1204"/>
    </TTGlyph>
    <TTGlyph name="Gcaron" xMin="55" yMin="-8" xMax="664" yMax="858">
      <component glyphName="uni030C.cap" x="97" y="6" flags="0x1004"/>
      <component glyphName="G" x="0" y="0" flags="0x1204"/>
    </TTGlyph>
    <TTGlyph name="Gcircumflex" xMin="55" yMin="-8" xMax="664" yMax="860">
      <component glyphName="uni0302.cap" x="145" y="20" flags="0x1004"/>
      <component glyphName="G" x="0" y="0" flags="0x1204"/>
    </TTGlyph>
    <TTGlyph name="Gcommaaccent" xMin="55" yMin="-240" xMax="664" yMax="667">
      <component glyphName="uni0326" x="249" y="-34" flags="0x1004"/>
      <component glyphName="G" x="0" y="0" flags="0x1204"/>
    </TTGlyph>
    <TTGlyph name="Gdotaccent" xMin="55" yMin="-8" xMax="664" yMax="845">
      <component glyphName="uni0307.cap" x="184" y="6" flags="0x1004"/>
      <component glyphName="G" x="0" y="0" flags="0x1204"/>
    </TTGlyph>
    <TTGlyph name="H" xMin="-7" yMin="-4" xMax="729" yMax="662">
      <contour>
        <pt x="243" y="656" on="1"/>
        <pt x="288" y="656" on="0"/>
        <pt x="364" y="662" on="1"/>
        <pt x="367" y="657" on="0"/>
        <pt x="363" y="634" on="0"/>
        <pt x="358" y="629" on="1"/>
        <pt x="344" y="629" on="0"/>
        <pt x="297" y="620" on="0"/>
        <pt x="293" y="612" on="1"/>
        <pt x="283" y="594" on="0"/>
        <pt x="270" y="528" on="1"/>
        <pt x="239" y="368" on="1"/>
        <pt x="240" y="365" on="1"/>
        <pt x="360" y="362" on="0"/>
        <pt x="369" y="362" on="1"/>
        <pt x="381" y="362" on="0"/>
        <pt x="495" y="365" on="1"/>
        <pt x="498" y="367" on="0"/>
        <pt x="498" y="369" on="1"/>
        <pt x="528" y="528" on="1"/>
        <pt x="541" y="594" on="0"/>
        <pt x="538" y="612" on="1"/>
        <pt x="537" y="620" on="0"/>
        <pt x="494" y="629" on="0"/>
        <pt x="480" y="629" on="1"/>
        <pt x="478" y="633" on="0"/>
        <pt x="482" y="658" on="0"/>
        <pt x="486" y="662" on="1"/>
        <pt x="560" y="656" on="0"/>
        <pt x="607" y="656" on="1"/>
        <pt x="652" y="656" on="0"/>
        <pt x="728" y="662" on="1"/>
        <pt x="731" y="657" on="0"/>
        <pt x="726" y="634" on="0"/>
        <pt x="721" y="629" on="1"/>
        <pt x="707" y="629" on="0"/>
        <pt x="660" y="620" on="0"/>
        <pt x="656" y="612" on="1"/>
        <pt x="647" y="596" on="0"/>
        <pt x="634" y="528" on="1"/>
        <pt x="557" y="130" on="1"/>
        <pt x="544" y="61" on="0"/>
        <pt x="546" y="46" on="1"/>
        <pt x="547" y="38" on="0"/>
        <pt x="591" y="29" on="0"/>
        <pt x="605" y="29" on="1"/>
        <pt x="607" y="24" on="0"/>
        <pt x="602" y="0" on="0"/>
        <pt x="598" y="-4" on="1"/>
        <pt x="526" y="2" on="0"/>
        <pt x="478" y="2" on="1"/>
        <pt x="433" y="2" on="0"/>
        <pt x="357" y="-4" on="1"/>
        <pt x="354" y="1" on="0"/>
        <pt x="358" y="24" on="0"/>
        <pt x="363" y="29" on="1"/>
        <pt x="378" y="29" on="0"/>
        <pt x="425" y="38" on="0"/>
        <pt x="429" y="46" on="1"/>
        <pt x="438" y="62" on="0"/>
        <pt x="451" y="130" on="1"/>
        <pt x="487" y="314" on="1"/>
        <pt x="486" y="318" on="1"/>
        <pt x="408" y="320" on="0"/>
        <pt x="361" y="320" on="1"/>
        <pt x="238" y="320" on="0"/>
        <pt x="230" y="316" on="1"/>
        <pt x="228" y="313" on="1"/>
        <pt x="193" y="130" on="1"/>
        <pt x="180" y="64" on="0"/>
        <pt x="183" y="46" on="1"/>
        <pt x="184" y="38" on="0"/>
        <pt x="227" y="29" on="0"/>
        <pt x="241" y="29" on="1"/>
        <pt x="243" y="25" on="0"/>
        <pt x="239" y="0" on="0"/>
        <pt x="235" y="-4" on="1"/>
        <pt x="163" y="2" on="0"/>
        <pt x="115" y="2" on="1"/>
        <pt x="69" y="2" on="0"/>
        <pt x="-7" y="-4" on="1"/>
        <pt x="-9" y="0" on="0"/>
        <pt x="-4" y="24" on="0"/>
        <pt x="0" y="29" on="1"/>
        <pt x="14" y="29" on="0"/>
        <pt x="61" y="38" on="0"/>
        <pt x="65" y="46" on="1"/>
        <pt x="74" y="62" on="0"/>
        <pt x="87" y="130" on="1"/>
        <pt x="165" y="528" on="1"/>
        <pt x="178" y="594" on="0"/>
        <pt x="175" y="612" on="1"/>
        <pt x="174" y="620" on="0"/>
        <pt x="130" y="629" on="0"/>
        <pt x="116" y="629" on="1"/>
        <pt x="114" y="634" on="0"/>
        <pt x="119" y="658" on="0"/>
        <pt x="123" y="662" on="1"/>
        <pt x="197" y="656" on="0"/>
      </contour>
    </TTGlyph>
    <TTGlyph name="Hbar" xMin="-6" yMin="-4" xMax="730" yMax="662">
      <contour>
        <pt x="106" y="510" on="1"/>
        <pt x="106" y="510" on="0"/>
        <pt x="677" y="510" on="1"/>
        <pt x="682" y="510" on="0"/>
        <pt x="680" y="503" on="1"/>
        <pt x="677" y="486" on="0"/>
        <pt x="669" y="474" on="1"/>
        <pt x="669" y="474" on="0"/>
        <pt x="96" y="474" on="1"/>
        <pt x="94" y="474" on="0"/>
        <pt x="93" y="483" on="0"/>
        <pt x="94" y="486" on="1"/>
        <pt x="97" y="499" on="0"/>
      </contour>
      <contour>
        <pt x="244" y="656" on="1"/>
        <pt x="289" y="656" on="0"/>
        <pt x="365" y="662" on="1"/>
        <pt x="368" y="657" on="0"/>
        <pt x="364" y="634" on="0"/>
        <pt x="359" y="629" on="1"/>
        <pt x="345" y="629" on="0"/>
        <pt x="298" y="620" on="0"/>
        <pt x="294" y="612" on="1"/>
        <pt x="284" y="594" on="0"/>
        <pt x="271" y="528" on="1"/>
        <pt x="240" y="368" on="1"/>
        <pt x="241" y="365" on="1"/>
        <pt x="361" y="362" on="0"/>
        <pt x="370" y="362" on="1"/>
        <pt x="382" y="362" on="0"/>
        <pt x="496" y="365" on="1"/>
        <pt x="499" y="367" on="0"/>
        <pt x="499" y="369" on="1"/>
        <pt x="529" y="528" on="1"/>
        <pt x="542" y="594" on="0"/>
        <pt x="539" y="612" on="1"/>
        <pt x="538" y="620" on="0"/>
        <pt x="495" y="629" on="0"/>
        <pt x="481" y="629" on="1"/>
        <pt x="479" y="633" on="0"/>
        <pt x="483" y="658" on="0"/>
        <pt x="487" y="662" on="1"/>
        <pt x="561" y="656" on="0"/>
        <pt x="608" y="656" on="1"/>
        <pt x="653" y="656" on="0"/>
        <pt x="729" y="662" on="1"/>
        <pt x="732" y="657" on="0"/>
        <pt x="727" y="634" on="0"/>
        <pt x="722" y="629" on="1"/>
        <pt x="708" y="629" on="0"/>
        <pt x="661" y="620" on="0"/>
        <pt x="657" y="612" on="1"/>
        <pt x="648" y="596" on="0"/>
        <pt x="635" y="528" on="1"/>
        <pt x="558" y="130" on="1"/>
        <pt x="545" y="61" on="0"/>
        <pt x="547" y="46" on="1"/>
        <pt x="548" y="38" on="0"/>
        <pt x="592" y="29" on="0"/>
        <pt x="606" y="29" on="1"/>
        <pt x="608" y="24" on="0"/>
        <pt x="603" y="0" on="0"/>
        <pt x="599" y="-4" on="1"/>
        <pt x="527" y="2" on="0"/>
        <pt x="479" y="2" on="1"/>
        <pt x="434" y="2" on="0"/>
        <pt x="358" y="-4" on="1"/>
        <pt x="355" y="1" on="0"/>
        <pt x="359" y="24" on="0"/>
        <pt x="364" y="29" on="1"/>
        <pt x="379" y="29" on="0"/>
        <pt x="426" y="38" on="0"/>
        <pt x="430" y="46" on="1"/>
        <pt x="439" y="62" on="0"/>
        <pt x="452" y="130" on="1"/>
        <pt x="488" y="314" on="1"/>
        <pt x="487" y="318" on="1"/>
        <pt x="409" y="320" on="0"/>
        <pt x="362" y="320" on="1"/>
        <pt x="239" y="320" on="0"/>
        <pt x="231" y="316" on="1"/>
        <pt x="229" y="313" on="1"/>
        <pt x="194" y="130" on="1"/>
        <pt x="181" y="64" on="0"/>
        <pt x="184" y="46" on="1"/>
        <pt x="185" y="38" on="0"/>
        <pt x="228" y="29" on="0"/>
        <pt x="242" y="29" on="1"/>
        <pt x="244" y="25" on="0"/>
        <pt x="240" y="0" on="0"/>
        <pt x="236" y="-4" on="1"/>
        <pt x="164" y="2" on="0"/>
        <pt x="116" y="2" on="1"/>
        <pt x="70" y="2" on="0"/>
        <pt x="-6" y="-4" on="1"/>
        <pt x="-8" y="0" on="0"/>
        <pt x="-3" y="24" on="0"/>
        <pt x="1" y="29" on="1"/>
        <pt x="15" y="29" on="0"/>
        <pt x="62" y="38" on="0"/>
        <pt x="66" y="46" on="1"/>
        <pt x="75" y="62" on="0"/>
        <pt x="88" y="130" on="1"/>
        <pt x="166" y="528" on="1"/>
        <pt x="179" y="594" on="0"/>
        <pt x="176" y="612" on="1"/>
        <pt x="175" y="620" on="0"/>
        <pt x="131" y="629" on="0"/>
        <pt x="117" y="629" on="1"/>
        <pt x="115" y="634" on="0"/>
        <pt x="120" y="658" on="0"/>
        <pt x="124" y="662" on="1"/>
        <pt x="198" y="656" on="0"/>
      </contour>
    </TTGlyph>
    <TTGlyph name="Hcircumflex" xMin="-7" yMin="-4" xMax="728" yMax="860">
      <component glyphName="uni0302.cap" x="140" y="20" flags="0x1004"/>
      <component glyphName="H" x="0" y="0" flags="0x1204"/>
    </TTGlyph>
    <TTGlyph name="I" xMin="-7" yMin="-4" xMax="365" yMax="662">
      <contour>
        <pt x="243" y="656" on="1"/>
        <pt x="288" y="656" on="0"/>
        <pt x="364" y="662" on="1"/>
        <pt x="367" y="657" on="0"/>
        <pt x="363" y="634" on="0"/>
        <pt x="358" y="629" on="1"/>
        <pt x="344" y="629" on="0"/>
        <pt x="297" y="620" on="0"/>
        <pt x="293" y="612" on="1"/>
        <pt x="283" y="594" on="0"/>
        <pt x="270" y="528" on="1"/>
        <pt x="193" y="130" on="1"/>
        <pt x="180" y="64" on="0"/>
        <pt x="183" y="46" on="1"/>
        <pt x="184" y="38" on="0"/>
        <pt x="227" y="29" on="0"/>
        <pt x="241" y="29" on="1"/>
        <pt x="243" y="25" on="0"/>
        <pt x="239" y="0" on="0"/>
        <pt x="235" y="-4" on="1"/>
        <pt x="163" y="2" on="0"/>
        <pt x="115" y="2" on="1"/>
        <pt x="69" y="2" on="0"/>
        <pt x="-7" y="-4" on="1"/>
        <pt x="-9" y="0" on="0"/>
        <pt x="-4" y="24" on="0"/>
        <pt x="0" y="29" on="1"/>
        <pt x="14" y="29" on="0"/>
        <pt x="61" y="38" on="0"/>
        <pt x="65" y="46" on="1"/>
        <pt x="74" y="62" on="0"/>
        <pt x="87" y="130" on="1"/>
        <pt x="165" y="528" on="1"/>
        <pt x="178" y="594" on="0"/>
        <pt x="175" y="612" on="1"/>
        <pt x="174" y="620" on="0"/>
        <pt x="130" y="629" on="0"/>
        <pt x="116" y="629" on="1"/>
        <pt x="114" y="634" on="0"/>
        <pt x="119" y="658" on="0"/>
        <pt x="123" y="662" on="1"/>
        <pt x="197" y="656" on="0"/>
      </contour>
    </TTGlyph>
    <TTGlyph name="IJ" xMin="-7" yMin="-226" xMax="610" yMax="662">
      <component glyphName="J" x="258" y="0" flags="0x1004"/>
      <component glyphName="I" x="0" y="0" flags="0x1004"/>
    </TTGlyph>
    <TTGlyph name="Iacute" xMin="-7" yMin="-4" xMax="375" yMax="839">
      <component glyphName="acutecomb.cap" x="27" y="14" flags="0x1004"/>
      <component glyphName="I" x="0" y="0" flags="0x1204"/>
    </TTGlyph>
    <TTGlyph name="Ibreve" xMin="-7" yMin="-4" xMax="377" yMax="842">
      <component glyphName="uni0306.cap" x="16" y="112" flags="0x1004"/>
      <component glyphName="I" x="0" y="0" flags="0x1204"/>
    </TTGlyph>
    <TTGlyph name="Icircumflex" xMin="-7" yMin="-4" xMax="381" yMax="860">
      <component glyphName="uni0302.cap" x="-42" y="20" flags="0x1004"/>
      <component glyphName="I" x="0" y="0" flags="0x1204"/>
    </TTGlyph>
    <TTGlyph name="Idieresis" xMin="-7" yMin="-4" xMax="418" yMax="845">
      <component glyphName="uni0308.cap" x="-68" y="12" flags="0x1004"/>
      <component glyphName="I" x="0" y="0" flags="0x1204"/>
    </TTGlyph>
    <TTGlyph name="Idotaccent" xMin="-7" yMin="-4" xMax="364" yMax="847">
      <component glyphName="uni0307.cap" x="-22" y="8" flags="0x1004"/>
      <component glyphName="I" x="0" y="0" flags="0x1204"/>
    </TTGlyph>
    <TTGlyph name="Igrave" xMin="-7" yMin="-4" xMax="364" yMax="839">
      <component glyphName="gravecomb.cap" x="-35" y="14" flags="0x1004"/>
      <component glyphName="I" x="0" y="0" flags="0x1204"/>
    </TTGlyph>
    <TTGlyph name="Imacron" xMin="-7" yMin="-4" xMax="387" yMax="769">
      <component glyphName="uni0304.cap" x="-54" y="74" flags="0x1004"/>
      <component glyphName="I" x="0" y="0" flags="0x1204"/>
    </TTGlyph>
    <TTGlyph name="Iogonek" xMin="-7" yMin="-224" xMax="365" yMax="662">
      <contour>
        <pt x="241" y="29" on="1"/>
        <pt x="242" y="24" on="0"/>
        <pt x="238" y="0" on="0"/>
        <pt x="235" y="-4" on="1"/>
        <pt x="199" y="-4" on="0"/>
        <pt x="179" y="-8" on="1"/>
        <pt x="132" y="-18" on="0"/>
        <pt x="57" y="-94" on="0"/>
        <pt x="57" y="-130" on="1"/>
        <pt x="57" y="-164" on="0"/>
        <pt x="90" y="-164" on="1"/>
        <pt x="110" y="-164" on="0"/>
        <pt x="145" y="-146" on="0"/>
        <pt x="168" y="-126" on="0"/>
        <pt x="169" y="-126" on="1"/>
        <pt x="174" y="-128" on="0"/>
        <pt x="170" y="-151" on="0"/>
        <pt x="167" y="-154" on="1"/>
        <pt x="147" y="-182" on="0"/>
        <pt x="85" y="-224" on="0"/>
        <pt x="55" y="-224" on="1"/>
        <pt x="31" y="-224" on="0"/>
        <pt x="0" y="-191" on="0"/>
        <pt x="0" y="-170" on="1"/>
        <pt x="0" y="-121" on="0"/>
        <pt x="79" y="-17" on="0"/>
        <pt x="119" y="3" on="1"/>
        <pt x="79" y="3" on="0"/>
        <pt x="-7" y="-4" on="1"/>
        <pt x="-9" y="0" on="0"/>
        <pt x="-4" y="24" on="0"/>
        <pt x="0" y="29" on="1"/>
        <pt x="14" y="29" on="0"/>
        <pt x="61" y="38" on="0"/>
        <pt x="65" y="46" on="1"/>
        <pt x="74" y="62" on="0"/>
        <pt x="87" y="130" on="1"/>
        <pt x="165" y="528" on="1"/>
        <pt x="178" y="594" on="0"/>
        <pt x="175" y="612" on="1"/>
        <pt x="174" y="620" on="0"/>
        <pt x="130" y="629" on="0"/>
        <pt x="116" y="629" on="1"/>
        <pt x="114" y="634" on="0"/>
        <pt x="119" y="658" on="0"/>
        <pt x="123" y="662" on="1"/>
        <pt x="197" y="656" on="0"/>
        <pt x="243" y="656" on="1"/>
        <pt x="288" y="656" on="0"/>
        <pt x="364" y="662" on="1"/>
        <pt x="367" y="657" on="0"/>
        <pt x="363" y="634" on="0"/>
        <pt x="358" y="629" on="1"/>
        <pt x="344" y="629" on="0"/>
        <pt x="297" y="620" on="0"/>
        <pt x="293" y="612" on="1"/>
        <pt x="283" y="594" on="0"/>
        <pt x="270" y="528" on="1"/>
        <pt x="193" y="130" on="1"/>
        <pt x="180" y="64" on="0"/>
        <pt x="183" y="46" on="1"/>
        <pt x="184" y="38" on="0"/>
        <pt x="227" y="29" on="0"/>
      </contour>
    </TTGlyph>
    <TTGlyph name="Itilde" xMin="-7" yMin="-4" xMax="420" yMax="812">
      <component glyphName="tildecomb.cap" x="-68" y="0" flags="0x1004"/>
      <component glyphName="I" x="0" y="0" flags="0x1204"/>
    </TTGlyph>
    <TTGlyph name="J" xMin="-109" yMin="-226" xMax="352" yMax="660">
      <contour>
        <pt x="234" y="654" on="1"/>
        <pt x="276" y="654" on="0"/>
        <pt x="352" y="660" on="1"/>
        <pt x="354" y="658" on="0"/>
        <pt x="350" y="633" on="0"/>
        <pt x="347" y="628" on="1"/>
        <pt x="336" y="628" on="0"/>
        <pt x="290" y="616" on="0"/>
        <pt x="286" y="608" on="1"/>
        <pt x="270" y="577" on="0"/>
        <pt x="260" y="514" on="1"/>
        <pt x="187" y="130" on="1"/>
        <pt x="174" y="60" on="0"/>
        <pt x="118" y="-60" on="0"/>
        <pt x="53" y="-138" on="0"/>
        <pt x="-20" y="-196" on="0"/>
        <pt x="-79" y="-223" on="0"/>
        <pt x="-102" y="-226" on="1"/>
        <pt x="-109" y="-221" on="0"/>
        <pt x="-109" y="-210" on="1"/>
        <pt x="-108" y="-204" on="1"/>
        <pt x="-30" y="-171" on="0"/>
        <pt x="55" y="-18" on="0"/>
        <pt x="82" y="122" on="1"/>
        <pt x="156" y="512" on="1"/>
        <pt x="168" y="579" on="0"/>
        <pt x="166" y="606" on="1"/>
        <pt x="165" y="616" on="0"/>
        <pt x="121" y="628" on="0"/>
        <pt x="107" y="628" on="1"/>
        <pt x="105" y="631" on="0"/>
        <pt x="111" y="656" on="0"/>
        <pt x="114" y="660" on="1"/>
        <pt x="190" y="654" on="0"/>
      </contour>
    </TTGlyph>
    <TTGlyph name="Jcircumflex" xMin="-109" yMin="-226" xMax="371" yMax="860">
      <component glyphName="uni0302.cap" x="-52" y="20" flags="0x1004"/>
      <component glyphName="J" x="0" y="0" flags="0x1204"/>
    </TTGlyph>
    <TTGlyph name="K" xMin="-7" yMin="-4" xMax="696" yMax="662">
      <contour>
        <pt x="501" y="106" on="1"/>
        <pt x="552" y="33" on="0"/>
        <pt x="616" y="28" on="1"/>
        <pt x="622" y="19" on="0"/>
        <pt x="611" y="-2" on="1"/>
        <pt x="545" y="-4" on="0"/>
        <pt x="513" y="1" on="1"/>
        <pt x="471" y="2" on="0"/>
        <pt x="417" y="34" on="0"/>
        <pt x="391" y="72" on="1"/>
        <pt x="342" y="145" on="0"/>
        <pt x="244" y="303" on="1"/>
        <pt x="242" y="306" on="0"/>
        <pt x="230" y="306" on="0"/>
        <pt x="226" y="302" on="1"/>
        <pt x="193" y="130" on="1"/>
        <pt x="180" y="64" on="0"/>
        <pt x="183" y="46" on="1"/>
        <pt x="184" y="38" on="0"/>
        <pt x="227" y="29" on="0"/>
        <pt x="241" y="29" on="1"/>
        <pt x="243" y="25" on="0"/>
        <pt x="239" y="0" on="0"/>
        <pt x="235" y="-4" on="1"/>
        <pt x="163" y="2" on="0"/>
        <pt x="115" y="2" on="1"/>
        <pt x="69" y="2" on="0"/>
        <pt x="-7" y="-4" on="1"/>
        <pt x="-9" y="0" on="0"/>
        <pt x="-4" y="24" on="0"/>
        <pt x="0" y="29" on="1"/>
        <pt x="14" y="29" on="0"/>
        <pt x="61" y="38" on="0"/>
        <pt x="65" y="46" on="1"/>
        <pt x="74" y="62" on="0"/>
        <pt x="87" y="130" on="1"/>
        <pt x="164" y="528" on="1"/>
        <pt x="177" y="597" on="0"/>
        <pt x="175" y="612" on="1"/>
        <pt x="174" y="620" on="0"/>
        <pt x="130" y="629" on="0"/>
        <pt x="116" y="629" on="1"/>
        <pt x="114" y="634" on="0"/>
        <pt x="119" y="658" on="0"/>
        <pt x="123" y="662" on="1"/>
        <pt x="197" y="656" on="0"/>
        <pt x="243" y="656" on="1"/>
        <pt x="288" y="656" on="0"/>
        <pt x="364" y="662" on="1"/>
        <pt x="367" y="657" on="0"/>
        <pt x="363" y="634" on="0"/>
        <pt x="358" y="629" on="1"/>
        <pt x="343" y="629" on="0"/>
        <pt x="296" y="620" on="0"/>
        <pt x="292" y="612" on="1"/>
        <pt x="283" y="596" on="0"/>
        <pt x="270" y="528" on="1"/>
        <pt x="233" y="338" on="1"/>
        <pt x="281" y="371" on="0"/>
        <pt x="352" y="434" on="1"/>
        <pt x="364" y="444" on="0"/>
        <pt x="407" y="483" on="0"/>
        <pt x="420" y="494" on="0"/>
        <pt x="448" y="519" on="0"/>
        <pt x="463" y="535" on="0"/>
        <pt x="486" y="558" on="0"/>
        <pt x="499" y="573" on="1"/>
        <pt x="512" y="586" on="0"/>
        <pt x="517" y="605" on="1"/>
        <pt x="521" y="629" on="0"/>
        <pt x="469" y="629" on="1"/>
        <pt x="465" y="644" on="0"/>
        <pt x="475" y="662" on="1"/>
        <pt x="577" y="656" on="0"/>
        <pt x="587" y="656" on="1"/>
        <pt x="624" y="656" on="0"/>
        <pt x="696" y="662" on="1"/>
        <pt x="697" y="656" on="0"/>
        <pt x="692" y="632" on="0"/>
        <pt x="688" y="630" on="1"/>
        <pt x="618" y="622" on="0"/>
        <pt x="582" y="589" on="1"/>
        <pt x="568" y="575" on="0"/>
        <pt x="341" y="371" on="1"/>
        <pt x="332" y="363" on="0"/>
        <pt x="337" y="355" on="1"/>
        <pt x="430" y="204" on="0"/>
      </contour>
    </TTGlyph>
    <TTGlyph name="Kcommaaccent" xMin="-7" yMin="-226" xMax="696" yMax="662">
      <component glyphName="uni0326" x="229" y="-20" flags="0x1004"/>
      <component glyphName="K" x="0" y="0" flags="0x1204"/>
    </TTGlyph>
    <TTGlyph name="L" xMin="-7" yMin="-3" xMax="517" yMax="662">
      <contour>
        <pt x="192" y="130" on="1"/>
        <pt x="180" y="68" on="0"/>
        <pt x="184" y="54" on="1"/>
        <pt x="192" y="39" on="0"/>
        <pt x="244" y="39" on="1"/>
        <pt x="302" y="39" on="1"/>
        <pt x="366" y="39" on="0"/>
        <pt x="405" y="68" on="1"/>
        <pt x="442" y="95" on="0"/>
        <pt x="478" y="166" on="1"/>
        <pt x="481" y="172" on="0"/>
        <pt x="493" y="172" on="1"/>
        <pt x="513" y="172" on="0"/>
        <pt x="517" y="166" on="1"/>
        <pt x="443" y="23" on="0"/>
        <pt x="434" y="-3" on="1"/>
        <pt x="410" y="-3" on="0"/>
        <pt x="185" y="-1" on="0"/>
        <pt x="115" y="-1" on="1"/>
        <pt x="84" y="-1" on="0"/>
        <pt x="2" y="-3" on="0"/>
        <pt x="-7" y="-3" on="1"/>
        <pt x="-9" y="1" on="0"/>
        <pt x="-4" y="25" on="0"/>
        <pt x="0" y="30" on="1"/>
        <pt x="15" y="30" on="0"/>
        <pt x="61" y="38" on="0"/>
        <pt x="65" y="46" on="1"/>
        <pt x="74" y="62" on="0"/>
        <pt x="87" y="130" on="1"/>
        <pt x="164" y="528" on="1"/>
        <pt x="177" y="597" on="0"/>
        <pt x="175" y="612" on="1"/>
        <pt x="174" y="620" on="0"/>
        <pt x="130" y="629" on="0"/>
        <pt x="116" y="629" on="1"/>
        <pt x="114" y="633" on="0"/>
        <pt x="118" y="658" on="0"/>
        <pt x="122" y="662" on="1"/>
        <pt x="196" y="656" on="0"/>
        <pt x="243" y="656" on="1"/>
        <pt x="288" y="656" on="0"/>
        <pt x="364" y="662" on="1"/>
        <pt x="367" y="657" on="0"/>
        <pt x="362" y="634" on="0"/>
        <pt x="357" y="629" on="1"/>
        <pt x="343" y="629" on="0"/>
        <pt x="296" y="620" on="0"/>
        <pt x="292" y="612" on="1"/>
        <pt x="283" y="596" on="0"/>
        <pt x="270" y="528" on="1"/>
      </contour>
    </TTGlyph>
    <TTGlyph name="Lacute" xMin="-7" yMin="-3" xMax="517" yMax="839">
      <component glyphName="acutecomb.cap" x="46" y="14" flags="0x1004"/>
      <component glyphName="L" x="0" y="0" flags="0x1204"/>
    </TTGlyph>
    <TTGlyph name="Lcaron" xMin="-7" yMin="-3" xMax="603" yMax="666">
      <component glyphName="uni0315" x="369" y="-15" flags="0x1004"/>
      <component glyphName="L" x="0" y="0" flags="0x1004"/>
    </TTGlyph>
    <TTGlyph name="Lcommaaccent" xMin="-7" yMin="-226" xMax="517" yMax="662">
      <component glyphName="uni0326" x="152" y="-20" flags="0x1004"/>
      <component glyphName="L" x="0" y="0" flags="0x1204"/>
    </TTGlyph>
    <TTGlyph name="Ldot" xMin="-7" yMin="-3" xMax="517" yMax="662">
      <component glyphName="uni0307" x="197" y="-249" flags="0x1004"/>
      <component glyphName="L" x="0" y="0" flags="0x1204"/>
    </TTGlyph>
    <TTGlyph name="Lslash" xMin="-6" yMin="-3" xMax="518" yMax="662">
      <contour>
        <pt x="59" y="208" on="1"/>
        <pt x="432" y="448" on="1"/>
        <pt x="436" y="443" on="0"/>
        <pt x="446" y="418" on="0"/>
        <pt x="443" y="416" on="1"/>
        <pt x="70" y="178" on="1"/>
        <pt x="53" y="204" on="0"/>
      </contour>
      <contour>
        <pt x="193" y="130" on="1"/>
        <pt x="180" y="68" on="0"/>
        <pt x="185" y="54" on="1"/>
        <pt x="192" y="39" on="0"/>
        <pt x="245" y="39" on="1"/>
        <pt x="303" y="39" on="1"/>
        <pt x="367" y="39" on="0"/>
        <pt x="406" y="68" on="1"/>
        <pt x="443" y="95" on="0"/>
        <pt x="479" y="166" on="1"/>
        <pt x="482" y="172" on="0"/>
        <pt x="494" y="172" on="1"/>
        <pt x="514" y="172" on="0"/>
        <pt x="518" y="166" on="1"/>
        <pt x="444" y="23" on="0"/>
        <pt x="435" y="-3" on="1"/>
        <pt x="411" y="-3" on="0"/>
        <pt x="186" y="-1" on="0"/>
        <pt x="116" y="-1" on="1"/>
        <pt x="85" y="-1" on="0"/>
        <pt x="3" y="-3" on="0"/>
        <pt x="-6" y="-3" on="1"/>
        <pt x="-8" y="1" on="0"/>
        <pt x="-3" y="25" on="0"/>
        <pt x="1" y="30" on="1"/>
        <pt x="16" y="30" on="0"/>
        <pt x="62" y="38" on="0"/>
        <pt x="66" y="46" on="1"/>
        <pt x="75" y="62" on="0"/>
        <pt x="88" y="130" on="1"/>
        <pt x="165" y="528" on="1"/>
        <pt x="178" y="597" on="0"/>
        <pt x="176" y="612" on="1"/>
        <pt x="175" y="620" on="0"/>
        <pt x="131" y="629" on="0"/>
        <pt x="117" y="629" on="1"/>
        <pt x="115" y="633" on="0"/>
        <pt x="119" y="658" on="0"/>
        <pt x="123" y="662" on="1"/>
        <pt x="197" y="656" on="0"/>
        <pt x="244" y="656" on="1"/>
        <pt x="289" y="656" on="0"/>
        <pt x="365" y="662" on="1"/>
        <pt x="368" y="657" on="0"/>
        <pt x="363" y="634" on="0"/>
        <pt x="358" y="629" on="1"/>
        <pt x="344" y="629" on="0"/>
        <pt x="297" y="620" on="0"/>
        <pt x="293" y="612" on="1"/>
        <pt x="284" y="596" on="0"/>
        <pt x="271" y="528" on="1"/>
      </contour>
    </TTGlyph>
    <TTGlyph name="M" xMin="-27" yMin="-4" xMax="873" yMax="662">
      <contour>
        <pt x="235" y="656" on="1"/>
        <pt x="249" y="656" on="0"/>
        <pt x="278" y="658" on="0"/>
        <pt x="312" y="661" on="0"/>
        <pt x="322" y="662" on="1"/>
        <pt x="326" y="635" on="0"/>
        <pt x="359" y="479" on="0"/>
        <pt x="404" y="263" on="0"/>
        <pt x="418" y="192" on="1"/>
        <pt x="418" y="190" on="0"/>
        <pt x="424" y="190" on="0"/>
        <pt x="426" y="195" on="1"/>
        <pt x="588" y="484" on="0"/>
        <pt x="620" y="544" on="1"/>
        <pt x="678" y="660" on="1"/>
        <pt x="714" y="656" on="0"/>
        <pt x="764" y="656" on="1"/>
        <pt x="779" y="656" on="0"/>
        <pt x="872" y="662" on="1"/>
        <pt x="874" y="659" on="0"/>
        <pt x="871" y="631" on="0"/>
        <pt x="869" y="628" on="1"/>
        <pt x="859" y="628" on="0"/>
        <pt x="815" y="619" on="0"/>
        <pt x="809" y="614" on="1"/>
        <pt x="796" y="601" on="0"/>
        <pt x="792" y="574" on="1"/>
        <pt x="734" y="236" on="0"/>
        <pt x="720" y="146" on="1"/>
        <pt x="709" y="73" on="0"/>
        <pt x="713" y="47" on="1"/>
        <pt x="714" y="38" on="0"/>
        <pt x="758" y="30" on="0"/>
        <pt x="771" y="30" on="1"/>
        <pt x="776" y="9" on="0"/>
        <pt x="767" y="-4" on="1"/>
        <pt x="761" y="-4" on="0"/>
        <pt x="674" y="3" on="0"/>
        <pt x="650" y="3" on="1"/>
        <pt x="625" y="3" on="0"/>
        <pt x="529" y="-4" on="0"/>
        <pt x="519" y="-4" on="1"/>
        <pt x="517" y="-2" on="0"/>
        <pt x="522" y="24" on="0"/>
        <pt x="525" y="30" on="1"/>
        <pt x="574" y="30" on="0"/>
        <pt x="591" y="44" on="1"/>
        <pt x="601" y="54" on="0"/>
        <pt x="606" y="83" on="1"/>
        <pt x="614" y="134" on="0"/>
        <pt x="616" y="142" on="1"/>
        <pt x="681" y="531" on="1"/>
        <pt x="687" y="554" on="0"/>
        <pt x="678" y="554" on="1"/>
        <pt x="676" y="554" on="0"/>
        <pt x="672" y="547" on="1"/>
        <pt x="394" y="44" on="1"/>
        <pt x="388" y="33" on="0"/>
        <pt x="357" y="-1" on="0"/>
        <pt x="348" y="-2" on="1"/>
        <pt x="346" y="-2" on="0"/>
        <pt x="340" y="0" on="1"/>
        <pt x="230" y="554" on="1"/>
        <pt x="171" y="282" on="0"/>
        <pt x="131" y="104" on="1"/>
        <pt x="125" y="72" on="0"/>
        <pt x="125" y="54" on="1"/>
        <pt x="126" y="43" on="0"/>
        <pt x="183" y="30" on="0"/>
        <pt x="197" y="30" on="1"/>
        <pt x="199" y="25" on="0"/>
        <pt x="195" y="0" on="0"/>
        <pt x="192" y="-4" on="1"/>
        <pt x="182" y="-3" on="0"/>
        <pt x="111" y="3" on="0"/>
        <pt x="63" y="3" on="0"/>
        <pt x="-12" y="-3" on="0"/>
        <pt x="-27" y="-4" on="1"/>
        <pt x="-29" y="-1" on="0"/>
        <pt x="-25" y="21" on="0"/>
        <pt x="-21" y="28" on="1"/>
        <pt x="-6" y="28" on="0"/>
        <pt x="53" y="43" on="0"/>
        <pt x="61" y="56" on="1"/>
        <pt x="76" y="78" on="0"/>
        <pt x="86" y="125" on="1"/>
        <pt x="132" y="319" on="0"/>
        <pt x="188" y="576" on="1"/>
        <pt x="192" y="598" on="0"/>
        <pt x="190" y="608" on="1"/>
        <pt x="188" y="616" on="0"/>
        <pt x="144" y="629" on="0"/>
        <pt x="131" y="629" on="1"/>
        <pt x="129" y="632" on="0"/>
        <pt x="136" y="660" on="0"/>
        <pt x="138" y="662" on="1"/>
        <pt x="153" y="661" on="0"/>
        <pt x="211" y="656" on="0"/>
      </contour>
    </TTGlyph>
    <TTGlyph name="N" xMin="-15" yMin="-5" xMax="773" yMax="663">
      <contour>
        <pt x="217" y="658" on="1"/>
        <pt x="260" y="658" on="0"/>
        <pt x="304" y="662" on="1"/>
        <pt x="315" y="627" on="0"/>
        <pt x="399" y="473" on="0"/>
        <pt x="517" y="265" on="0"/>
        <pt x="547" y="207" on="1"/>
        <pt x="548" y="209" on="0"/>
        <pt x="553" y="236" on="0"/>
        <pt x="554" y="239" on="1"/>
        <pt x="607" y="510" on="1"/>
        <pt x="622" y="592" on="0"/>
        <pt x="617" y="609" on="1"/>
        <pt x="614" y="618" on="0"/>
        <pt x="563" y="630" on="0"/>
        <pt x="548" y="630" on="1"/>
        <pt x="546" y="633" on="0"/>
        <pt x="550" y="657" on="0"/>
        <pt x="553" y="663" on="1"/>
        <pt x="566" y="662" on="0"/>
        <pt x="638" y="656" on="0"/>
        <pt x="686" y="656" on="0"/>
        <pt x="761" y="662" on="0"/>
        <pt x="773" y="663" on="1"/>
        <pt x="778" y="647" on="0"/>
        <pt x="765" y="630" on="1"/>
        <pt x="751" y="630" on="0"/>
        <pt x="692" y="618" on="0"/>
        <pt x="686" y="608" on="1"/>
        <pt x="672" y="586" on="0"/>
        <pt x="658" y="512" on="1"/>
        <pt x="586" y="139" on="1"/>
        <pt x="573" y="70" on="0"/>
        <pt x="562" y="-1" on="1"/>
        <pt x="558" y="-5" on="0"/>
        <pt x="541" y="-5" on="1"/>
        <pt x="528" y="-5" on="0"/>
        <pt x="516" y="18" on="1"/>
        <pt x="226" y="544" on="1"/>
        <pt x="147" y="136" on="1"/>
        <pt x="135" y="73" on="0"/>
        <pt x="140" y="53" on="1"/>
        <pt x="143" y="44" on="0"/>
        <pt x="197" y="30" on="0"/>
        <pt x="210" y="30" on="1"/>
        <pt x="216" y="18" on="0"/>
        <pt x="205" y="-4" on="1"/>
        <pt x="196" y="-4" on="0"/>
        <pt x="118" y="3" on="0"/>
        <pt x="70" y="3" on="0"/>
        <pt x="1" y="-3" on="0"/>
        <pt x="-15" y="-4" on="1"/>
        <pt x="-16" y="1" on="0"/>
        <pt x="-11" y="24" on="0"/>
        <pt x="-8" y="29" on="1"/>
        <pt x="6" y="29" on="0"/>
        <pt x="62" y="42" on="0"/>
        <pt x="69" y="52" on="1"/>
        <pt x="85" y="76" on="0"/>
        <pt x="96" y="137" on="1"/>
        <pt x="114" y="236" on="0"/>
        <pt x="173" y="531" on="1"/>
        <pt x="184" y="585" on="0"/>
        <pt x="175" y="610" on="1"/>
        <pt x="172" y="618" on="0"/>
        <pt x="124" y="630" on="0"/>
        <pt x="112" y="630" on="1"/>
        <pt x="109" y="635" on="0"/>
        <pt x="113" y="659" on="0"/>
        <pt x="117" y="663" on="1"/>
        <pt x="204" y="658" on="0"/>
      </contour>
    </TTGlyph>
    <TTGlyph name="Nacute" xMin="-15" yMin="-5" xMax="773" yMax="839">
      <component glyphName="acutecomb.cap" x="239" y="14" flags="0x1004"/>
      <component glyphName="N" x="0" y="0" flags="0x1204"/>
    </TTGlyph>
    <TTGlyph name="Ncaron" xMin="-15" yMin="-5" xMax="773" yMax="858">
      <component glyphName="uni030C.cap" x="109" y="6" flags="0x1004"/>
      <component glyphName="N" x="0" y="0" flags="0x1204"/>
    </TTGlyph>
    <TTGlyph name="Ncommaaccent" xMin="-15" yMin="-226" xMax="773" yMax="663">
      <component glyphName="uni0326" x="235" y="-20" flags="0x1004"/>
      <component glyphName="N" x="0" y="0" flags="0x1204"/>
    </TTGlyph>
    <TTGlyph name="Ntilde" xMin="-15" yMin="-5" xMax="773" yMax="812">
      <component glyphName="tildecomb.cap" x="111" y="0" flags="0x1004"/>
      <component glyphName="N" x="0" y="0" flags="0x1204"/>
    </TTGlyph>
    <TTGlyph name="O" xMin="55" yMin="-10" xMax="675" yMax="666">
      <contour>
        <pt x="404" y="626" on="1"/>
        <pt x="308" y="626" on="0"/>
        <pt x="174" y="401" on="0"/>
        <pt x="174" y="256" on="1"/>
        <pt x="174" y="194" on="0"/>
        <pt x="201" y="97" on="0"/>
        <pt x="272" y="30" on="0"/>
        <pt x="327" y="30" on="1"/>
        <pt x="396" y="30" on="0"/>
        <pt x="503" y="146" on="0"/>
        <pt x="556" y="313" on="0"/>
        <pt x="556" y="402" on="1"/>
        <pt x="556" y="460" on="0"/>
        <pt x="530" y="556" on="0"/>
        <pt x="459" y="626" on="0"/>
      </contour>
      <contour>
        <pt x="420" y="666" on="1"/>
        <pt x="536" y="666" on="0"/>
        <pt x="675" y="500" on="0"/>
        <pt x="675" y="386" on="1"/>
        <pt x="675" y="297" on="0"/>
        <pt x="611" y="145" on="0"/>
        <pt x="506" y="46" on="0"/>
        <pt x="375" y="-10" on="0"/>
        <pt x="307" y="-10" on="1"/>
        <pt x="196" y="-10" on="0"/>
        <pt x="55" y="152" on="0"/>
        <pt x="55" y="269" on="1"/>
        <pt x="55" y="356" on="0"/>
        <pt x="120" y="508" on="0"/>
        <pt x="225" y="608" on="0"/>
        <pt x="354" y="666" on="0"/>
      </contour>
    </TTGlyph>
    <TTGlyph name="OE" xMin="53" yMin="-10" xMax="972" yMax="668">
      <contour>
        <pt x="415" y="628" on="1"/>
        <pt x="346" y="628" on="0"/>
        <pt x="231" y="510" on="0"/>
        <pt x="173" y="341" on="0"/>
        <pt x="173" y="255" on="1"/>
        <pt x="173" y="157" on="0"/>
        <pt x="247" y="32" on="0"/>
        <pt x="320" y="32" on="1"/>
        <pt x="389" y="32" on="0"/>
        <pt x="468" y="71" on="0"/>
        <pt x="495" y="114" on="1"/>
        <pt x="516" y="133" on="0"/>
        <pt x="571" y="422" on="1"/>
        <pt x="592" y="535" on="0"/>
        <pt x="561" y="578" on="1"/>
        <pt x="527" y="628" on="0"/>
      </contour>
      <contour>
        <pt x="552" y="0" on="1"/>
        <pt x="470" y="0" on="0"/>
        <pt x="437" y="-2" on="1"/>
        <pt x="309" y="-10" on="0"/>
        <pt x="295" y="-10" on="1"/>
        <pt x="190" y="-10" on="0"/>
        <pt x="53" y="147" on="0"/>
        <pt x="53" y="373" on="0"/>
        <pt x="161" y="562" on="0"/>
        <pt x="337" y="668" on="0"/>
        <pt x="436" y="668" on="1"/>
        <pt x="482" y="668" on="0"/>
        <pt x="628" y="656" on="0"/>
        <pt x="658" y="656" on="1"/>
        <pt x="687" y="656" on="0"/>
        <pt x="931" y="664" on="0"/>
        <pt x="972" y="664" on="1"/>
        <pt x="971" y="648" on="0"/>
        <pt x="971" y="618" on="1"/>
        <pt x="971" y="601" on="0"/>
        <pt x="972" y="537" on="0"/>
        <pt x="972" y="522" on="1"/>
        <pt x="967" y="517" on="0"/>
        <pt x="952" y="517" on="1"/>
        <pt x="940" y="517" on="0"/>
        <pt x="940" y="524" on="1"/>
        <pt x="934" y="575" on="0"/>
        <pt x="890" y="620" on="0"/>
        <pt x="844" y="620" on="1"/>
        <pt x="779" y="620" on="1"/>
        <pt x="724" y="620" on="0"/>
        <pt x="718" y="608" on="1"/>
        <pt x="710" y="587" on="0"/>
        <pt x="700" y="542" on="1"/>
        <pt x="666" y="362" on="1"/>
        <pt x="664" y="353" on="0"/>
        <pt x="703" y="353" on="1"/>
        <pt x="750" y="353" on="1"/>
        <pt x="804" y="353" on="0"/>
        <pt x="838" y="376" on="0"/>
        <pt x="859" y="424" on="1"/>
        <pt x="862" y="432" on="0"/>
        <pt x="872" y="432" on="1"/>
        <pt x="884" y="432" on="0"/>
        <pt x="888" y="426" on="1"/>
        <pt x="851" y="236" on="1"/>
        <pt x="847" y="232" on="0"/>
        <pt x="836" y="232" on="1"/>
        <pt x="822" y="232" on="0"/>
        <pt x="822" y="240" on="1"/>
        <pt x="820" y="295" on="0"/>
        <pt x="806" y="304" on="1"/>
        <pt x="794" y="311" on="0"/>
        <pt x="722" y="311" on="1"/>
        <pt x="655" y="311" on="0"/>
        <pt x="653" y="300" on="1"/>
        <pt x="623" y="146" on="1"/>
        <pt x="610" y="81" on="0"/>
        <pt x="612" y="58" on="1"/>
        <pt x="615" y="39" on="0"/>
        <pt x="672" y="39" on="1"/>
        <pt x="726" y="39" on="1"/>
        <pt x="789" y="39" on="0"/>
        <pt x="832" y="68" on="1"/>
        <pt x="868" y="94" on="0"/>
        <pt x="906" y="166" on="1"/>
        <pt x="909" y="172" on="0"/>
        <pt x="920" y="172" on="1"/>
        <pt x="940" y="172" on="0"/>
        <pt x="944" y="166" on="1"/>
        <pt x="873" y="29" on="0"/>
        <pt x="862" y="-3" on="1"/>
        <pt x="836" y="-3" on="0"/>
        <pt x="610" y="0" on="0"/>
      </contour>
    </TTGlyph>
    <TTGlyph name="Oacute" xMin="55" yMin="-10" xMax="675" yMax="839">
      <component glyphName="acutecomb.cap" x="239" y="14" flags="0x1004"/>
      <component glyphName="O" x="0" y="0" flags="0x1204"/>
    </TTGlyph>
    <TTGlyph name="Obreve" xMin="55" yMin="-10" xMax="675" yMax="842">
      <component glyphName="uni0306.cap" x="191" y="112" flags="0x1004"/>
      <component glyphName="O" x="0" y="0" flags="0x1204"/>
    </TTGlyph>
    <TTGlyph name="Ocircumflex" xMin="55" yMin="-10" xMax="675" yMax="860">
      <component glyphName="uni0302.cap" x="127" y="20" flags="0x1004"/>
      <component glyphName="O" x="0" y="0" flags="0x1204"/>
    </TTGlyph>
    <TTGlyph name="Odieresis" xMin="55" yMin="-10" xMax="675" yMax="845">
      <component glyphName="uni0308.cap" x="107" y="12" flags="0x1004"/>
      <component glyphName="O" x="0" y="0" flags="0x1204"/>
    </TTGlyph>
    <TTGlyph name="Ograve" xMin="55" yMin="-10" xMax="675" yMax="839">
      <component glyphName="gravecomb.cap" x="101" y="14" flags="0x1004"/>
      <component glyphName="O" x="0" y="0" flags="0x1204"/>
    </TTGlyph>
    <TTGlyph name="Ohungarumlaut" xMin="55" yMin="-10" xMax="679" yMax="839">
      <component glyphName="uni030B.cap" x="163" y="14" flags="0x1004"/>
      <component glyphName="O" x="0" y="0" flags="0x1204"/>
    </TTGlyph>
    <TTGlyph name="Omacron" xMin="55" yMin="-10" xMax="675" yMax="769">
      <component glyphName="uni0304.cap" x="121" y="74" flags="0x1004"/>
      <component glyphName="O" x="0" y="0" flags="0x1204"/>
    </TTGlyph>
    <TTGlyph name="Oslash" xMin="55" yMin="-13" xMax="675" yMax="668">
      <contour>
        <pt x="106" y="-13" on="1"/>
        <pt x="99" y="-10" on="0"/>
        <pt x="80" y="7" on="0"/>
        <pt x="83" y="11" on="1"/>
        <pt x="599" y="668" on="1"/>
        <pt x="606" y="666" on="0"/>
        <pt x="626" y="649" on="0"/>
        <pt x="623" y="645" on="1"/>
      </contour>
      <contour>
        <pt x="404" y="626" on="1"/>
        <pt x="308" y="626" on="0"/>
        <pt x="174" y="401" on="0"/>
        <pt x="174" y="256" on="1"/>
        <pt x="174" y="194" on="0"/>
        <pt x="201" y="97" on="0"/>
        <pt x="272" y="30" on="0"/>
        <pt x="327" y="30" on="1"/>
        <pt x="396" y="30" on="0"/>
        <pt x="503" y="146" on="0"/>
        <pt x="556" y="313" on="0"/>
        <pt x="556" y="402" on="1"/>
        <pt x="556" y="460" on="0"/>
        <pt x="530" y="556" on="0"/>
        <pt x="459" y="626" on="0"/>
      </contour>
      <contour>
        <pt x="420" y="666" on="1"/>
        <pt x="536" y="666" on="0"/>
        <pt x="675" y="500" on="0"/>
        <pt x="675" y="386" on="1"/>
        <pt x="675" y="297" on="0"/>
        <pt x="611" y="145" on="0"/>
        <pt x="506" y="46" on="0"/>
        <pt x="375" y="-10" on="0"/>
        <pt x="307" y="-10" on="1"/>
        <pt x="196" y="-10" on="0"/>
        <pt x="55" y="152" on="0"/>
        <pt x="55" y="269" on="1"/>
        <pt x="55" y="356" on="0"/>
        <pt x="120" y="508" on="0"/>
        <pt x="225" y="608" on="0"/>
        <pt x="354" y="666" on="0"/>
      </contour>
    </TTGlyph>
    <TTGlyph name="Otilde" xMin="55" yMin="-10" xMax="675" yMax="812">
      <component glyphName="tildecomb.cap" x="108" y="0" flags="0x1004"/>
      <component glyphName="O" x="0" y="0" flags="0x1204"/>
    </TTGlyph>
    <TTGlyph name="P" xMin="-7" yMin="-4" xMax="549" yMax="661">
      <contour>
        <pt x="549" y="490" on="1"/>
        <pt x="540" y="398" on="0"/>
        <pt x="398" y="282" on="0"/>
        <pt x="312" y="282" on="1"/>
        <pt x="276" y="282" on="0"/>
        <pt x="264" y="296" on="1"/>
        <pt x="257" y="303" on="0"/>
        <pt x="257" y="314" on="1"/>
        <pt x="257" y="322" on="0"/>
        <pt x="262" y="322" on="1"/>
        <pt x="275" y="318" on="0"/>
        <pt x="294" y="318" on="1"/>
        <pt x="341" y="318" on="0"/>
        <pt x="429" y="411" on="0"/>
        <pt x="433" y="472" on="1"/>
        <pt x="440" y="534" on="0"/>
        <pt x="396" y="622" on="0"/>
        <pt x="339" y="622" on="1"/>
        <pt x="298" y="622" on="0"/>
        <pt x="284" y="600" on="0"/>
        <pt x="273" y="543" on="1"/>
        <pt x="193" y="130" on="1"/>
        <pt x="180" y="64" on="0"/>
        <pt x="183" y="46" on="1"/>
        <pt x="184" y="38" on="0"/>
        <pt x="227" y="29" on="0"/>
        <pt x="241" y="29" on="1"/>
        <pt x="243" y="25" on="0"/>
        <pt x="239" y="0" on="0"/>
        <pt x="235" y="-4" on="1"/>
        <pt x="163" y="2" on="0"/>
        <pt x="115" y="2" on="1"/>
        <pt x="69" y="2" on="0"/>
        <pt x="-7" y="-4" on="1"/>
        <pt x="-9" y="0" on="0"/>
        <pt x="-4" y="24" on="0"/>
        <pt x="0" y="29" on="1"/>
        <pt x="14" y="29" on="0"/>
        <pt x="61" y="38" on="0"/>
        <pt x="65" y="46" on="1"/>
        <pt x="74" y="62" on="0"/>
        <pt x="87" y="130" on="1"/>
        <pt x="165" y="528" on="1"/>
        <pt x="178" y="594" on="0"/>
        <pt x="175" y="612" on="1"/>
        <pt x="174" y="620" on="0"/>
        <pt x="131" y="628" on="0"/>
        <pt x="116" y="628" on="1"/>
        <pt x="114" y="633" on="0"/>
        <pt x="119" y="657" on="0"/>
        <pt x="123" y="661" on="1"/>
        <pt x="203" y="657" on="0"/>
        <pt x="244" y="657" on="1"/>
        <pt x="260" y="657" on="0"/>
        <pt x="353" y="660" on="0"/>
        <pt x="383" y="660" on="1"/>
        <pt x="458" y="660" on="0"/>
        <pt x="556" y="560" on="0"/>
      </contour>
    </TTGlyph>
    <TTGlyph name="Q" xMin="54" yMin="-138" xMax="673" yMax="667">
      <contour>
        <pt x="425" y="667" on="1"/>
        <pt x="546" y="667" on="0"/>
        <pt x="686" y="485" on="0"/>
        <pt x="671" y="360" on="1"/>
        <pt x="660" y="230" on="0"/>
        <pt x="501" y="43" on="0"/>
        <pt x="395" y="7" on="1"/>
        <pt x="415" y="-4" on="0"/>
        <pt x="476" y="-45" on="0"/>
        <pt x="507" y="-62" on="0"/>
        <pt x="563" y="-77" on="0"/>
        <pt x="597" y="-77" on="1"/>
        <pt x="632" y="-77" on="0"/>
        <pt x="656" y="-70" on="1"/>
        <pt x="670" y="-70" on="0"/>
        <pt x="673" y="-80" on="1"/>
        <pt x="574" y="-138" on="0"/>
        <pt x="512" y="-138" on="1"/>
        <pt x="467" y="-138" on="0"/>
        <pt x="379" y="-90" on="0"/>
        <pt x="274" y="-20" on="0"/>
        <pt x="228" y="-4" on="1"/>
        <pt x="137" y="28" on="0"/>
        <pt x="42" y="187" on="0"/>
        <pt x="54" y="294" on="1"/>
        <pt x="67" y="451" on="0"/>
        <pt x="296" y="667" on="0"/>
      </contour>
      <contour>
        <pt x="404" y="627" on="1"/>
        <pt x="338" y="627" on="0"/>
        <pt x="234" y="522" on="0"/>
        <pt x="181" y="377" on="0"/>
        <pt x="174" y="297" on="1"/>
        <pt x="166" y="227" on="0"/>
        <pt x="190" y="109" on="0"/>
        <pt x="264" y="30" on="0"/>
        <pt x="321" y="30" on="1"/>
        <pt x="386" y="30" on="0"/>
        <pt x="491" y="135" on="0"/>
        <pt x="545" y="281" on="0"/>
        <pt x="552" y="360" on="1"/>
        <pt x="564" y="469" on="0"/>
        <pt x="487" y="627" on="0"/>
      </contour>
    </TTGlyph>
    <TTGlyph name="R" xMin="-7" yMin="-4" xMax="599" yMax="661">
      <contour>
        <pt x="245" y="657" on="1"/>
        <pt x="261" y="657" on="0"/>
        <pt x="353" y="660" on="0"/>
        <pt x="383" y="660" on="1"/>
        <pt x="462" y="660" on="0"/>
        <pt x="558" y="558" on="0"/>
        <pt x="541" y="472" on="1"/>
        <pt x="530" y="418" on="0"/>
        <pt x="429" y="336" on="0"/>
        <pt x="379" y="320" on="1"/>
        <pt x="435" y="189" on="0"/>
        <pt x="481" y="108" on="1"/>
        <pt x="528" y="31" on="0"/>
        <pt x="598" y="27" on="1"/>
        <pt x="601" y="23" on="0"/>
        <pt x="596" y="-1" on="0"/>
        <pt x="594" y="-4" on="1"/>
        <pt x="541" y="-5" on="0"/>
        <pt x="504" y="0" on="1"/>
        <pt x="412" y="2" on="0"/>
        <pt x="375" y="76" on="1"/>
        <pt x="310" y="205" on="0"/>
        <pt x="277" y="287" on="1"/>
        <pt x="270" y="300" on="0"/>
        <pt x="257" y="300" on="1"/>
        <pt x="226" y="300" on="1"/>
        <pt x="193" y="130" on="1"/>
        <pt x="180" y="64" on="0"/>
        <pt x="183" y="46" on="1"/>
        <pt x="184" y="38" on="0"/>
        <pt x="227" y="29" on="0"/>
        <pt x="241" y="29" on="1"/>
        <pt x="243" y="25" on="0"/>
        <pt x="239" y="0" on="0"/>
        <pt x="235" y="-4" on="1"/>
        <pt x="163" y="2" on="0"/>
        <pt x="115" y="2" on="1"/>
        <pt x="69" y="2" on="0"/>
        <pt x="-7" y="-4" on="1"/>
        <pt x="-9" y="0" on="0"/>
        <pt x="-4" y="24" on="0"/>
        <pt x="0" y="29" on="1"/>
        <pt x="14" y="29" on="0"/>
        <pt x="61" y="38" on="0"/>
        <pt x="65" y="46" on="1"/>
        <pt x="74" y="62" on="0"/>
        <pt x="87" y="130" on="1"/>
        <pt x="165" y="528" on="1"/>
        <pt x="178" y="594" on="0"/>
        <pt x="175" y="612" on="1"/>
        <pt x="174" y="620" on="0"/>
        <pt x="131" y="628" on="0"/>
        <pt x="116" y="628" on="1"/>
        <pt x="114" y="633" on="0"/>
        <pt x="119" y="657" on="0"/>
        <pt x="123" y="661" on="1"/>
        <pt x="203" y="657" on="0"/>
      </contour>
      <contour>
        <pt x="233" y="335" on="1"/>
        <pt x="279" y="335" on="1"/>
        <pt x="330" y="335" on="0"/>
        <pt x="413" y="400" on="0"/>
        <pt x="426" y="455" on="1"/>
        <pt x="433" y="497" on="0"/>
        <pt x="430" y="571" on="0"/>
        <pt x="383" y="622" on="0"/>
        <pt x="340" y="622" on="1"/>
        <pt x="298" y="622" on="0"/>
        <pt x="284" y="600" on="0"/>
        <pt x="273" y="543" on="1"/>
      </contour>
    </TTGlyph>
    <TTGlyph name="Racute" xMin="-7" yMin="-4" xMax="598" yMax="839">
      <component glyphName="acutecomb.cap" x="165" y="14" flags="0x1004"/>
      <component glyphName="R" x="0" y="0" flags="0x1204"/>
    </TTGlyph>
    <TTGlyph name="Rcaron" xMin="-7" yMin="-4" xMax="598" yMax="858">
      <component glyphName="uni030C.cap" x="29" y="6" flags="0x1004"/>
      <component glyphName="R" x="0" y="0" flags="0x1204"/>
    </TTGlyph>
    <TTGlyph name="Rcommaaccent" xMin="-7" yMin="-236" xMax="598" yMax="661">
      <component glyphName="uni0326" x="210" y="-30" flags="0x1004"/>
      <component glyphName="R" x="0" y="0" flags="0x1204"/>
    </TTGlyph>
    <TTGlyph name="S" xMin="29" yMin="-10" xMax="468" yMax="668">
      <contour>
        <pt x="321" y="668" on="1"/>
        <pt x="341" y="668" on="0"/>
        <pt x="382" y="663" on="0"/>
        <pt x="408" y="657" on="0"/>
        <pt x="457" y="645" on="0"/>
        <pt x="468" y="642" on="1"/>
        <pt x="455" y="550" on="0"/>
        <pt x="444" y="487" on="1"/>
        <pt x="440" y="480" on="0"/>
        <pt x="432" y="480" on="1"/>
        <pt x="411" y="480" on="0"/>
        <pt x="409" y="488" on="1"/>
        <pt x="412" y="546" on="0"/>
        <pt x="366" y="630" on="0"/>
        <pt x="312" y="630" on="1"/>
        <pt x="268" y="630" on="0"/>
        <pt x="210" y="575" on="0"/>
        <pt x="205" y="530" on="1"/>
        <pt x="204" y="515" on="0"/>
        <pt x="208" y="488" on="0"/>
        <pt x="224" y="460" on="0"/>
        <pt x="233" y="443" on="0"/>
        <pt x="265" y="414" on="0"/>
        <pt x="273" y="406" on="0"/>
        <pt x="314" y="373" on="0"/>
        <pt x="315" y="372" on="1"/>
        <pt x="321" y="367" on="0"/>
        <pt x="342" y="351" on="0"/>
        <pt x="354" y="341" on="0"/>
        <pt x="375" y="324" on="0"/>
        <pt x="386" y="312" on="0"/>
        <pt x="404" y="292" on="0"/>
        <pt x="411" y="276" on="0"/>
        <pt x="424" y="251" on="0"/>
        <pt x="425" y="229" on="0"/>
        <pt x="430" y="198" on="0"/>
        <pt x="426" y="184" on="1"/>
        <pt x="419" y="101" on="0"/>
        <pt x="274" y="-10" on="0"/>
        <pt x="193" y="-10" on="1"/>
        <pt x="134" y="-10" on="0"/>
        <pt x="33" y="25" on="1"/>
        <pt x="28" y="67" on="0"/>
        <pt x="30" y="165" on="0"/>
        <pt x="33" y="185" on="1"/>
        <pt x="41" y="195" on="0"/>
        <pt x="60" y="195" on="1"/>
        <pt x="70" y="195" on="0"/>
        <pt x="71" y="188" on="1"/>
        <pt x="70" y="160" on="0"/>
        <pt x="95" y="90" on="0"/>
        <pt x="157" y="30" on="0"/>
        <pt x="243" y="30" on="0"/>
        <pt x="311" y="85" on="0"/>
        <pt x="316" y="138" on="1"/>
        <pt x="317" y="151" on="0"/>
        <pt x="313" y="177" on="0"/>
        <pt x="308" y="196" on="0"/>
        <pt x="290" y="221" on="0"/>
        <pt x="283" y="232" on="0"/>
        <pt x="255" y="258" on="0"/>
        <pt x="250" y="263" on="0"/>
        <pt x="233" y="276" on="1"/>
        <pt x="216" y="290" on="1"/>
        <pt x="211" y="294" on="0"/>
        <pt x="171" y="326" on="0"/>
        <pt x="159" y="338" on="0"/>
        <pt x="128" y="368" on="0"/>
        <pt x="117" y="390" on="0"/>
        <pt x="101" y="424" on="0"/>
        <pt x="98" y="461" on="0"/>
        <pt x="100" y="482" on="1"/>
        <pt x="107" y="560" on="0"/>
        <pt x="246" y="668" on="0"/>
      </contour>
    </TTGlyph>
    <TTGlyph name="Sacute" xMin="33" yMin="-10" xMax="480" yMax="841">
      <component glyphName="acutecomb.cap" x="132" y="16" flags="0x1004"/>
      <component glyphName="S" x="0" y="0" flags="0x1204"/>
    </TTGlyph>
    <TTGlyph name="Scaron" xMin="33" yMin="-10" xMax="476" yMax="860">
      <component glyphName="uni030C.cap" x="4" y="8" flags="0x1004"/>
      <component glyphName="S" x="0" y="0" flags="0x1204"/>
    </TTGlyph>
    <TTGlyph name="Scedilla" xMin="33" yMin="-159" xMax="468" yMax="668">
      <component glyphName="uni0327.cap" x="-10" y="-1" flags="0x1004"/>
      <component glyphName="S" x="0" y="0" flags="0x1204"/>
    </TTGlyph>
    <TTGlyph name="Scircumflex" xMin="33" yMin="-10" xMax="468" yMax="862">
      <component glyphName="uni0302.cap" x="35" y="22" flags="0x1004"/>
      <component glyphName="S" x="0" y="0" flags="0x1204"/>
    </TTGlyph>
    <TTGlyph name="Scommaaccent" xMin="33" yMin="-226" xMax="468" yMax="668">
      <component glyphName="uni0326" x="96" y="-20" flags="0x1004"/>
      <component glyphName="S" x="0" y="0" flags="0x1204"/>
    </TTGlyph>
    <TTGlyph name="T" xMin="56" yMin="-4" xMax="632" yMax="676">
      <contour>
        <pt x="366" y="658" on="1"/>
        <pt x="538" y="658" on="1"/>
        <pt x="556" y="658" on="0"/>
        <pt x="589" y="665" on="0"/>
        <pt x="615" y="675" on="0"/>
        <pt x="618" y="676" on="1"/>
        <pt x="627" y="678" on="0"/>
        <pt x="632" y="676" on="1"/>
        <pt x="622" y="526" on="0"/>
        <pt x="622" y="498" on="1"/>
        <pt x="614" y="490" on="0"/>
        <pt x="598" y="490" on="1"/>
        <pt x="588" y="490" on="0"/>
        <pt x="588" y="496" on="1"/>
        <pt x="590" y="549" on="0"/>
        <pt x="552" y="618" on="0"/>
        <pt x="518" y="618" on="1"/>
        <pt x="416" y="618" on="1"/>
        <pt x="321" y="130" on="1"/>
        <pt x="308" y="61" on="0"/>
        <pt x="310" y="46" on="1"/>
        <pt x="311" y="38" on="0"/>
        <pt x="355" y="29" on="0"/>
        <pt x="369" y="29" on="1"/>
        <pt x="371" y="25" on="0"/>
        <pt x="367" y="0" on="0"/>
        <pt x="363" y="-4" on="1"/>
        <pt x="291" y="2" on="0"/>
        <pt x="244" y="2" on="1"/>
        <pt x="198" y="2" on="0"/>
        <pt x="122" y="-4" on="1"/>
        <pt x="119" y="1" on="0"/>
        <pt x="123" y="24" on="0"/>
        <pt x="128" y="29" on="1"/>
        <pt x="142" y="29" on="0"/>
        <pt x="189" y="38" on="0"/>
        <pt x="193" y="46" on="1"/>
        <pt x="203" y="64" on="0"/>
        <pt x="216" y="130" on="1"/>
        <pt x="310" y="618" on="1"/>
        <pt x="207" y="618" on="1"/>
        <pt x="173" y="618" on="0"/>
        <pt x="107" y="548" on="0"/>
        <pt x="89" y="496" on="1"/>
        <pt x="86" y="490" on="0"/>
        <pt x="77" y="490" on="1"/>
        <pt x="61" y="490" on="0"/>
        <pt x="56" y="498" on="1"/>
        <pt x="81" y="564" on="0"/>
        <pt x="115" y="676" on="1"/>
        <pt x="122" y="679" on="0"/>
        <pt x="131" y="676" on="1"/>
        <pt x="135" y="675" on="0"/>
        <pt x="156" y="665" on="0"/>
        <pt x="184" y="658" on="0"/>
        <pt x="202" y="658" on="1"/>
      </contour>
    </TTGlyph>
    <TTGlyph name="Tbar" xMin="57" yMin="-4" xMax="633" yMax="676">
      <contour>
        <pt x="155" y="346" on="1"/>
        <pt x="155" y="346" on="0"/>
        <pt x="480" y="346" on="1"/>
        <pt x="486" y="346" on="0"/>
        <pt x="484" y="336" on="1"/>
        <pt x="481" y="319" on="0"/>
        <pt x="473" y="306" on="1"/>
        <pt x="473" y="306" on="0"/>
        <pt x="148" y="306" on="1"/>
        <pt x="141" y="306" on="0"/>
        <pt x="144" y="318" on="1"/>
        <pt x="147" y="337" on="0"/>
      </contour>
      <contour>
        <pt x="367" y="658" on="1"/>
        <pt x="539" y="658" on="1"/>
        <pt x="557" y="658" on="0"/>
        <pt x="590" y="665" on="0"/>
        <pt x="616" y="675" on="0"/>
        <pt x="619" y="676" on="1"/>
        <pt x="628" y="678" on="0"/>
        <pt x="633" y="676" on="1"/>
        <pt x="623" y="526" on="0"/>
        <pt x="623" y="498" on="1"/>
        <pt x="615" y="490" on="0"/>
        <pt x="599" y="490" on="1"/>
        <pt x="589" y="490" on="0"/>
        <pt x="589" y="496" on="1"/>
        <pt x="591" y="549" on="0"/>
        <pt x="553" y="618" on="0"/>
        <pt x="519" y="618" on="1"/>
        <pt x="417" y="618" on="1"/>
        <pt x="322" y="130" on="1"/>
        <pt x="309" y="61" on="0"/>
        <pt x="311" y="46" on="1"/>
        <pt x="312" y="38" on="0"/>
        <pt x="356" y="29" on="0"/>
        <pt x="370" y="29" on="1"/>
        <pt x="372" y="25" on="0"/>
        <pt x="368" y="0" on="0"/>
        <pt x="364" y="-4" on="1"/>
        <pt x="292" y="2" on="0"/>
        <pt x="245" y="2" on="1"/>
        <pt x="199" y="2" on="0"/>
        <pt x="123" y="-4" on="1"/>
        <pt x="120" y="1" on="0"/>
        <pt x="124" y="24" on="0"/>
        <pt x="129" y="29" on="1"/>
        <pt x="143" y="29" on="0"/>
        <pt x="190" y="38" on="0"/>
        <pt x="194" y="46" on="1"/>
        <pt x="204" y="64" on="0"/>
        <pt x="217" y="130" on="1"/>
        <pt x="311" y="618" on="1"/>
        <pt x="208" y="618" on="1"/>
        <pt x="174" y="618" on="0"/>
        <pt x="108" y="548" on="0"/>
        <pt x="90" y="496" on="1"/>
        <pt x="87" y="490" on="0"/>
        <pt x="78" y="490" on="1"/>
        <pt x="62" y="490" on="0"/>
        <pt x="57" y="498" on="1"/>
        <pt x="82" y="564" on="0"/>
        <pt x="116" y="676" on="1"/>
        <pt x="123" y="679" on="0"/>
        <pt x="132" y="676" on="1"/>
        <pt x="136" y="675" on="0"/>
        <pt x="157" y="665" on="0"/>
        <pt x="185" y="658" on="0"/>
        <pt x="203" y="658" on="1"/>
      </contour>
    </TTGlyph>
    <TTGlyph name="Tcaron" xMin="56" yMin="-4" xMax="632" yMax="870">
      <component glyphName="uni030C.cap" x="56" y="18" flags="0x1004"/>
      <component glyphName="T" x="0" y="0" flags="0x1204"/>
    </TTGlyph>
    <TTGlyph name="Tcommaaccent" xMin="57" yMin="-150" xMax="633" yMax="676">
      <component glyphName="uni0327.cap" x="72" y="8" flags="0x1004"/>
      <component glyphName="T" x="1" y="0" flags="0x1204"/>
    </TTGlyph>
    <TTGlyph name="Thorn" xMin="-7" yMin="-4" xMax="515" yMax="663">
      <contour>
        <pt x="351" y="512" on="1"/>
        <pt x="428" y="512" on="0"/>
        <pt x="531" y="397" on="0"/>
        <pt x="515" y="314" on="1"/>
        <pt x="501" y="240" on="0"/>
        <pt x="368" y="134" on="0"/>
        <pt x="285" y="134" on="1"/>
        <pt x="247" y="134" on="0"/>
        <pt x="229" y="156" on="1"/>
        <pt x="226" y="160" on="0"/>
        <pt x="226" y="176" on="1"/>
        <pt x="226" y="183" on="0"/>
        <pt x="229" y="183" on="1"/>
        <pt x="244" y="175" on="0"/>
        <pt x="271" y="175" on="1"/>
        <pt x="314" y="175" on="0"/>
        <pt x="389" y="244" on="0"/>
        <pt x="400" y="300" on="1"/>
        <pt x="413" y="370" on="0"/>
        <pt x="370" y="470" on="0"/>
        <pt x="319" y="470" on="1"/>
        <pt x="284" y="470" on="0"/>
        <pt x="268" y="457" on="1"/>
        <pt x="254" y="446" on="0"/>
        <pt x="247" y="408" on="1"/>
        <pt x="193" y="130" on="1"/>
        <pt x="180" y="64" on="0"/>
        <pt x="183" y="46" on="1"/>
        <pt x="184" y="38" on="0"/>
        <pt x="227" y="29" on="0"/>
        <pt x="241" y="29" on="1"/>
        <pt x="243" y="25" on="0"/>
        <pt x="239" y="0" on="0"/>
        <pt x="235" y="-4" on="1"/>
        <pt x="163" y="2" on="0"/>
        <pt x="115" y="2" on="1"/>
        <pt x="69" y="2" on="0"/>
        <pt x="-7" y="-4" on="1"/>
        <pt x="-9" y="0" on="0"/>
        <pt x="-4" y="24" on="0"/>
        <pt x="0" y="29" on="1"/>
        <pt x="14" y="29" on="0"/>
        <pt x="61" y="38" on="0"/>
        <pt x="65" y="46" on="1"/>
        <pt x="74" y="62" on="0"/>
        <pt x="87" y="130" on="1"/>
        <pt x="165" y="528" on="1"/>
        <pt x="178" y="594" on="0"/>
        <pt x="175" y="612" on="1"/>
        <pt x="174" y="620" on="0"/>
        <pt x="131" y="628" on="0"/>
        <pt x="116" y="628" on="1"/>
        <pt x="114" y="633" on="0"/>
        <pt x="119" y="657" on="0"/>
        <pt x="123" y="661" on="1"/>
        <pt x="203" y="657" on="0"/>
        <pt x="243" y="657" on="1"/>
        <pt x="288" y="657" on="0"/>
        <pt x="364" y="663" on="1"/>
        <pt x="367" y="658" on="0"/>
        <pt x="363" y="635" on="0"/>
        <pt x="358" y="630" on="1"/>
        <pt x="344" y="630" on="0"/>
        <pt x="297" y="621" on="0"/>
        <pt x="293" y="613" on="1"/>
        <pt x="280" y="584" on="0"/>
        <pt x="269" y="520" on="1"/>
        <pt x="268" y="516" on="0"/>
        <pt x="268" y="504" on="1"/>
        <pt x="268" y="502" on="0"/>
        <pt x="271" y="502" on="1"/>
        <pt x="303" y="512" on="0"/>
      </contour>
    </TTGlyph>
    <TTGlyph name="U" xMin="99" yMin="-6" xMax="748" yMax="662">
      <contour>
        <pt x="226" y="656" on="1"/>
        <pt x="271" y="656" on="0"/>
        <pt x="347" y="662" on="1"/>
        <pt x="350" y="657" on="0"/>
        <pt x="346" y="634" on="0"/>
        <pt x="341" y="629" on="1"/>
        <pt x="327" y="629" on="0"/>
        <pt x="280" y="620" on="0"/>
        <pt x="276" y="612" on="1"/>
        <pt x="266" y="594" on="0"/>
        <pt x="253" y="528" on="1"/>
        <pt x="212" y="313" on="1"/>
        <pt x="190" y="198" on="0"/>
        <pt x="209" y="140" on="1"/>
        <pt x="232" y="59" on="0"/>
        <pt x="331" y="59" on="1"/>
        <pt x="402" y="59" on="0"/>
        <pt x="518" y="170" on="0"/>
        <pt x="542" y="292" on="1"/>
        <pt x="585" y="512" on="1"/>
        <pt x="599" y="582" on="0"/>
        <pt x="592" y="608" on="1"/>
        <pt x="589" y="617" on="0"/>
        <pt x="543" y="630" on="0"/>
        <pt x="528" y="630" on="1"/>
        <pt x="526" y="635" on="0"/>
        <pt x="531" y="657" on="0"/>
        <pt x="534" y="662" on="1"/>
        <pt x="614" y="656" on="0"/>
        <pt x="642" y="656" on="1"/>
        <pt x="666" y="656" on="0"/>
        <pt x="737" y="661" on="0"/>
        <pt x="748" y="662" on="1"/>
        <pt x="753" y="647" on="0"/>
        <pt x="742" y="630" on="1"/>
        <pt x="726" y="630" on="0"/>
        <pt x="672" y="618" on="0"/>
        <pt x="666" y="608" on="1"/>
        <pt x="650" y="581" on="0"/>
        <pt x="636" y="513" on="1"/>
        <pt x="591" y="281" on="1"/>
        <pt x="562" y="137" on="0"/>
        <pt x="397" y="-6" on="0"/>
        <pt x="285" y="-6" on="1"/>
        <pt x="167" y="-6" on="0"/>
        <pt x="117" y="74" on="1"/>
        <pt x="73" y="144" on="0"/>
        <pt x="99" y="276" on="1"/>
        <pt x="148" y="528" on="1"/>
        <pt x="161" y="594" on="0"/>
        <pt x="158" y="612" on="1"/>
        <pt x="157" y="620" on="0"/>
        <pt x="114" y="629" on="0"/>
        <pt x="100" y="629" on="1"/>
        <pt x="98" y="633" on="0"/>
        <pt x="102" y="658" on="0"/>
        <pt x="106" y="662" on="1"/>
        <pt x="178" y="656" on="0"/>
      </contour>
    </TTGlyph>
    <TTGlyph name="Uacute" xMin="99" yMin="-6" xMax="748" yMax="839">
      <component glyphName="acutecomb.cap" x="261" y="14" flags="0x1004"/>
      <component glyphName="U" x="0" y="0" flags="0x1204"/>
    </TTGlyph>
    <TTGlyph name="Ubreve" xMin="99" yMin="-6" xMax="748" yMax="842">
      <component glyphName="uni0306.cap" x="205" y="112" flags="0x1004"/>
      <component glyphName="U" x="0" y="0" flags="0x1204"/>
    </TTGlyph>
    <TTGlyph name="Ucircumflex" xMin="99" yMin="-6" xMax="748" yMax="860">
      <component glyphName="uni0302.cap" x="142" y="20" flags="0x1004"/>
      <component glyphName="U" x="0" y="0" flags="0x1204"/>
    </TTGlyph>
    <TTGlyph name="Udieresis" xMin="99" yMin="-6" xMax="748" yMax="845">
      <component glyphName="uni0308.cap" x="121" y="12" flags="0x1004"/>
      <component glyphName="U" x="0" y="0" flags="0x1204"/>
    </TTGlyph>
    <TTGlyph name="Ugrave" xMin="99" yMin="-6" xMax="748" yMax="839">
      <component glyphName="gravecomb.cap" x="111" y="14" flags="0x1004"/>
      <component glyphName="U" x="0" y="0" flags="0x1204"/>
    </TTGlyph>
    <TTGlyph name="Uhungarumlaut" xMin="99" yMin="-6" xMax="748" yMax="839">
      <component glyphName="uni030B.cap" x="175" y="14" flags="0x1004"/>
      <component glyphName="U" x="0" y="0" flags="0x1204"/>
    </TTGlyph>
    <TTGlyph name="Umacron" xMin="99" yMin="-6" xMax="748" yMax="769">
      <component glyphName="uni0304.cap" x="133" y="74" flags="0x1004"/>
      <component glyphName="U" x="0" y="0" flags="0x1204"/>
    </TTGlyph>
    <TTGlyph name="Uogonek" xMin="99" yMin="-224" xMax="748" yMax="662">
      <contour>
        <pt x="292" y="-96" on="0"/>
        <pt x="292" y="-164" on="0"/>
        <pt x="326" y="-164" on="1"/>
        <pt x="346" y="-164" on="0"/>
        <pt x="381" y="-146" on="0"/>
        <pt x="403" y="-126" on="0"/>
        <pt x="404" y="-126" on="1"/>
        <pt x="409" y="-128" on="0"/>
        <pt x="406" y="-151" on="0"/>
        <pt x="403" y="-154" on="1"/>
        <pt x="383" y="-182" on="0"/>
        <pt x="320" y="-224" on="0"/>
        <pt x="290" y="-224" on="1"/>
        <pt x="266" y="-224" on="0"/>
        <pt x="235" y="-190" on="0"/>
        <pt x="235" y="-168" on="1"/>
        <pt x="235" y="-100" on="0"/>
        <pt x="344" y="-2" on="1"/>
        <pt x="325" y="-6" on="0"/>
        <pt x="285" y="-6" on="1"/>
        <pt x="164" y="-6" on="0"/>
        <pt x="115" y="76" on="1"/>
        <pt x="74" y="144" on="0"/>
        <pt x="99" y="276" on="1"/>
        <pt x="148" y="528" on="1"/>
        <pt x="161" y="594" on="0"/>
        <pt x="158" y="612" on="1"/>
        <pt x="157" y="620" on="0"/>
        <pt x="114" y="629" on="0"/>
        <pt x="100" y="629" on="1"/>
        <pt x="98" y="633" on="0"/>
        <pt x="102" y="658" on="0"/>
        <pt x="106" y="662" on="1"/>
        <pt x="178" y="656" on="0"/>
        <pt x="226" y="656" on="1"/>
        <pt x="271" y="656" on="0"/>
        <pt x="347" y="662" on="1"/>
        <pt x="350" y="657" on="0"/>
        <pt x="346" y="634" on="0"/>
        <pt x="341" y="629" on="1"/>
        <pt x="327" y="629" on="0"/>
        <pt x="280" y="620" on="0"/>
        <pt x="276" y="612" on="1"/>
        <pt x="266" y="594" on="0"/>
        <pt x="253" y="528" on="1"/>
        <pt x="212" y="313" on="1"/>
        <pt x="190" y="201" on="0"/>
        <pt x="209" y="140" on="1"/>
        <pt x="232" y="59" on="0"/>
        <pt x="331" y="59" on="1"/>
        <pt x="402" y="59" on="0"/>
        <pt x="518" y="170" on="0"/>
        <pt x="542" y="292" on="1"/>
        <pt x="585" y="512" on="1"/>
        <pt x="599" y="582" on="0"/>
        <pt x="592" y="608" on="1"/>
        <pt x="589" y="617" on="0"/>
        <pt x="543" y="630" on="0"/>
        <pt x="528" y="630" on="1"/>
        <pt x="526" y="635" on="0"/>
        <pt x="531" y="657" on="0"/>
        <pt x="534" y="662" on="1"/>
        <pt x="614" y="656" on="0"/>
        <pt x="642" y="656" on="1"/>
        <pt x="666" y="656" on="0"/>
        <pt x="737" y="661" on="0"/>
        <pt x="748" y="662" on="1"/>
        <pt x="753" y="647" on="0"/>
        <pt x="742" y="630" on="1"/>
        <pt x="726" y="630" on="0"/>
        <pt x="672" y="618" on="0"/>
        <pt x="666" y="608" on="1"/>
        <pt x="650" y="581" on="0"/>
        <pt x="636" y="513" on="1"/>
        <pt x="591" y="281" on="1"/>
        <pt x="557" y="111" on="0"/>
        <pt x="443" y="38" on="1"/>
        <pt x="384" y="-1" on="0"/>
      </contour>
    </TTGlyph>
    <TTGlyph name="Uring" xMin="99" yMin="-6" xMax="748" yMax="915">
      <component glyphName="uni030A.cap" x="181" y="146" flags="0x1004"/>
      <component glyphName="U" x="0" y="0" flags="0x1204"/>
    </TTGlyph>
    <TTGlyph name="Utilde" xMin="99" yMin="-6" xMax="748" yMax="812">
      <component glyphName="tildecomb.cap" x="113" y="0" flags="0x1004"/>
      <component glyphName="U" x="0" y="0" flags="0x1204"/>
    </TTGlyph>
    <TTGlyph name="V" xMin="62" yMin="-6" xMax="700" yMax="662">
      <contour>
        <pt x="188" y="656" on="1"/>
        <pt x="236" y="656" on="0"/>
        <pt x="312" y="662" on="1"/>
        <pt x="314" y="657" on="0"/>
        <pt x="309" y="632" on="0"/>
        <pt x="305" y="629" on="1"/>
        <pt x="297" y="629" on="0"/>
        <pt x="274" y="625" on="0"/>
        <pt x="245" y="611" on="0"/>
        <pt x="243" y="599" on="1"/>
        <pt x="239" y="582" on="0"/>
        <pt x="248" y="526" on="1"/>
        <pt x="314" y="160" on="1"/>
        <pt x="334" y="196" on="1"/>
        <pt x="355" y="232" on="0"/>
        <pt x="415" y="336" on="0"/>
        <pt x="473" y="440" on="0"/>
        <pt x="518" y="519" on="0"/>
        <pt x="520" y="522" on="1"/>
        <pt x="548" y="574" on="0"/>
        <pt x="553" y="598" on="1"/>
        <pt x="556" y="614" on="0"/>
        <pt x="510" y="629" on="0"/>
        <pt x="492" y="629" on="1"/>
        <pt x="489" y="632" on="0"/>
        <pt x="494" y="658" on="0"/>
        <pt x="498" y="662" on="1"/>
        <pt x="574" y="656" on="0"/>
        <pt x="602" y="656" on="1"/>
        <pt x="626" y="656" on="0"/>
        <pt x="690" y="661" on="0"/>
        <pt x="700" y="662" on="1"/>
        <pt x="701" y="658" on="0"/>
        <pt x="696" y="632" on="0"/>
        <pt x="693" y="629" on="1"/>
        <pt x="648" y="629" on="0"/>
        <pt x="627" y="607" on="1"/>
        <pt x="603" y="581" on="0"/>
        <pt x="566" y="515" on="1"/>
        <pt x="429" y="274" on="0"/>
        <pt x="286" y="31" on="1"/>
        <pt x="277" y="15" on="0"/>
        <pt x="248" y="-6" on="0"/>
        <pt x="238" y="-6" on="1"/>
        <pt x="235" y="-6" on="0"/>
        <pt x="233" y="-3" on="0"/>
        <pt x="230" y="7" on="0"/>
        <pt x="230" y="8" on="1"/>
        <pt x="222" y="56" on="0"/>
        <pt x="146" y="469" on="0"/>
        <pt x="139" y="512" on="1"/>
        <pt x="129" y="570" on="0"/>
        <pt x="118" y="601" on="1"/>
        <pt x="114" y="615" on="0"/>
        <pt x="76" y="629" on="0"/>
        <pt x="62" y="629" on="1"/>
        <pt x="60" y="632" on="0"/>
        <pt x="66" y="659" on="0"/>
        <pt x="69" y="662" on="1"/>
        <pt x="147" y="656" on="0"/>
      </contour>
    </TTGlyph>
    <TTGlyph name="W" xMin="65" yMin="-6" xMax="943" yMax="662">
      <contour>
        <pt x="188" y="656" on="1"/>
        <pt x="234" y="656" on="0"/>
        <pt x="310" y="662" on="1"/>
        <pt x="312" y="657" on="0"/>
        <pt x="307" y="632" on="0"/>
        <pt x="303" y="629" on="1"/>
        <pt x="295" y="629" on="0"/>
        <pt x="271" y="625" on="0"/>
        <pt x="243" y="607" on="0"/>
        <pt x="242" y="593" on="1"/>
        <pt x="240" y="583" on="0"/>
        <pt x="245" y="534" on="1"/>
        <pt x="278" y="220" on="0"/>
        <pt x="280" y="198" on="1"/>
        <pt x="474" y="595" on="0"/>
        <pt x="492" y="627" on="1"/>
        <pt x="499" y="641" on="0"/>
        <pt x="522" y="662" on="0"/>
        <pt x="530" y="662" on="1"/>
        <pt x="535" y="662" on="0"/>
        <pt x="538" y="646" on="1"/>
        <pt x="583" y="359" on="0"/>
        <pt x="605" y="180" on="1"/>
        <pt x="758" y="506" on="0"/>
        <pt x="766" y="522" on="1"/>
        <pt x="791" y="580" on="0"/>
        <pt x="795" y="598" on="1"/>
        <pt x="797" y="609" on="0"/>
        <pt x="769" y="625" on="0"/>
        <pt x="742" y="629" on="0"/>
        <pt x="733" y="629" on="1"/>
        <pt x="730" y="632" on="0"/>
        <pt x="735" y="657" on="0"/>
        <pt x="740" y="662" on="1"/>
        <pt x="816" y="656" on="0"/>
        <pt x="844" y="656" on="1"/>
        <pt x="868" y="656" on="0"/>
        <pt x="933" y="661" on="0"/>
        <pt x="943" y="662" on="1"/>
        <pt x="944" y="658" on="0"/>
        <pt x="939" y="632" on="0"/>
        <pt x="936" y="629" on="1"/>
        <pt x="924" y="629" on="0"/>
        <pt x="881" y="617" on="0"/>
        <pt x="869" y="607" on="1"/>
        <pt x="843" y="581" on="0"/>
        <pt x="818" y="528" on="1"/>
        <pt x="802" y="495" on="0"/>
        <pt x="605" y="88" on="0"/>
        <pt x="578" y="36" on="1"/>
        <pt x="571" y="20" on="0"/>
        <pt x="543" y="-6" on="0"/>
        <pt x="534" y="-6" on="1"/>
        <pt x="528" y="-6" on="0"/>
        <pt x="523" y="8" on="1"/>
        <pt x="517" y="57" on="0"/>
        <pt x="462" y="417" on="0"/>
        <pt x="456" y="463" on="1"/>
        <pt x="284" y="110" on="0"/>
        <pt x="247" y="38" on="1"/>
        <pt x="241" y="25" on="0"/>
        <pt x="213" y="-6" on="0"/>
        <pt x="205" y="-6" on="1"/>
        <pt x="199" y="-6" on="0"/>
        <pt x="194" y="8" on="1"/>
        <pt x="135" y="521" on="1"/>
        <pt x="130" y="574" on="0"/>
        <pt x="121" y="602" on="1"/>
        <pt x="116" y="615" on="0"/>
        <pt x="78" y="629" on="0"/>
        <pt x="65" y="629" on="1"/>
        <pt x="63" y="632" on="0"/>
        <pt x="68" y="659" on="0"/>
        <pt x="71" y="662" on="1"/>
        <pt x="147" y="656" on="0"/>
      </contour>
    </TTGlyph>
    <TTGlyph name="Wcircumflex" xMin="65" yMin="-6" xMax="943" yMax="860">
      <component glyphName="uni0302.cap" x="240" y="20" flags="0x1004"/>
      <component glyphName="W" x="0" y="0" flags="0x1204"/>
    </TTGlyph>
    <TTGlyph name="X" xMin="-58" yMin="-4" xMax="701" yMax="662">
      <contour>
        <pt x="231" y="656" on="1"/>
        <pt x="245" y="656" on="0"/>
        <pt x="359" y="662" on="1"/>
        <pt x="360" y="657" on="0"/>
        <pt x="354" y="629" on="0"/>
        <pt x="351" y="629" on="1"/>
        <pt x="336" y="629" on="0"/>
        <pt x="296" y="615" on="0"/>
        <pt x="293" y="602" on="1"/>
        <pt x="290" y="592" on="0"/>
        <pt x="297" y="576" on="1"/>
        <pt x="370" y="403" on="1"/>
        <pt x="514" y="561" on="0"/>
        <pt x="532" y="588" on="1"/>
        <pt x="538" y="600" on="0"/>
        <pt x="538" y="601" on="1"/>
        <pt x="540" y="611" on="0"/>
        <pt x="506" y="628" on="0"/>
        <pt x="477" y="628" on="1"/>
        <pt x="475" y="629" on="0"/>
        <pt x="476" y="642" on="0"/>
        <pt x="480" y="659" on="0"/>
        <pt x="482" y="662" on="1"/>
        <pt x="534" y="656" on="0"/>
        <pt x="593" y="656" on="1"/>
        <pt x="649" y="656" on="0"/>
        <pt x="701" y="662" on="1"/>
        <pt x="703" y="657" on="0"/>
        <pt x="697" y="630" on="0"/>
        <pt x="693" y="628" on="1"/>
        <pt x="635" y="628" on="0"/>
        <pt x="591" y="582" on="1"/>
        <pt x="385" y="365" on="1"/>
        <pt x="497" y="90" on="0"/>
        <pt x="511" y="71" on="1"/>
        <pt x="522" y="50" on="0"/>
        <pt x="573" y="29" on="0"/>
        <pt x="595" y="29" on="1"/>
        <pt x="596" y="24" on="0"/>
        <pt x="592" y="0" on="0"/>
        <pt x="589" y="-4" on="1"/>
        <pt x="478" y="2" on="0"/>
        <pt x="468" y="2" on="1"/>
        <pt x="437" y="2" on="0"/>
        <pt x="336" y="-4" on="0"/>
        <pt x="325" y="-4" on="1"/>
        <pt x="322" y="0" on="0"/>
        <pt x="328" y="29" on="0"/>
        <pt x="332" y="29" on="1"/>
        <pt x="344" y="29" on="0"/>
        <pt x="388" y="46" on="0"/>
        <pt x="391" y="58" on="1"/>
        <pt x="392" y="62" on="0"/>
        <pt x="390" y="69" on="1"/>
        <pt x="299" y="286" on="1"/>
        <pt x="141" y="107" on="0"/>
        <pt x="118" y="74" on="1"/>
        <pt x="108" y="60" on="0"/>
        <pt x="108" y="58" on="1"/>
        <pt x="106" y="47" on="0"/>
        <pt x="146" y="29" on="0"/>
        <pt x="176" y="29" on="1"/>
        <pt x="178" y="24" on="0"/>
        <pt x="175" y="1" on="0"/>
        <pt x="172" y="-4" on="1"/>
        <pt x="76" y="2" on="0"/>
        <pt x="59" y="2" on="1"/>
        <pt x="56" y="2" on="0"/>
        <pt x="-58" y="-4" on="1"/>
        <pt x="-59" y="0" on="0"/>
        <pt x="-54" y="25" on="0"/>
        <pt x="-51" y="29" on="1"/>
        <pt x="-42" y="29" on="0"/>
        <pt x="-14" y="33" on="0"/>
        <pt x="39" y="54" on="0"/>
        <pt x="55" y="72" on="1"/>
        <pt x="281" y="327" on="1"/>
        <pt x="192" y="542" on="1"/>
        <pt x="171" y="598" on="0"/>
        <pt x="150" y="614" on="1"/>
        <pt x="132" y="629" on="0"/>
        <pt x="95" y="629" on="1"/>
        <pt x="93" y="630" on="0"/>
        <pt x="94" y="643" on="0"/>
        <pt x="99" y="660" on="0"/>
        <pt x="102" y="662" on="1"/>
        <pt x="108" y="662" on="0"/>
        <pt x="204" y="656" on="0"/>
      </contour>
    </TTGlyph>
    <TTGlyph name="Y" xMin="63" yMin="-4" xMax="650" yMax="662">
      <contour>
        <pt x="201" y="130" on="1"/>
        <pt x="229" y="276" on="1"/>
        <pt x="230" y="285" on="0"/>
        <pt x="227" y="300" on="1"/>
        <pt x="227" y="300" on="0"/>
        <pt x="150" y="542" on="1"/>
        <pt x="137" y="580" on="0"/>
        <pt x="117" y="604" on="1"/>
        <pt x="109" y="616" on="0"/>
        <pt x="76" y="629" on="0"/>
        <pt x="64" y="629" on="1"/>
        <pt x="61" y="632" on="0"/>
        <pt x="66" y="657" on="0"/>
        <pt x="71" y="662" on="1"/>
        <pt x="151" y="656" on="0"/>
        <pt x="194" y="656" on="1"/>
        <pt x="244" y="656" on="0"/>
        <pt x="320" y="662" on="1"/>
        <pt x="322" y="657" on="0"/>
        <pt x="317" y="632" on="0"/>
        <pt x="313" y="629" on="1"/>
        <pt x="257" y="629" on="0"/>
        <pt x="251" y="600" on="1"/>
        <pt x="250" y="597" on="0"/>
        <pt x="256" y="576" on="1"/>
        <pt x="330" y="346" on="1"/>
        <pt x="385" y="414" on="0"/>
        <pt x="497" y="585" on="1"/>
        <pt x="502" y="593" on="0"/>
        <pt x="504" y="604" on="1"/>
        <pt x="505" y="610" on="0"/>
        <pt x="487" y="621" on="0"/>
        <pt x="457" y="628" on="0"/>
        <pt x="441" y="628" on="1"/>
        <pt x="439" y="632" on="0"/>
        <pt x="443" y="658" on="0"/>
        <pt x="446" y="662" on="1"/>
        <pt x="522" y="656" on="0"/>
        <pt x="545" y="656" on="1"/>
        <pt x="571" y="656" on="0"/>
        <pt x="643" y="662" on="0"/>
        <pt x="650" y="662" on="1"/>
        <pt x="652" y="659" on="0"/>
        <pt x="645" y="631" on="0"/>
        <pt x="642" y="628" on="1"/>
        <pt x="585" y="628" on="0"/>
        <pt x="561" y="596" on="1"/>
        <pt x="551" y="584" on="0"/>
        <pt x="357" y="321" on="0"/>
        <pt x="344" y="300" on="1"/>
        <pt x="340" y="294" on="0"/>
        <pt x="335" y="274" on="1"/>
        <pt x="306" y="130" on="1"/>
        <pt x="292" y="68" on="0"/>
        <pt x="296" y="46" on="1"/>
        <pt x="297" y="38" on="0"/>
        <pt x="340" y="29" on="0"/>
        <pt x="354" y="29" on="1"/>
        <pt x="356" y="25" on="0"/>
        <pt x="352" y="0" on="0"/>
        <pt x="348" y="-4" on="1"/>
        <pt x="276" y="2" on="0"/>
        <pt x="228" y="2" on="1"/>
        <pt x="183" y="2" on="0"/>
        <pt x="107" y="-4" on="1"/>
        <pt x="104" y="1" on="0"/>
        <pt x="108" y="24" on="0"/>
        <pt x="113" y="29" on="1"/>
        <pt x="127" y="29" on="0"/>
        <pt x="174" y="38" on="0"/>
        <pt x="178" y="46" on="1"/>
        <pt x="185" y="59" on="0"/>
      </contour>
    </TTGlyph>
    <TTGlyph name="Yacute" xMin="64" yMin="-4" xMax="650" yMax="839">
      <component glyphName="acutecomb.cap" x="202" y="14" flags="0x1004"/>
      <component glyphName="Y" x="0" y="0" flags="0x1204"/>
    </TTGlyph>
    <TTGlyph name="Ycircumflex" xMin="64" yMin="-4" xMax="650" yMax="860">
      <component glyphName="uni0302.cap" x="75" y="20" flags="0x1004"/>
      <component glyphName="Y" x="0" y="0" flags="0x1204"/>
    </TTGlyph>
    <TTGlyph name="Ydieresis" xMin="64" yMin="-4" xMax="650" yMax="845">
      <component glyphName="uni0308.cap" x="50" y="12" flags="0x1004"/>
      <component glyphName="Y" x="0" y="0" flags="0x1204"/>
    </TTGlyph>
    <TTGlyph name="Z" xMin="-15" yMin="0" xMax="627" yMax="668">
      <contour>
        <pt x="285" y="617" on="1"/>
        <pt x="229" y="617" on="0"/>
        <pt x="158" y="547" on="0"/>
        <pt x="128" y="483" on="1"/>
        <pt x="125" y="478" on="0"/>
        <pt x="116" y="478" on="1"/>
        <pt x="96" y="478" on="0"/>
        <pt x="92" y="484" on="1"/>
        <pt x="126" y="559" on="0"/>
        <pt x="159" y="666" on="1"/>
        <pt x="191" y="658" on="0"/>
        <pt x="257" y="658" on="1"/>
        <pt x="412" y="658" on="1"/>
        <pt x="488" y="658" on="0"/>
        <pt x="620" y="668" on="1"/>
        <pt x="623" y="667" on="0"/>
        <pt x="628" y="648" on="0"/>
        <pt x="627" y="641" on="1"/>
        <pt x="626" y="637" on="0"/>
        <pt x="423" y="390" on="0"/>
        <pt x="180" y="97" on="0"/>
        <pt x="132" y="42" on="1"/>
        <pt x="355" y="42" on="1"/>
        <pt x="411" y="42" on="0"/>
        <pt x="455" y="84" on="1"/>
        <pt x="486" y="114" on="0"/>
        <pt x="517" y="171" on="1"/>
        <pt x="520" y="176" on="0"/>
        <pt x="530" y="176" on="1"/>
        <pt x="550" y="176" on="0"/>
        <pt x="554" y="168" on="1"/>
        <pt x="490" y="37" on="0"/>
        <pt x="476" y="0" on="1"/>
        <pt x="2" y="0" on="1"/>
        <pt x="-6" y="0" on="0"/>
        <pt x="-18" y="14" on="0"/>
        <pt x="-15" y="18" on="1"/>
        <pt x="485" y="618" on="1"/>
      </contour>
    </TTGlyph>
    <TTGlyph name="Zacute" xMin="-15" yMin="0" xMax="627" yMax="842">
      <component glyphName="acutecomb.cap" x="189" y="17" flags="0x1004"/>
      <component glyphName="Z" x="0" y="0" flags="0x1204"/>
    </TTGlyph>
    <TTGlyph name="Zcaron" xMin="-15" yMin="0" xMax="627" yMax="861">
      <component glyphName="uni030C.cap" x="57" y="9" flags="0x1004"/>
      <component glyphName="Z" x="0" y="0" flags="0x1204"/>
    </TTGlyph>
    <TTGlyph name="Zdotaccent" xMin="-15" yMin="0" xMax="627" yMax="849">
      <component glyphName="uni0307.cap" x="112" y="10" flags="0x1004"/>
      <component glyphName="Z" x="0" y="0" flags="0x1204"/>
    </TTGlyph>
    <TTGlyph name="a" xMin="15" yMin="-7" xMax="433" yMax="442">
      <contour>
        <pt x="266" y="442" on="0"/>
        <pt x="358" y="442" on="0"/>
        <pt x="404" y="426" on="1"/>
        <pt x="342" y="119" on="1"/>
        <pt x="338" y="103" on="0"/>
        <pt x="338" y="86" on="1"/>
        <pt x="338" y="63" on="0"/>
        <pt x="350" y="63" on="1"/>
        <pt x="364" y="63" on="0"/>
        <pt x="411" y="110" on="0"/>
        <pt x="421" y="123" on="1"/>
        <pt x="424" y="123" on="0"/>
        <pt x="433" y="105" on="0"/>
        <pt x="433" y="100" on="1"/>
        <pt x="419" y="74" on="0"/>
        <pt x="321" y="-7" on="0"/>
        <pt x="288" y="-7" on="1"/>
        <pt x="267" y="-7" on="0"/>
        <pt x="240" y="25" on="0"/>
        <pt x="240" y="52" on="1"/>
        <pt x="240" y="60" on="0"/>
        <pt x="244" y="88" on="1"/>
        <pt x="245" y="96" on="0"/>
        <pt x="249" y="111" on="0"/>
        <pt x="249" y="113" on="1"/>
        <pt x="228" y="76" on="0"/>
        <pt x="141" y="-6" on="0"/>
        <pt x="102" y="-6" on="1"/>
        <pt x="62" y="-6" on="0"/>
        <pt x="15" y="61" on="0"/>
        <pt x="15" y="114" on="1"/>
        <pt x="15" y="177" on="0"/>
        <pt x="73" y="301" on="0"/>
        <pt x="161" y="388" on="0"/>
      </contour>
      <contour>
        <pt x="260" y="394" on="1"/>
        <pt x="206" y="394" on="0"/>
        <pt x="115" y="240" on="0"/>
        <pt x="115" y="152" on="1"/>
        <pt x="115" y="67" on="0"/>
        <pt x="158" y="67" on="1"/>
        <pt x="189" y="67" on="0"/>
        <pt x="265" y="202" on="0"/>
        <pt x="280" y="278" on="1"/>
        <pt x="301" y="381" on="1"/>
        <pt x="289" y="394" on="0"/>
      </contour>
    </TTGlyph>
    <TTGlyph name="aacute" xMin="15" yMin="-7" xMax="436" yMax="644">
      <component glyphName="acutecomb" x="108" y="-26" flags="0x1004"/>
      <component glyphName="a" x="0" y="0" flags="0x1204"/>
    </TTGlyph>
    <TTGlyph name="abreve" xMin="15" yMin="-7" xMax="433" yMax="624">
      <component glyphName="uni0306" x="85" y="-17" flags="0x1004"/>
      <component glyphName="a" x="0" y="0" flags="0x1204"/>
    </TTGlyph>
    <TTGlyph name="acircumflex" xMin="15" yMin="-7" xMax="433" yMax="655">
      <component glyphName="uni0302" x="24" y="-95" flags="0x1004"/>
      <component glyphName="a" x="0" y="0" flags="0x1204"/>
    </TTGlyph>
    <TTGlyph name="acute" xMin="76" yMin="524" xMax="259" yMax="686">
      <contour>
        <pt x="224" y="686" on="1"/>
        <pt x="244" y="686" on="0"/>
        <pt x="260" y="670" on="0"/>
        <pt x="259" y="662" on="1"/>
        <pt x="256" y="637" on="0"/>
        <pt x="100" y="524" on="0"/>
        <pt x="88" y="524" on="1"/>
        <pt x="84" y="524" on="0"/>
        <pt x="76" y="538" on="0"/>
        <pt x="76" y="542" on="1"/>
        <pt x="76" y="548" on="0"/>
        <pt x="160" y="651" on="0"/>
        <pt x="183" y="674" on="1"/>
        <pt x="195" y="686" on="0"/>
      </contour>
    </TTGlyph>
    <TTGlyph name="acutecomb" xMin="156" yMin="530" xMax="328" yMax="670">
      <contour>
        <pt x="164" y="530" on="1"/>
        <pt x="156" y="533" on="0"/>
        <pt x="156" y="540" on="1"/>
        <pt x="158" y="547" on="0"/>
        <pt x="236" y="646" on="0"/>
        <pt x="252" y="660" on="1"/>
        <pt x="264" y="670" on="0"/>
        <pt x="286" y="670" on="1"/>
        <pt x="300" y="670" on="0"/>
        <pt x="328" y="651" on="0"/>
        <pt x="328" y="634" on="1"/>
        <pt x="328" y="616" on="0"/>
        <pt x="182" y="532" on="0"/>
      </contour>
    </TTGlyph>
    <TTGlyph name="acutecomb.cap" xMin="154" yMin="712" xMax="348" yMax="825">
      <contour>
        <pt x="162" y="712" on="1"/>
        <pt x="154" y="720" on="0"/>
        <pt x="154" y="724" on="1"/>
        <pt x="156" y="731" on="0"/>
        <pt x="236" y="805" on="0"/>
        <pt x="260" y="819" on="1"/>
        <pt x="269" y="825" on="0"/>
        <pt x="296" y="825" on="1"/>
        <pt x="317" y="825" on="0"/>
        <pt x="348" y="811" on="0"/>
        <pt x="348" y="798" on="1"/>
        <pt x="348" y="777" on="0"/>
        <pt x="184" y="713" on="0"/>
      </contour>
    </TTGlyph>
    <TTGlyph name="adieresis" xMin="15" yMin="-7" xMax="436" yMax="619">
      <component glyphName="dieresis" x="77" y="41" flags="0x1004"/>
      <component glyphName="a" x="0" y="0" flags="0x1204"/>
    </TTGlyph>
    <TTGlyph name="ae" xMin="5" yMin="-8" xMax="563" yMax="442">
      <contour>
        <pt x="434" y="403" on="1"/>
        <pt x="396" y="403" on="0"/>
        <pt x="338" y="285" on="0"/>
        <pt x="332" y="228" on="1"/>
        <pt x="367" y="228" on="0"/>
        <pt x="467" y="314" on="0"/>
        <pt x="467" y="364" on="1"/>
        <pt x="467" y="381" on="0"/>
        <pt x="449" y="403" on="0"/>
      </contour>
      <contour>
        <pt x="225" y="99" on="1"/>
        <pt x="224" y="104" on="0"/>
        <pt x="233" y="196" on="0"/>
        <pt x="235" y="205" on="1"/>
        <pt x="184" y="196" on="0"/>
        <pt x="149" y="176" on="1"/>
        <pt x="108" y="153" on="0"/>
        <pt x="104" y="112" on="1"/>
        <pt x="101" y="85" on="0"/>
        <pt x="127" y="54" on="0"/>
        <pt x="146" y="54" on="1"/>
        <pt x="163" y="54" on="0"/>
        <pt x="220" y="90" on="0"/>
      </contour>
      <contour>
        <pt x="254" y="442" on="1"/>
        <pt x="285" y="442" on="0"/>
        <pt x="328" y="407" on="0"/>
        <pt x="337" y="379" on="1"/>
        <pt x="400" y="442" on="0"/>
        <pt x="474" y="442" on="1"/>
        <pt x="517" y="442" on="0"/>
        <pt x="563" y="397" on="0"/>
        <pt x="563" y="364" on="1"/>
        <pt x="563" y="320" on="0"/>
        <pt x="472" y="239" on="0"/>
        <pt x="366" y="197" on="0"/>
        <pt x="328" y="194" on="1"/>
        <pt x="325" y="182" on="0"/>
        <pt x="325" y="160" on="1"/>
        <pt x="325" y="65" on="0"/>
        <pt x="390" y="65" on="1"/>
        <pt x="398" y="65" on="0"/>
        <pt x="416" y="71" on="0"/>
        <pt x="432" y="79" on="0"/>
        <pt x="449" y="91" on="0"/>
        <pt x="463" y="103" on="0"/>
        <pt x="476" y="115" on="0"/>
        <pt x="485" y="124" on="0"/>
        <pt x="488" y="128" on="1"/>
        <pt x="492" y="132" on="1"/>
        <pt x="496" y="132" on="0"/>
        <pt x="505" y="113" on="0"/>
        <pt x="505" y="107" on="1"/>
        <pt x="483" y="74" on="0"/>
        <pt x="375" y="-6" on="0"/>
        <pt x="336" y="-6" on="1"/>
        <pt x="303" y="-6" on="0"/>
        <pt x="246" y="32" on="0"/>
        <pt x="234" y="64" on="1"/>
        <pt x="220" y="50" on="0"/>
        <pt x="111" y="-8" on="0"/>
        <pt x="92" y="-8" on="1"/>
        <pt x="51" y="-8" on="0"/>
        <pt x="1" y="52" on="0"/>
        <pt x="5" y="97" on="1"/>
        <pt x="8" y="126" on="0"/>
        <pt x="45" y="177" on="0"/>
        <pt x="65" y="187" on="1"/>
        <pt x="91" y="198" on="0"/>
        <pt x="234" y="242" on="1"/>
        <pt x="239" y="244" on="0"/>
        <pt x="242" y="260" on="1"/>
        <pt x="249" y="314" on="1"/>
        <pt x="250" y="322" on="0"/>
        <pt x="250" y="337" on="1"/>
        <pt x="250" y="364" on="0"/>
        <pt x="228" y="404" on="0"/>
        <pt x="184" y="404" on="0"/>
        <pt x="158" y="370" on="0"/>
        <pt x="144" y="333" on="1"/>
        <pt x="126" y="288" on="0"/>
        <pt x="91" y="288" on="1"/>
        <pt x="75" y="288" on="0"/>
        <pt x="58" y="312" on="0"/>
        <pt x="60" y="327" on="1"/>
        <pt x="63" y="346" on="0"/>
        <pt x="76" y="364" on="1"/>
        <pt x="103" y="388" on="0"/>
        <pt x="208" y="442" on="0"/>
      </contour>
    </TTGlyph>
    <TTGlyph name="afii00208" xMin="52" yMin="197" xMax="1003" yMax="265">
      <contour>
        <pt x="996" y="265" on="1"/>
        <pt x="1003" y="265" on="0"/>
        <pt x="1003" y="250" on="1"/>
        <pt x="1003" y="237" on="0"/>
        <pt x="987" y="202" on="0"/>
        <pt x="981" y="197" on="1"/>
        <pt x="58" y="197" on="1"/>
        <pt x="52" y="197" on="0"/>
        <pt x="52" y="212" on="1"/>
        <pt x="52" y="225" on="0"/>
        <pt x="68" y="260" on="0"/>
        <pt x="74" y="265" on="1"/>
      </contour>
    </TTGlyph>
    <TTGlyph name="afii57929" xMin="30" yMin="456" xMax="155" yMax="681">
      <component glyphName="uni0315" x="-79" y="0" flags="0x1004"/>
    </TTGlyph>
    <TTGlyph name="agrave" xMin="15" yMin="-7" xMax="433" yMax="644">
      <component glyphName="gravecomb" x="19" y="-26" flags="0x1004"/>
      <component glyphName="a" x="0" y="0" flags="0x1204"/>
    </TTGlyph>
    <TTGlyph name="amacron" xMin="15" yMin="-7" xMax="433" yMax="556">
      <component glyphName="uni0304" x="0" y="-37" flags="0x1004"/>
      <component glyphName="a" x="0" y="0" flags="0x1204"/>
    </TTGlyph>
    <TTGlyph name="ampersand" xMin="-8" yMin="-5" xMax="792" yMax="544">
      <contour>
        <pt x="434" y="536" on="1"/>
        <pt x="469" y="536" on="0"/>
        <pt x="520" y="488" on="0"/>
        <pt x="520" y="454" on="1"/>
        <pt x="520" y="417" on="0"/>
        <pt x="479" y="353" on="0"/>
        <pt x="421" y="309" on="0"/>
        <pt x="338" y="271" on="0"/>
        <pt x="273" y="250" on="0"/>
        <pt x="236" y="241" on="1"/>
        <pt x="239" y="144" on="0"/>
        <pt x="336" y="36" on="0"/>
        <pt x="418" y="36" on="1"/>
        <pt x="491" y="36" on="0"/>
        <pt x="606" y="125" on="0"/>
        <pt x="606" y="192" on="1"/>
        <pt x="606" y="222" on="0"/>
        <pt x="592" y="236" on="1"/>
        <pt x="476" y="196" on="0"/>
        <pt x="476" y="147" on="1"/>
        <pt x="476" y="134" on="0"/>
        <pt x="479" y="122" on="1"/>
        <pt x="470" y="117" on="0"/>
        <pt x="457" y="130" on="1"/>
        <pt x="440" y="147" on="0"/>
        <pt x="440" y="180" on="1"/>
        <pt x="440" y="221" on="0"/>
        <pt x="493" y="270" on="0"/>
        <pt x="562" y="306" on="1"/>
        <pt x="597" y="324" on="0"/>
        <pt x="651" y="361" on="0"/>
        <pt x="706" y="417" on="0"/>
        <pt x="734" y="496" on="0"/>
        <pt x="733" y="544" on="1"/>
        <pt x="745" y="545" on="0"/>
        <pt x="756" y="537" on="1"/>
        <pt x="792" y="495" on="0"/>
        <pt x="792" y="436" on="1"/>
        <pt x="792" y="378" on="0"/>
        <pt x="720" y="290" on="0"/>
        <pt x="662" y="262" on="1"/>
        <pt x="669" y="248" on="0"/>
        <pt x="669" y="225" on="1"/>
        <pt x="669" y="131" on="0"/>
        <pt x="496" y="-5" on="0"/>
        <pt x="386" y="-5" on="1"/>
        <pt x="336" y="-5" on="0"/>
        <pt x="247" y="21" on="0"/>
        <pt x="175" y="73" on="0"/>
        <pt x="132" y="160" on="0"/>
        <pt x="131" y="215" on="1"/>
        <pt x="90" y="204" on="0"/>
        <pt x="48" y="176" on="0"/>
        <pt x="48" y="154" on="1"/>
        <pt x="48" y="150" on="0"/>
        <pt x="50" y="142" on="0"/>
        <pt x="52" y="137" on="0"/>
        <pt x="57" y="131" on="0"/>
        <pt x="60" y="128" on="0"/>
        <pt x="66" y="122" on="0"/>
        <pt x="68" y="120" on="1"/>
        <pt x="88" y="102" on="0"/>
        <pt x="88" y="84" on="1"/>
        <pt x="88" y="62" on="0"/>
        <pt x="60" y="36" on="0"/>
        <pt x="39" y="36" on="1"/>
        <pt x="20" y="36" on="0"/>
        <pt x="10" y="41" on="1"/>
        <pt x="-8" y="65" on="0"/>
        <pt x="-8" y="102" on="1"/>
        <pt x="-8" y="152" on="0"/>
        <pt x="53" y="227" on="0"/>
        <pt x="110" y="245" on="1"/>
        <pt x="119" y="248" on="0"/>
        <pt x="133" y="252" on="1"/>
        <pt x="142" y="322" on="0"/>
        <pt x="223" y="451" on="0"/>
        <pt x="358" y="536" on="0"/>
      </contour>
      <contour>
        <pt x="237" y="282" on="1"/>
        <pt x="400" y="339" on="0"/>
        <pt x="400" y="436" on="1"/>
        <pt x="400" y="460" on="0"/>
        <pt x="377" y="488" on="0"/>
        <pt x="356" y="488" on="1"/>
        <pt x="310" y="488" on="0"/>
        <pt x="243" y="367" on="0"/>
      </contour>
    </TTGlyph>
    <TTGlyph name="aogonek" xMin="15" yMin="-224" xMax="433" yMax="442">
      <contour>
        <pt x="260" y="394" on="1"/>
        <pt x="206" y="394" on="0"/>
        <pt x="115" y="240" on="0"/>
        <pt x="115" y="152" on="1"/>
        <pt x="115" y="67" on="0"/>
        <pt x="158" y="67" on="1"/>
        <pt x="189" y="67" on="0"/>
        <pt x="265" y="202" on="0"/>
        <pt x="280" y="278" on="1"/>
        <pt x="301" y="381" on="1"/>
        <pt x="289" y="394" on="0"/>
      </contour>
      <contour>
        <pt x="433" y="100" on="1"/>
        <pt x="418" y="75" on="0"/>
        <pt x="365" y="30" on="1"/>
        <pt x="329" y="0" on="0"/>
        <pt x="285" y="-39" on="0"/>
        <pt x="234" y="-106" on="0"/>
        <pt x="234" y="-130" on="1"/>
        <pt x="234" y="-164" on="0"/>
        <pt x="268" y="-164" on="1"/>
        <pt x="288" y="-164" on="0"/>
        <pt x="323" y="-146" on="0"/>
        <pt x="345" y="-126" on="0"/>
        <pt x="346" y="-126" on="1"/>
        <pt x="351" y="-128" on="0"/>
        <pt x="347" y="-151" on="0"/>
        <pt x="344" y="-154" on="1"/>
        <pt x="324" y="-182" on="0"/>
        <pt x="262" y="-224" on="0"/>
        <pt x="232" y="-224" on="1"/>
        <pt x="208" y="-224" on="0"/>
        <pt x="176" y="-191" on="0"/>
        <pt x="176" y="-170" on="1"/>
        <pt x="176" y="-143" on="0"/>
        <pt x="212" y="-77" on="0"/>
        <pt x="247" y="-38" on="0"/>
        <pt x="277" y="-6" on="1"/>
        <pt x="240" y="2" on="0"/>
        <pt x="240" y="52" on="1"/>
        <pt x="240" y="60" on="0"/>
        <pt x="244" y="88" on="1"/>
        <pt x="245" y="96" on="0"/>
        <pt x="249" y="111" on="0"/>
        <pt x="249" y="113" on="1"/>
        <pt x="228" y="76" on="0"/>
        <pt x="141" y="-6" on="0"/>
        <pt x="102" y="-6" on="1"/>
        <pt x="62" y="-6" on="0"/>
        <pt x="15" y="61" on="0"/>
        <pt x="15" y="114" on="1"/>
        <pt x="15" y="177" on="0"/>
        <pt x="73" y="301" on="0"/>
        <pt x="161" y="388" on="0"/>
        <pt x="266" y="442" on="0"/>
        <pt x="358" y="442" on="0"/>
        <pt x="404" y="426" on="1"/>
        <pt x="342" y="119" on="1"/>
        <pt x="338" y="103" on="0"/>
        <pt x="338" y="86" on="1"/>
        <pt x="338" y="64" on="0"/>
        <pt x="350" y="64" on="1"/>
        <pt x="364" y="64" on="0"/>
        <pt x="412" y="111" on="0"/>
        <pt x="421" y="123" on="1"/>
        <pt x="424" y="123" on="0"/>
        <pt x="433" y="105" on="0"/>
      </contour>
    </TTGlyph>
    <TTGlyph name="aring" xMin="15" yMin="-7" xMax="433" yMax="713">
      <component glyphName="degree" x="110" y="72" flags="0x1004"/>
      <component glyphName="a" x="0" y="0" flags="0x1204"/>
    </TTGlyph>
    <TTGlyph name="arrowdown" xMin="-5" yMin="-19" xMax="320" yMax="707">
      <contour>
        <pt x="110" y="110" on="1"/>
        <pt x="226" y="701" on="1"/>
        <pt x="228" y="707" on="0"/>
        <pt x="250" y="707" on="0"/>
        <pt x="284" y="696" on="0"/>
        <pt x="288" y="692" on="1"/>
        <pt x="174" y="108" on="1"/>
        <pt x="226" y="156" on="1"/>
        <pt x="294" y="219" on="0"/>
        <pt x="299" y="221" on="1"/>
        <pt x="303" y="223" on="0"/>
        <pt x="306" y="223" on="1"/>
        <pt x="315" y="223" on="0"/>
        <pt x="320" y="194" on="1"/>
        <pt x="317" y="193" on="0"/>
        <pt x="280" y="156" on="0"/>
        <pt x="188" y="54" on="0"/>
        <pt x="136" y="-12" on="1"/>
        <pt x="132" y="-19" on="0"/>
        <pt x="122" y="-19" on="1"/>
        <pt x="107" y="-19" on="0"/>
        <pt x="99" y="-10" on="1"/>
        <pt x="59" y="99" on="0"/>
        <pt x="-5" y="195" on="1"/>
        <pt x="7" y="224" on="0"/>
        <pt x="21" y="224" on="1"/>
        <pt x="23" y="224" on="0"/>
        <pt x="25" y="223" on="0"/>
        <pt x="28" y="221" on="0"/>
        <pt x="31" y="217" on="0"/>
        <pt x="37" y="211" on="0"/>
        <pt x="42" y="204" on="0"/>
        <pt x="50" y="192" on="0"/>
        <pt x="58" y="180" on="0"/>
        <pt x="71" y="161" on="0"/>
        <pt x="78" y="152" on="1"/>
      </contour>
    </TTGlyph>
    <TTGlyph name="arrowleft" xMin="8" yMin="73" xMax="672" yMax="423">
      <contour>
        <pt x="192" y="327" on="1"/>
        <pt x="142" y="281" on="1"/>
        <pt x="666" y="281" on="1"/>
        <pt x="672" y="281" on="0"/>
        <pt x="672" y="268" on="1"/>
        <pt x="672" y="258" on="0"/>
        <pt x="656" y="219" on="0"/>
        <pt x="648" y="213" on="1"/>
        <pt x="129" y="213" on="1"/>
        <pt x="153" y="178" on="0"/>
        <pt x="161" y="167" on="1"/>
        <pt x="171" y="154" on="0"/>
        <pt x="190" y="129" on="0"/>
        <pt x="199" y="117" on="0"/>
        <pt x="207" y="105" on="0"/>
        <pt x="210" y="99" on="0"/>
        <pt x="210" y="96" on="1"/>
        <pt x="210" y="84" on="0"/>
        <pt x="178" y="73" on="1"/>
        <pt x="177" y="76" on="0"/>
        <pt x="147" y="108" on="0"/>
        <pt x="65" y="185" on="0"/>
        <pt x="12" y="227" on="1"/>
        <pt x="8" y="230" on="0"/>
        <pt x="8" y="238" on="1"/>
        <pt x="8" y="255" on="0"/>
        <pt x="21" y="268" on="1"/>
        <pt x="49" y="284" on="0"/>
        <pt x="104" y="318" on="0"/>
        <pt x="147" y="348" on="0"/>
        <pt x="186" y="375" on="0"/>
        <pt x="215" y="397" on="0"/>
        <pt x="236" y="413" on="0"/>
        <pt x="242" y="418" on="1"/>
        <pt x="248" y="423" on="1"/>
        <pt x="255" y="421" on="0"/>
        <pt x="271" y="409" on="0"/>
        <pt x="270" y="402" on="1"/>
        <pt x="270" y="397" on="0"/>
        <pt x="246" y="376" on="1"/>
        <pt x="217" y="350" on="0"/>
      </contour>
    </TTGlyph>
    <TTGlyph name="arrowright" xMin="12" yMin="73" xMax="670" yMax="423">
      <contour>
        <pt x="544" y="213" on="1"/>
        <pt x="18" y="213" on="1"/>
        <pt x="12" y="213" on="0"/>
        <pt x="12" y="226" on="1"/>
        <pt x="12" y="236" on="0"/>
        <pt x="28" y="276" on="0"/>
        <pt x="36" y="282" on="1"/>
        <pt x="558" y="282" on="1"/>
        <pt x="524" y="329" on="1"/>
        <pt x="478" y="388" on="0"/>
        <pt x="477" y="393" on="1"/>
        <pt x="476" y="397" on="0"/>
        <pt x="476" y="401" on="1"/>
        <pt x="478" y="413" on="0"/>
        <pt x="507" y="423" on="1"/>
        <pt x="512" y="416" on="0"/>
        <pt x="537" y="385" on="0"/>
        <pt x="618" y="307" on="0"/>
        <pt x="668" y="268" on="1"/>
        <pt x="672" y="263" on="0"/>
        <pt x="670" y="250" on="1"/>
        <pt x="670" y="236" on="0"/>
        <pt x="660" y="227" on="1"/>
        <pt x="595" y="188" on="0"/>
        <pt x="484" y="112" on="0"/>
        <pt x="439" y="75" on="0"/>
        <pt x="438" y="73" on="1"/>
        <pt x="430" y="75" on="0"/>
        <pt x="415" y="87" on="0"/>
        <pt x="417" y="101" on="0"/>
        <pt x="468" y="145" on="1"/>
        <pt x="485" y="161" on="0"/>
        <pt x="496" y="170" on="1"/>
      </contour>
    </TTGlyph>
    <TTGlyph name="arrowup" xMin="8" yMin="-32" xMax="334" yMax="694">
      <contour>
        <pt x="155" y="566" on="1"/>
        <pt x="103" y="520" on="1"/>
        <pt x="28" y="452" on="0"/>
        <pt x="22" y="452" on="1"/>
        <pt x="13" y="452" on="0"/>
        <pt x="8" y="482" on="1"/>
        <pt x="11" y="483" on="0"/>
        <pt x="48" y="520" on="0"/>
        <pt x="140" y="622" on="0"/>
        <pt x="192" y="688" on="1"/>
        <pt x="196" y="694" on="0"/>
        <pt x="206" y="694" on="1"/>
        <pt x="222" y="694" on="0"/>
        <pt x="229" y="686" on="1"/>
        <pt x="268" y="578" on="0"/>
        <pt x="334" y="480" on="1"/>
        <pt x="330" y="471" on="0"/>
        <pt x="314" y="452" on="0"/>
        <pt x="307" y="452" on="1"/>
        <pt x="305" y="452" on="0"/>
        <pt x="303" y="453" on="0"/>
        <pt x="299" y="455" on="0"/>
        <pt x="296" y="458" on="0"/>
        <pt x="291" y="465" on="0"/>
        <pt x="286" y="471" on="0"/>
        <pt x="278" y="483" on="0"/>
        <pt x="270" y="495" on="0"/>
        <pt x="257" y="513" on="0"/>
        <pt x="250" y="522" on="1"/>
        <pt x="218" y="566" on="1"/>
        <pt x="102" y="-26" on="1"/>
        <pt x="100" y="-32" on="0"/>
        <pt x="90" y="-32" on="1"/>
        <pt x="79" y="-32" on="0"/>
        <pt x="42" y="-21" on="0"/>
        <pt x="40" y="-18" on="1"/>
      </contour>
    </TTGlyph>
    <TTGlyph name="asciicircum" xMin="17" yMin="472" xMax="300" yMax="690">
      <contour>
        <pt x="17" y="499" on="1"/>
        <pt x="19" y="502" on="0"/>
        <pt x="71" y="546" on="0"/>
        <pt x="147" y="628" on="0"/>
        <pt x="178" y="677" on="1"/>
        <pt x="179" y="679" on="0"/>
        <pt x="182" y="685" on="0"/>
        <pt x="183" y="687" on="0"/>
        <pt x="185" y="689" on="0"/>
        <pt x="188" y="690" on="0"/>
        <pt x="190" y="690" on="1"/>
        <pt x="200" y="690" on="0"/>
        <pt x="207" y="677" on="0"/>
        <pt x="225" y="620" on="0"/>
        <pt x="241" y="588" on="1"/>
        <pt x="248" y="575" on="0"/>
        <pt x="277" y="533" on="0"/>
        <pt x="300" y="502" on="0"/>
        <pt x="300" y="500" on="1"/>
        <pt x="291" y="472" on="0"/>
        <pt x="282" y="472" on="1"/>
        <pt x="269" y="472" on="0"/>
        <pt x="195" y="555" on="0"/>
        <pt x="175" y="590" on="1"/>
        <pt x="141" y="551" on="0"/>
        <pt x="35" y="472" on="0"/>
        <pt x="24" y="472" on="1"/>
        <pt x="17" y="472" on="0"/>
      </contour>
    </TTGlyph>
    <TTGlyph name="asciitilde" xMin="57" yMin="248" xMax="501" yMax="356">
      <contour>
        <pt x="194" y="356" on="1"/>
        <pt x="238" y="356" on="0"/>
        <pt x="359" y="304" on="0"/>
        <pt x="403" y="304" on="1"/>
        <pt x="420" y="304" on="0"/>
        <pt x="456" y="319" on="0"/>
        <pt x="473" y="331" on="0"/>
        <pt x="496" y="348" on="1"/>
        <pt x="501" y="343" on="0"/>
        <pt x="501" y="335" on="1"/>
        <pt x="501" y="306" on="0"/>
        <pt x="413" y="248" on="0"/>
        <pt x="366" y="248" on="1"/>
        <pt x="322" y="248" on="0"/>
        <pt x="199" y="300" on="0"/>
        <pt x="155" y="300" on="1"/>
        <pt x="138" y="300" on="0"/>
        <pt x="102" y="285" on="0"/>
        <pt x="85" y="273" on="0"/>
        <pt x="62" y="256" on="1"/>
        <pt x="57" y="261" on="0"/>
        <pt x="57" y="269" on="1"/>
        <pt x="57" y="300" on="0"/>
        <pt x="151" y="356" on="0"/>
      </contour>
    </TTGlyph>
    <TTGlyph name="asterisk" xMin="68" yMin="300" xMax="409" yMax="664">
      <contour>
        <pt x="262" y="515" on="1"/>
        <pt x="270" y="515" on="0"/>
        <pt x="298" y="552" on="0"/>
        <pt x="326" y="597" on="0"/>
        <pt x="366" y="634" on="0"/>
        <pt x="384" y="634" on="1"/>
        <pt x="409" y="634" on="0"/>
        <pt x="409" y="606" on="1"/>
        <pt x="409" y="580" on="0"/>
        <pt x="343" y="537" on="0"/>
        <pt x="277" y="505" on="0"/>
        <pt x="277" y="492" on="1"/>
        <pt x="277" y="483" on="0"/>
        <pt x="315" y="472" on="0"/>
        <pt x="362" y="465" on="0"/>
        <pt x="400" y="442" on="0"/>
        <pt x="400" y="422" on="1"/>
        <pt x="400" y="406" on="0"/>
        <pt x="373" y="380" on="0"/>
        <pt x="358" y="380" on="1"/>
        <pt x="340" y="380" on="0"/>
        <pt x="301" y="422" on="0"/>
        <pt x="270" y="464" on="0"/>
        <pt x="250" y="464" on="0"/>
        <pt x="244" y="429" on="0"/>
        <pt x="239" y="363" on="0"/>
        <pt x="232" y="340" on="1"/>
        <pt x="220" y="300" on="0"/>
        <pt x="190" y="300" on="1"/>
        <pt x="179" y="300" on="0"/>
        <pt x="162" y="318" on="0"/>
        <pt x="162" y="330" on="1"/>
        <pt x="162" y="352" on="0"/>
        <pt x="229" y="453" on="0"/>
        <pt x="229" y="464" on="1"/>
        <pt x="229" y="472" on="0"/>
        <pt x="220" y="472" on="1"/>
        <pt x="212" y="472" on="0"/>
        <pt x="120" y="430" on="0"/>
        <pt x="99" y="430" on="1"/>
        <pt x="86" y="430" on="0"/>
        <pt x="68" y="445" on="0"/>
        <pt x="68" y="457" on="1"/>
        <pt x="68" y="466" on="0"/>
        <pt x="75" y="485" on="0"/>
        <pt x="105" y="504" on="0"/>
        <pt x="130" y="504" on="1"/>
        <pt x="146" y="504" on="0"/>
        <pt x="199" y="496" on="0"/>
        <pt x="208" y="496" on="1"/>
        <pt x="232" y="496" on="0"/>
        <pt x="232" y="510" on="1"/>
        <pt x="232" y="520" on="0"/>
        <pt x="180" y="596" on="0"/>
        <pt x="180" y="620" on="1"/>
        <pt x="180" y="639" on="0"/>
        <pt x="203" y="664" on="0"/>
        <pt x="219" y="664" on="1"/>
        <pt x="231" y="664" on="0"/>
        <pt x="245" y="651" on="0"/>
        <pt x="251" y="623" on="0"/>
        <pt x="252" y="602" on="0"/>
        <pt x="252" y="582" on="1"/>
        <pt x="252" y="515" on="0"/>
      </contour>
    </TTGlyph>
    <TTGlyph name="at" xMin="29" yMin="-104" xMax="726" yMax="579">
      <contour>
        <pt x="504" y="118" on="1"/>
        <pt x="490" y="50" on="0"/>
        <pt x="532" y="50" on="1"/>
        <pt x="579" y="50" on="0"/>
        <pt x="672" y="197" on="0"/>
        <pt x="672" y="284" on="1"/>
        <pt x="672" y="402" on="0"/>
        <pt x="556" y="538" on="0"/>
        <pt x="440" y="538" on="1"/>
        <pt x="381" y="538" on="0"/>
        <pt x="255" y="480" on="0"/>
        <pt x="147" y="380" on="0"/>
        <pt x="77" y="227" on="0"/>
        <pt x="77" y="141" on="1"/>
        <pt x="77" y="11" on="0"/>
        <pt x="168" y="-69" on="1"/>
        <pt x="187" y="-85" on="0"/>
        <pt x="210" y="-96" on="1"/>
        <pt x="200" y="-104" on="0"/>
        <pt x="177" y="-104" on="1"/>
        <pt x="165" y="-104" on="0"/>
        <pt x="124" y="-81" on="0"/>
        <pt x="110" y="-68" on="1"/>
        <pt x="29" y="11" on="0"/>
        <pt x="29" y="136" on="1"/>
        <pt x="29" y="258" on="0"/>
        <pt x="154" y="465" on="0"/>
        <pt x="348" y="579" on="0"/>
        <pt x="452" y="579" on="1"/>
        <pt x="584" y="579" on="0"/>
        <pt x="726" y="416" on="0"/>
        <pt x="726" y="298" on="1"/>
        <pt x="726" y="223" on="0"/>
        <pt x="671" y="98" on="0"/>
        <pt x="591" y="26" on="0"/>
        <pt x="512" y="-12" on="0"/>
        <pt x="482" y="-12" on="1"/>
        <pt x="446" y="-12" on="0"/>
        <pt x="406" y="27" on="0"/>
        <pt x="406" y="58" on="1"/>
        <pt x="406" y="67" on="0"/>
        <pt x="409" y="88" on="1"/>
        <pt x="410" y="96" on="0"/>
        <pt x="414" y="108" on="0"/>
        <pt x="414" y="110" on="1"/>
        <pt x="392" y="72" on="0"/>
        <pt x="309" y="-6" on="0"/>
        <pt x="270" y="-6" on="1"/>
        <pt x="228" y="-6" on="0"/>
        <pt x="180" y="67" on="0"/>
        <pt x="180" y="122" on="1"/>
        <pt x="180" y="240" on="0"/>
        <pt x="374" y="441" on="0"/>
        <pt x="476" y="441" on="1"/>
        <pt x="523" y="441" on="0"/>
        <pt x="566" y="426" on="1"/>
      </contour>
      <contour>
        <pt x="427" y="391" on="1"/>
        <pt x="373" y="391" on="0"/>
        <pt x="280" y="238" on="0"/>
        <pt x="280" y="151" on="1"/>
        <pt x="280" y="67" on="0"/>
        <pt x="323" y="67" on="1"/>
        <pt x="354" y="67" on="0"/>
        <pt x="430" y="201" on="0"/>
        <pt x="445" y="277" on="1"/>
        <pt x="465" y="378" on="1"/>
        <pt x="453" y="391" on="0"/>
      </contour>
    </TTGlyph>
    <TTGlyph name="atilde" xMin="15" yMin="-7" xMax="452" yMax="589">
      <component glyphName="tildecomb" x="-7" y="-118" flags="0x1004"/>
      <component glyphName="a" x="0" y="0" flags="0x1204"/>
    </TTGlyph>
    <TTGlyph name="b" xMin="39" yMin="-6" xMax="413" yMax="690">
      <contour>
        <pt x="278" y="370" on="1"/>
        <pt x="244" y="370" on="0"/>
        <pt x="152" y="235" on="0"/>
        <pt x="138" y="162" on="1"/>
        <pt x="126" y="111" on="0"/>
        <pt x="144" y="33" on="0"/>
        <pt x="174" y="33" on="1"/>
        <pt x="209" y="33" on="0"/>
        <pt x="275" y="132" on="0"/>
        <pt x="311" y="256" on="0"/>
        <pt x="311" y="302" on="1"/>
        <pt x="311" y="370" on="0"/>
      </contour>
      <contour>
        <pt x="166" y="310" on="1"/>
        <pt x="201" y="367" on="0"/>
        <pt x="300" y="442" on="0"/>
        <pt x="332" y="442" on="1"/>
        <pt x="370" y="442" on="0"/>
        <pt x="413" y="383" on="0"/>
        <pt x="413" y="330" on="1"/>
        <pt x="413" y="264" on="0"/>
        <pt x="360" y="137" on="0"/>
        <pt x="280" y="48" on="0"/>
        <pt x="185" y="-6" on="0"/>
        <pt x="144" y="-6" on="1"/>
        <pt x="98" y="-6" on="0"/>
        <pt x="39" y="56" on="0"/>
        <pt x="39" y="109" on="1"/>
        <pt x="39" y="121" on="0"/>
        <pt x="45" y="160" on="1"/>
        <pt x="124" y="560" on="1"/>
        <pt x="132" y="596" on="0"/>
        <pt x="132" y="612" on="1"/>
        <pt x="132" y="632" on="0"/>
        <pt x="72" y="632" on="1"/>
        <pt x="70" y="635" on="0"/>
        <pt x="73" y="654" on="0"/>
        <pt x="76" y="657" on="1"/>
        <pt x="163" y="665" on="0"/>
        <pt x="232" y="690" on="1"/>
        <pt x="237" y="687" on="0"/>
        <pt x="237" y="672" on="1"/>
        <pt x="237" y="658" on="0"/>
        <pt x="224" y="596" on="1"/>
      </contour>
    </TTGlyph>
    <TTGlyph name="backslash" xMin="119" yMin="-40" xMax="297" yMax="762">
      <contour>
        <pt x="297" y="-4" on="1"/>
        <pt x="299" y="-15" on="0"/>
        <pt x="276" y="-40" on="0"/>
        <pt x="267" y="-40" on="1"/>
        <pt x="259" y="-40" on="0"/>
        <pt x="255" y="-37" on="1"/>
        <pt x="119" y="755" on="1"/>
        <pt x="124" y="762" on="0"/>
        <pt x="133" y="762" on="1"/>
        <pt x="147" y="762" on="0"/>
        <pt x="170" y="735" on="0"/>
        <pt x="172" y="725" on="1"/>
      </contour>
    </TTGlyph>
    <TTGlyph name="bar" xMin="1" yMin="-124" xMax="224" yMax="770">
      <contour>
        <pt x="171" y="757" on="1"/>
        <pt x="184" y="770" on="0"/>
        <pt x="208" y="770" on="1"/>
        <pt x="215" y="770" on="0"/>
        <pt x="225" y="765" on="0"/>
        <pt x="224" y="761" on="1"/>
        <pt x="55" y="-111" on="1"/>
        <pt x="40" y="-124" on="0"/>
        <pt x="14" y="-124" on="1"/>
        <pt x="8" y="-124" on="0"/>
        <pt x="0" y="-118" on="0"/>
        <pt x="1" y="-115" on="1"/>
        <pt x="136" y="587" on="0"/>
      </contour>
    </TTGlyph>
    <TTGlyph name="braceleft" xMin="20" yMin="-134" xMax="282" yMax="739">
      <contour>
        <pt x="127" y="403" on="1"/>
        <pt x="131" y="423" on="0"/>
        <pt x="122" y="479" on="1"/>
        <pt x="113" y="525" on="0"/>
        <pt x="119" y="557" on="1"/>
        <pt x="132" y="623" on="0"/>
        <pt x="231" y="726" on="0"/>
        <pt x="272" y="739" on="1"/>
        <pt x="277" y="739" on="0"/>
        <pt x="284" y="725" on="0"/>
        <pt x="282" y="719" on="1"/>
        <pt x="254" y="706" on="0"/>
        <pt x="192" y="640" on="0"/>
        <pt x="185" y="604" on="1"/>
        <pt x="177" y="567" on="0"/>
        <pt x="189" y="516" on="1"/>
        <pt x="199" y="469" on="0"/>
        <pt x="191" y="428" on="1"/>
        <pt x="182" y="381" on="0"/>
        <pt x="114" y="310" on="0"/>
        <pt x="87" y="302" on="1"/>
        <pt x="111" y="294" on="0"/>
        <pt x="151" y="224" on="0"/>
        <pt x="142" y="177" on="1"/>
        <pt x="133" y="133" on="0"/>
        <pt x="106" y="88" on="1"/>
        <pt x="75" y="34" on="0"/>
        <pt x="68" y="2" on="1"/>
        <pt x="61" y="-34" on="0"/>
        <pt x="97" y="-101" on="0"/>
        <pt x="119" y="-114" on="1"/>
        <pt x="119" y="-120" on="0"/>
        <pt x="107" y="-134" on="0"/>
        <pt x="102" y="-134" on="1"/>
        <pt x="66" y="-121" on="0"/>
        <pt x="7" y="-18" on="0"/>
        <pt x="20" y="48" on="1"/>
        <pt x="26" y="78" on="0"/>
        <pt x="55" y="130" on="1"/>
        <pt x="84" y="179" on="0"/>
        <pt x="88" y="202" on="1"/>
        <pt x="101" y="270" on="0"/>
        <pt x="32" y="292" on="1"/>
        <pt x="30" y="295" on="0"/>
        <pt x="32" y="302" on="1"/>
        <pt x="35" y="313" on="0"/>
        <pt x="36" y="314" on="1"/>
        <pt x="114" y="336" on="0"/>
      </contour>
    </TTGlyph>
    <TTGlyph name="braceright" xMin="-38" yMin="-134" xMax="222" yMax="740">
      <contour>
        <pt x="140" y="740" on="1"/>
        <pt x="176" y="727" on="0"/>
        <pt x="235" y="623" on="0"/>
        <pt x="222" y="557" on="1"/>
        <pt x="216" y="525" on="0"/>
        <pt x="188" y="478" on="1"/>
        <pt x="159" y="428" on="0"/>
        <pt x="154" y="403" on="1"/>
        <pt x="141" y="336" on="0"/>
        <pt x="210" y="314" on="1"/>
        <pt x="212" y="310" on="0"/>
        <pt x="208" y="294" on="0"/>
        <pt x="206" y="292" on="1"/>
        <pt x="128" y="270" on="0"/>
        <pt x="115" y="202" on="1"/>
        <pt x="111" y="182" on="0"/>
        <pt x="120" y="129" on="1"/>
        <pt x="130" y="81" on="0"/>
        <pt x="123" y="48" on="1"/>
        <pt x="110" y="-18" on="0"/>
        <pt x="11" y="-121" on="0"/>
        <pt x="-30" y="-134" on="1"/>
        <pt x="-35" y="-134" on="0"/>
        <pt x="-40" y="-120" on="0"/>
        <pt x="-38" y="-114" on="1"/>
        <pt x="-11" y="-101" on="0"/>
        <pt x="50" y="-34" on="0"/>
        <pt x="57" y="2" on="1"/>
        <pt x="64" y="40" on="0"/>
        <pt x="53" y="88" on="1"/>
        <pt x="43" y="135" on="0"/>
        <pt x="51" y="177" on="1"/>
        <pt x="60" y="224" on="0"/>
        <pt x="128" y="294" on="0"/>
        <pt x="155" y="302" on="1"/>
        <pt x="131" y="310" on="0"/>
        <pt x="91" y="381" on="0"/>
        <pt x="100" y="428" on="1"/>
        <pt x="109" y="473" on="0"/>
        <pt x="138" y="520" on="1"/>
        <pt x="167" y="568" on="0"/>
        <pt x="181" y="640" on="0"/>
        <pt x="146" y="706" on="0"/>
        <pt x="124" y="719" on="1"/>
        <pt x="124" y="725" on="0"/>
        <pt x="135" y="740" on="0"/>
      </contour>
    </TTGlyph>
    <TTGlyph name="bracketleft" xMin="6" yMin="-126" xMax="344" yMax="757">
      <contour>
        <pt x="167" y="734" on="1"/>
        <pt x="172" y="749" on="0"/>
        <pt x="183" y="749" on="1"/>
        <pt x="236" y="749" on="0"/>
        <pt x="340" y="757" on="1"/>
        <pt x="344" y="753" on="0"/>
        <pt x="344" y="748" on="1"/>
        <pt x="344" y="738" on="0"/>
        <pt x="329" y="719" on="0"/>
        <pt x="323" y="717" on="1"/>
        <pt x="291" y="703" on="0"/>
        <pt x="224" y="701" on="1"/>
        <pt x="220" y="701" on="0"/>
        <pt x="217" y="694" on="1"/>
        <pt x="70" y="-52" on="1"/>
        <pt x="70" y="-59" on="0"/>
        <pt x="75" y="-60" on="1"/>
        <pt x="137" y="-69" on="0"/>
        <pt x="168" y="-88" on="1"/>
        <pt x="183" y="-97" on="0"/>
        <pt x="183" y="-109" on="1"/>
        <pt x="183" y="-118" on="0"/>
        <pt x="175" y="-126" on="1"/>
        <pt x="50" y="-104" on="0"/>
        <pt x="13" y="-104" on="1"/>
        <pt x="4" y="-104" on="0"/>
        <pt x="6" y="-94" on="1"/>
      </contour>
    </TTGlyph>
    <TTGlyph name="bracketright" xMin="-59" yMin="-118" xMax="271" yMax="757">
      <contour>
        <pt x="104" y="757" on="1"/>
        <pt x="185" y="748" on="0"/>
        <pt x="260" y="748" on="1"/>
        <pt x="271" y="748" on="0"/>
        <pt x="271" y="735" on="1"/>
        <pt x="271" y="732" on="0"/>
        <pt x="230" y="521" on="1"/>
        <pt x="188" y="310" on="1"/>
        <pt x="110" y="-92" on="0"/>
        <pt x="106" y="-92" on="1"/>
        <pt x="88" y="-94" on="0"/>
        <pt x="29" y="-116" on="0"/>
        <pt x="18" y="-118" on="1"/>
        <pt x="-59" y="-118" on="0"/>
        <pt x="-59" y="-116" on="1"/>
        <pt x="-59" y="-111" on="0"/>
        <pt x="-48" y="-98" on="1"/>
        <pt x="-33" y="-81" on="0"/>
        <pt x="6" y="-66" on="1"/>
        <pt x="40" y="-54" on="0"/>
        <pt x="58" y="-52" on="1"/>
        <pt x="136" y="324" on="1"/>
        <pt x="154" y="418" on="1"/>
        <pt x="171" y="511" on="0"/>
        <pt x="205" y="696" on="0"/>
        <pt x="204" y="696" on="1"/>
        <pt x="191" y="698" on="0"/>
        <pt x="154" y="712" on="1"/>
        <pt x="140" y="713" on="0"/>
        <pt x="114" y="721" on="0"/>
        <pt x="101" y="728" on="0"/>
        <pt x="101" y="730" on="1"/>
        <pt x="101" y="731" on="0"/>
        <pt x="95" y="735" on="0"/>
        <pt x="95" y="742" on="1"/>
        <pt x="95" y="748" on="0"/>
        <pt x="101" y="757" on="0"/>
      </contour>
    </TTGlyph>
    <TTGlyph name="brokenbar" xMin="3" yMin="-124" xMax="225" yMax="768">
      <contour>
        <pt x="172" y="756" on="1"/>
        <pt x="184" y="768" on="0"/>
        <pt x="210" y="768" on="1"/>
        <pt x="217" y="768" on="0"/>
        <pt x="226" y="764" on="0"/>
        <pt x="225" y="760" on="1"/>
        <pt x="154" y="392" on="1"/>
        <pt x="139" y="379" on="0"/>
        <pt x="114" y="379" on="1"/>
        <pt x="108" y="379" on="0"/>
        <pt x="100" y="385" on="0"/>
        <pt x="101" y="388" on="1"/>
        <pt x="140" y="586" on="0"/>
      </contour>
      <contour>
        <pt x="75" y="252" on="1"/>
        <pt x="88" y="265" on="0"/>
        <pt x="112" y="265" on="1"/>
        <pt x="119" y="265" on="0"/>
        <pt x="129" y="260" on="0"/>
        <pt x="128" y="256" on="1"/>
        <pt x="57" y="-111" on="1"/>
        <pt x="42" y="-124" on="0"/>
        <pt x="16" y="-124" on="1"/>
        <pt x="10" y="-124" on="0"/>
        <pt x="2" y="-118" on="0"/>
        <pt x="3" y="-115" on="1"/>
        <pt x="42" y="82" on="0"/>
      </contour>
    </TTGlyph>
    <TTGlyph name="bullet" xMin="68" yMin="139" xMax="298" yMax="387">
      <contour>
        <pt x="58" y="212" on="0"/>
        <pt x="78" y="314" on="0"/>
        <pt x="160" y="387" on="0"/>
        <pt x="256" y="387" on="0"/>
        <pt x="308" y="314" on="0"/>
        <pt x="288" y="212" on="0"/>
        <pt x="207" y="139" on="0"/>
        <pt x="111" y="139" on="0"/>
      </contour>
    </TTGlyph>
    <TTGlyph name="c" xMin="20" yMin="-6" xMax="358" yMax="442">
      <contour>
        <pt x="271" y="442" on="1"/>
        <pt x="315" y="442" on="0"/>
        <pt x="346" y="418" on="1"/>
        <pt x="358" y="400" on="0"/>
        <pt x="358" y="360" on="0"/>
        <pt x="332" y="327" on="0"/>
        <pt x="313" y="327" on="1"/>
        <pt x="284" y="327" on="0"/>
        <pt x="270" y="356" on="1"/>
        <pt x="269" y="357" on="0"/>
        <pt x="263" y="367" on="0"/>
        <pt x="261" y="371" on="0"/>
        <pt x="254" y="380" on="0"/>
        <pt x="250" y="384" on="0"/>
        <pt x="242" y="391" on="0"/>
        <pt x="236" y="394" on="0"/>
        <pt x="227" y="396" on="0"/>
        <pt x="222" y="396" on="1"/>
        <pt x="186" y="396" on="0"/>
        <pt x="122" y="254" on="0"/>
        <pt x="122" y="166" on="1"/>
        <pt x="122" y="65" on="0"/>
        <pt x="188" y="65" on="1"/>
        <pt x="195" y="65" on="0"/>
        <pt x="211" y="69" on="0"/>
        <pt x="226" y="77" on="0"/>
        <pt x="241" y="86" on="0"/>
        <pt x="254" y="97" on="0"/>
        <pt x="266" y="107" on="0"/>
        <pt x="277" y="118" on="0"/>
        <pt x="284" y="125" on="0"/>
        <pt x="286" y="128" on="1"/>
        <pt x="289" y="131" on="1"/>
        <pt x="293" y="131" on="0"/>
        <pt x="302" y="113" on="0"/>
        <pt x="302" y="108" on="1"/>
        <pt x="285" y="80" on="0"/>
        <pt x="181" y="-6" on="0"/>
        <pt x="136" y="-6" on="1"/>
        <pt x="85" y="-6" on="0"/>
        <pt x="20" y="68" on="0"/>
        <pt x="20" y="136" on="1"/>
        <pt x="20" y="251" on="0"/>
        <pt x="184" y="442" on="0"/>
      </contour>
    </TTGlyph>
    <TTGlyph name="cacute" xMin="20" yMin="-6" xMax="405" yMax="644">
      <component glyphName="acutecomb" x="77" y="-26" flags="0x1004"/>
      <component glyphName="c" x="0" y="0" flags="0x1204"/>
    </TTGlyph>
    <TTGlyph name="ccaron" xMin="20" yMin="-6" xMax="396" yMax="654">
      <component glyphName="uni030C" x="15" y="6" flags="0x1004"/>
      <component glyphName="c" x="0" y="0" flags="0x1204"/>
    </TTGlyph>
    <TTGlyph name="ccedilla" xMin="20" yMin="-156" xMax="358" yMax="442">
      <component glyphName="cedilla" x="-27" y="2" flags="0x1004"/>
      <component glyphName="c" x="0" y="0" flags="0x1204"/>
    </TTGlyph>
    <TTGlyph name="ccircumflex" xMin="20" yMin="-6" xMax="363" yMax="655">
      <component glyphName="uni0302" x="-31" y="-95" flags="0x1004"/>
      <component glyphName="c" x="0" y="0" flags="0x1204"/>
    </TTGlyph>
    <TTGlyph name="cdotaccent" xMin="20" yMin="-6" xMax="358" yMax="621">
      <component glyphName="uni0307" x="27" y="-18" flags="0x1004"/>
      <component glyphName="c" x="0" y="0" flags="0x1204"/>
    </TTGlyph>
    <TTGlyph name="cedilla" xMin="61" yMin="-158" xMax="210" yMax="-4">
      <contour>
        <pt x="146" y="-4" on="1"/>
        <pt x="170" y="-4" on="1"/>
        <pt x="148" y="-28" on="1"/>
        <pt x="168" y="-28" on="1"/>
        <pt x="185" y="-28" on="0"/>
        <pt x="210" y="-52" on="0"/>
        <pt x="210" y="-70" on="1"/>
        <pt x="210" y="-104" on="0"/>
        <pt x="146" y="-158" on="0"/>
        <pt x="99" y="-158" on="1"/>
        <pt x="78" y="-158" on="0"/>
        <pt x="63" y="-148" on="1"/>
        <pt x="61" y="-144" on="0"/>
        <pt x="61" y="-139" on="1"/>
        <pt x="61" y="-128" on="0"/>
        <pt x="72" y="-116" on="0"/>
        <pt x="78" y="-116" on="1"/>
        <pt x="85" y="-116" on="0"/>
        <pt x="109" y="-134" on="0"/>
        <pt x="121" y="-134" on="1"/>
        <pt x="141" y="-134" on="0"/>
        <pt x="166" y="-112" on="0"/>
        <pt x="166" y="-94" on="1"/>
        <pt x="166" y="-79" on="0"/>
        <pt x="150" y="-63" on="0"/>
        <pt x="130" y="-63" on="0"/>
        <pt x="113" y="-70" on="1"/>
        <pt x="111" y="-70" on="0"/>
        <pt x="102" y="-62" on="0"/>
        <pt x="102" y="-59" on="1"/>
        <pt x="102" y="-57" on="0"/>
        <pt x="113" y="-45" on="0"/>
        <pt x="136" y="-18" on="0"/>
      </contour>
    </TTGlyph>
    <TTGlyph name="cent" xMin="23" yMin="-45" xMax="361" yMax="474">
      <contour>
        <pt x="270" y="474" on="1"/>
        <pt x="303" y="474" on="0"/>
        <pt x="302" y="466" on="1"/>
        <pt x="126" y="-45" on="1"/>
        <pt x="93" y="-45" on="0"/>
        <pt x="94" y="-36" on="1"/>
      </contour>
      <contour>
        <pt x="274" y="442" on="1"/>
        <pt x="318" y="442" on="0"/>
        <pt x="349" y="418" on="1"/>
        <pt x="361" y="400" on="0"/>
        <pt x="361" y="360" on="0"/>
        <pt x="335" y="327" on="0"/>
        <pt x="316" y="327" on="1"/>
        <pt x="288" y="327" on="0"/>
        <pt x="273" y="356" on="1"/>
        <pt x="272" y="357" on="0"/>
        <pt x="266" y="367" on="0"/>
        <pt x="264" y="371" on="0"/>
        <pt x="257" y="380" on="0"/>
        <pt x="253" y="384" on="0"/>
        <pt x="245" y="391" on="0"/>
        <pt x="239" y="394" on="0"/>
        <pt x="230" y="396" on="0"/>
        <pt x="225" y="396" on="1"/>
        <pt x="189" y="396" on="0"/>
        <pt x="125" y="254" on="0"/>
        <pt x="125" y="166" on="1"/>
        <pt x="125" y="65" on="0"/>
        <pt x="191" y="65" on="1"/>
        <pt x="198" y="65" on="0"/>
        <pt x="214" y="69" on="0"/>
        <pt x="229" y="77" on="0"/>
        <pt x="244" y="86" on="0"/>
        <pt x="257" y="97" on="0"/>
        <pt x="269" y="107" on="0"/>
        <pt x="280" y="118" on="0"/>
        <pt x="287" y="125" on="0"/>
        <pt x="290" y="128" on="1"/>
        <pt x="292" y="131" on="1"/>
        <pt x="296" y="131" on="0"/>
        <pt x="305" y="113" on="0"/>
        <pt x="305" y="108" on="1"/>
        <pt x="288" y="80" on="0"/>
        <pt x="184" y="-6" on="0"/>
        <pt x="139" y="-6" on="1"/>
        <pt x="88" y="-6" on="0"/>
        <pt x="23" y="68" on="0"/>
        <pt x="23" y="136" on="1"/>
        <pt x="23" y="251" on="0"/>
        <pt x="187" y="442" on="0"/>
      </contour>
    </TTGlyph>
    <TTGlyph name="colon" xMin="18" yMin="-12" xMax="201" yMax="441">
      <contour>
        <pt x="81" y="372" on="1"/>
        <pt x="84" y="400" on="0"/>
        <pt x="127" y="441" on="0"/>
        <pt x="153" y="441" on="1"/>
        <pt x="176" y="441" on="0"/>
        <pt x="204" y="408" on="0"/>
        <pt x="201" y="384" on="1"/>
        <pt x="198" y="356" on="0"/>
        <pt x="154" y="312" on="0"/>
        <pt x="129" y="312" on="1"/>
        <pt x="106" y="312" on="0"/>
        <pt x="78" y="348" on="0"/>
      </contour>
      <contour>
        <pt x="18" y="47" on="1"/>
        <pt x="21" y="75" on="0"/>
        <pt x="64" y="117" on="0"/>
        <pt x="90" y="117" on="1"/>
        <pt x="113" y="117" on="0"/>
        <pt x="141" y="83" on="0"/>
        <pt x="138" y="59" on="1"/>
        <pt x="135" y="31" on="0"/>
        <pt x="92" y="-12" on="0"/>
        <pt x="66" y="-12" on="1"/>
        <pt x="42" y="-12" on="0"/>
        <pt x="15" y="23" on="0"/>
      </contour>
    </TTGlyph>
    <TTGlyph name="comma" xMin="-32" yMin="-131" xMax="118" yMax="132">
      <contour>
        <pt x="-32" y="-112" on="1"/>
        <pt x="-15" y="-101" on="0"/>
        <pt x="38" y="-38" on="0"/>
        <pt x="38" y="-9" on="1"/>
        <pt x="38" y="4" on="0"/>
        <pt x="12" y="41" on="0"/>
        <pt x="12" y="62" on="1"/>
        <pt x="12" y="95" on="0"/>
        <pt x="56" y="132" on="0"/>
        <pt x="84" y="132" on="1"/>
        <pt x="92" y="132" on="0"/>
        <pt x="113" y="123" on="0"/>
        <pt x="116" y="119" on="1"/>
        <pt x="118" y="114" on="0"/>
        <pt x="118" y="98" on="1"/>
        <pt x="118" y="27" on="0"/>
        <pt x="88" y="-24" on="1"/>
        <pt x="53" y="-83" on="0"/>
        <pt x="-18" y="-131" on="1"/>
        <pt x="-23" y="-130" on="0"/>
        <pt x="-32" y="-118" on="0"/>
      </contour>
    </TTGlyph>
    <TTGlyph name="copyright" xMin="62" yMin="54" xMax="570" yMax="599">
      <contour>
        <pt x="421" y="264" on="1"/>
        <pt x="421" y="260" on="0"/>
        <pt x="400" y="203" on="0"/>
        <pt x="396" y="202" on="1"/>
        <pt x="337" y="179" on="0"/>
        <pt x="299" y="179" on="1"/>
        <pt x="241" y="179" on="0"/>
        <pt x="176" y="257" on="0"/>
        <pt x="183" y="320" on="1"/>
        <pt x="190" y="382" on="0"/>
        <pt x="281" y="469" on="0"/>
        <pt x="337" y="469" on="1"/>
        <pt x="378" y="469" on="0"/>
        <pt x="427" y="452" on="1"/>
        <pt x="427" y="451" on="0"/>
        <pt x="433" y="392" on="0"/>
        <pt x="433" y="390" on="1"/>
        <pt x="433" y="382" on="0"/>
        <pt x="417" y="382" on="1"/>
        <pt x="414" y="382" on="0"/>
        <pt x="412" y="384" on="1"/>
        <pt x="411" y="391" on="0"/>
        <pt x="405" y="406" on="0"/>
        <pt x="390" y="426" on="0"/>
        <pt x="360" y="439" on="0"/>
        <pt x="339" y="439" on="1"/>
        <pt x="302" y="439" on="0"/>
        <pt x="249" y="373" on="0"/>
        <pt x="243" y="328" on="1"/>
        <pt x="236" y="275" on="0"/>
        <pt x="280" y="207" on="0"/>
        <pt x="317" y="207" on="1"/>
        <pt x="355" y="207" on="0"/>
        <pt x="377" y="226" on="1"/>
        <pt x="384" y="232" on="0"/>
        <pt x="396" y="252" on="0"/>
        <pt x="400" y="260" on="1"/>
        <pt x="403" y="268" on="1"/>
        <pt x="417" y="268" on="0"/>
      </contour>
      <contour>
        <pt x="111" y="424" on="0"/>
        <pt x="87" y="228" on="0"/>
        <pt x="197" y="92" on="0"/>
        <pt x="379" y="92" on="0"/>
        <pt x="523" y="229" on="0"/>
        <pt x="547" y="423" on="0"/>
        <pt x="436" y="561" on="0"/>
        <pt x="254" y="561" on="0"/>
      </contour>
      <contour>
        <pt x="48" y="213" on="0"/>
        <pt x="76" y="439" on="0"/>
        <pt x="244" y="599" on="0"/>
        <pt x="454" y="599" on="0"/>
        <pt x="584" y="439" on="0"/>
        <pt x="556" y="213" on="0"/>
        <pt x="387" y="54" on="0"/>
        <pt x="177" y="54" on="0"/>
      </contour>
    </TTGlyph>
    <TTGlyph name="currency" xMin="44" yMin="100" xMax="496" yMax="520">
      <contour>
        <pt x="245" y="154" on="1"/>
        <pt x="287" y="154" on="0"/>
        <pt x="352" y="253" on="0"/>
        <pt x="358" y="318" on="1"/>
        <pt x="365" y="379" on="0"/>
        <pt x="325" y="462" on="0"/>
        <pt x="289" y="462" on="1"/>
        <pt x="247" y="462" on="0"/>
        <pt x="180" y="361" on="0"/>
        <pt x="174" y="296" on="1"/>
        <pt x="167" y="236" on="0"/>
        <pt x="209" y="154" on="0"/>
      </contour>
      <contour>
        <pt x="400" y="455" on="1"/>
        <pt x="466" y="510" on="1"/>
        <pt x="469" y="513" on="0"/>
        <pt x="473" y="510" on="1"/>
        <pt x="480" y="507" on="0"/>
        <pt x="495" y="480" on="0"/>
        <pt x="496" y="466" on="1"/>
        <pt x="428" y="410" on="1"/>
        <pt x="444" y="369" on="0"/>
        <pt x="438" y="327" on="1"/>
        <pt x="433" y="257" on="0"/>
        <pt x="384" y="199" on="1"/>
        <pt x="422" y="141" on="1"/>
        <pt x="424" y="138" on="0"/>
        <pt x="422" y="135" on="1"/>
        <pt x="419" y="127" on="0"/>
        <pt x="388" y="104" on="0"/>
        <pt x="374" y="100" on="1"/>
        <pt x="336" y="155" on="1"/>
        <pt x="285" y="120" on="0"/>
        <pt x="230" y="120" on="1"/>
        <pt x="170" y="120" on="0"/>
        <pt x="132" y="160" on="1"/>
        <pt x="74" y="110" on="1"/>
        <pt x="72" y="108" on="0"/>
        <pt x="67" y="110" on="1"/>
        <pt x="60" y="112" on="0"/>
        <pt x="45" y="140" on="0"/>
        <pt x="44" y="154" on="1"/>
        <pt x="104" y="205" on="1"/>
        <pt x="88" y="243" on="0"/>
        <pt x="94" y="288" on="1"/>
        <pt x="100" y="361" on="0"/>
        <pt x="154" y="423" on="1"/>
        <pt x="116" y="479" on="1"/>
        <pt x="115" y="481" on="0"/>
        <pt x="117" y="485" on="1"/>
        <pt x="120" y="493" on="0"/>
        <pt x="151" y="516" on="0"/>
        <pt x="166" y="520" on="1"/>
        <pt x="203" y="465" on="1"/>
        <pt x="251" y="496" on="0"/>
        <pt x="304" y="496" on="1"/>
        <pt x="362" y="496" on="0"/>
      </contour>
    </TTGlyph>
    <TTGlyph name="d" xMin="15" yMin="-7" xMax="450" yMax="690">
      <contour>
        <pt x="292" y="347" on="1"/>
        <pt x="294" y="367" on="0"/>
        <pt x="278" y="394" on="0"/>
        <pt x="262" y="394" on="1"/>
        <pt x="207" y="394" on="0"/>
        <pt x="115" y="239" on="0"/>
        <pt x="115" y="151" on="1"/>
        <pt x="115" y="67" on="0"/>
        <pt x="158" y="67" on="1"/>
        <pt x="188" y="67" on="0"/>
        <pt x="267" y="209" on="0"/>
        <pt x="280" y="278" on="1"/>
        <pt x="292" y="341" on="0"/>
      </contour>
      <contour>
        <pt x="336" y="560" on="1"/>
        <pt x="337" y="566" on="0"/>
        <pt x="342" y="590" on="0"/>
        <pt x="345" y="607" on="0"/>
        <pt x="345" y="612" on="1"/>
        <pt x="345" y="632" on="0"/>
        <pt x="284" y="632" on="1"/>
        <pt x="282" y="635" on="0"/>
        <pt x="285" y="654" on="0"/>
        <pt x="288" y="657" on="1"/>
        <pt x="375" y="665" on="0"/>
        <pt x="444" y="690" on="1"/>
        <pt x="450" y="686" on="0"/>
        <pt x="450" y="658" on="0"/>
        <pt x="437" y="596" on="1"/>
        <pt x="342" y="119" on="1"/>
        <pt x="338" y="103" on="0"/>
        <pt x="338" y="86" on="1"/>
        <pt x="338" y="64" on="0"/>
        <pt x="350" y="64" on="1"/>
        <pt x="364" y="64" on="0"/>
        <pt x="412" y="111" on="0"/>
        <pt x="421" y="123" on="1"/>
        <pt x="424" y="123" on="0"/>
        <pt x="433" y="105" on="0"/>
        <pt x="433" y="100" on="1"/>
        <pt x="419" y="74" on="0"/>
        <pt x="321" y="-7" on="0"/>
        <pt x="288" y="-7" on="1"/>
        <pt x="256" y="-7" on="0"/>
        <pt x="246" y="31" on="1"/>
        <pt x="241" y="44" on="0"/>
        <pt x="244" y="78" on="1"/>
        <pt x="249" y="113" on="1"/>
        <pt x="230" y="78" on="0"/>
        <pt x="142" y="-6" on="0"/>
        <pt x="102" y="-6" on="1"/>
        <pt x="60" y="-6" on="0"/>
        <pt x="15" y="65" on="0"/>
        <pt x="15" y="116" on="1"/>
        <pt x="15" y="233" on="0"/>
        <pt x="199" y="434" on="0"/>
        <pt x="298" y="442" on="1"/>
        <pt x="314" y="442" on="1"/>
      </contour>
    </TTGlyph>
    <TTGlyph name="dagger" xMin="71" yMin="-16" xMax="377" yMax="662">
      <contour>
        <pt x="184" y="487" on="1"/>
        <pt x="199" y="487" on="0"/>
        <pt x="216" y="505" on="1"/>
        <pt x="222" y="535" on="0"/>
        <pt x="222" y="612" on="0"/>
        <pt x="212" y="625" on="1"/>
        <pt x="215" y="641" on="0"/>
        <pt x="242" y="662" on="0"/>
        <pt x="274" y="662" on="0"/>
        <pt x="296" y="640" on="0"/>
        <pt x="293" y="625" on="1"/>
        <pt x="279" y="612" on="0"/>
        <pt x="249" y="534" on="0"/>
        <pt x="244" y="505" on="1"/>
        <pt x="254" y="487" on="0"/>
        <pt x="269" y="487" on="1"/>
        <pt x="314" y="487" on="0"/>
        <pt x="350" y="520" on="1"/>
        <pt x="364" y="520" on="0"/>
        <pt x="379" y="494" on="0"/>
        <pt x="375" y="462" on="0"/>
        <pt x="349" y="434" on="0"/>
        <pt x="334" y="434" on="1"/>
        <pt x="312" y="464" on="0"/>
        <pt x="264" y="464" on="1"/>
        <pt x="253" y="464" on="0"/>
        <pt x="234" y="446" on="0"/>
        <pt x="232" y="436" on="1"/>
        <pt x="234" y="426" on="0"/>
        <pt x="245" y="376" on="0"/>
        <pt x="247" y="365" on="1"/>
        <pt x="216" y="275" on="0"/>
        <pt x="138" y="-3" on="1"/>
        <pt x="129" y="-16" on="1"/>
        <pt x="128" y="-16" on="0"/>
        <pt x="126" y="-11" on="0"/>
        <pt x="125" y="-4" on="0"/>
        <pt x="124" y="-3" on="1"/>
        <pt x="153" y="273" on="0"/>
        <pt x="157" y="365" on="1"/>
        <pt x="164" y="376" on="0"/>
        <pt x="195" y="427" on="0"/>
        <pt x="200" y="436" on="1"/>
        <pt x="202" y="446" on="0"/>
        <pt x="190" y="464" on="0"/>
        <pt x="180" y="464" on="1"/>
        <pt x="131" y="464" on="0"/>
        <pt x="98" y="434" on="1"/>
        <pt x="84" y="434" on="0"/>
        <pt x="69" y="457" on="0"/>
        <pt x="71" y="474" on="1"/>
        <pt x="73" y="490" on="0"/>
        <pt x="100" y="520" on="0"/>
        <pt x="115" y="520" on="1"/>
        <pt x="139" y="487" on="0"/>
      </contour>
    </TTGlyph>
    <TTGlyph name="daggerdbl" xMin="20" yMin="-16" xMax="385" yMax="662">
      <contour>
        <pt x="239" y="281" on="1"/>
        <pt x="230" y="265" on="0"/>
        <pt x="200" y="217" on="0"/>
        <pt x="196" y="210" on="1"/>
        <pt x="194" y="200" on="0"/>
        <pt x="207" y="182" on="0"/>
        <pt x="217" y="182" on="1"/>
        <pt x="265" y="182" on="0"/>
        <pt x="298" y="212" on="1"/>
        <pt x="313" y="212" on="0"/>
        <pt x="329" y="186" on="0"/>
        <pt x="323" y="154" on="0"/>
        <pt x="296" y="126" on="0"/>
        <pt x="281" y="126" on="1"/>
        <pt x="257" y="159" on="0"/>
        <pt x="213" y="159" on="1"/>
        <pt x="198" y="159" on="0"/>
        <pt x="181" y="141" on="1"/>
        <pt x="164" y="47" on="0"/>
        <pt x="183" y="21" on="1"/>
        <pt x="180" y="6" on="0"/>
        <pt x="152" y="-16" on="0"/>
        <pt x="137" y="-16" on="1"/>
        <pt x="121" y="-16" on="0"/>
        <pt x="100" y="6" on="0"/>
        <pt x="103" y="21" on="1"/>
        <pt x="117" y="34" on="0"/>
        <pt x="148" y="112" on="0"/>
        <pt x="153" y="141" on="1"/>
        <pt x="143" y="159" on="0"/>
        <pt x="128" y="159" on="1"/>
        <pt x="82" y="159" on="0"/>
        <pt x="46" y="126" on="1"/>
        <pt x="32" y="126" on="0"/>
        <pt x="17" y="153" on="0"/>
        <pt x="20" y="170" on="1"/>
        <pt x="23" y="186" on="0"/>
        <pt x="48" y="212" on="0"/>
        <pt x="63" y="212" on="1"/>
        <pt x="85" y="182" on="0"/>
        <pt x="132" y="182" on="1"/>
        <pt x="142" y="182" on="0"/>
        <pt x="162" y="201" on="0"/>
        <pt x="164" y="210" on="1"/>
        <pt x="162" y="219" on="0"/>
        <pt x="150" y="269" on="0"/>
        <pt x="148" y="281" on="1"/>
        <pt x="167" y="299" on="0"/>
        <pt x="184" y="324" on="1"/>
        <pt x="181" y="333" on="0"/>
        <pt x="165" y="365" on="1"/>
        <pt x="172" y="376" on="0"/>
        <pt x="203" y="427" on="0"/>
        <pt x="208" y="436" on="1"/>
        <pt x="210" y="446" on="0"/>
        <pt x="197" y="464" on="0"/>
        <pt x="187" y="464" on="1"/>
        <pt x="139" y="464" on="0"/>
        <pt x="106" y="434" on="1"/>
        <pt x="91" y="434" on="0"/>
        <pt x="76" y="460" on="0"/>
        <pt x="82" y="492" on="0"/>
        <pt x="108" y="520" on="0"/>
        <pt x="123" y="520" on="1"/>
        <pt x="147" y="487" on="0"/>
        <pt x="192" y="487" on="1"/>
        <pt x="206" y="487" on="0"/>
        <pt x="223" y="505" on="1"/>
        <pt x="229" y="536" on="0"/>
        <pt x="229" y="605" on="0"/>
        <pt x="220" y="625" on="1"/>
        <pt x="223" y="640" on="0"/>
        <pt x="252" y="662" on="0"/>
        <pt x="268" y="662" on="1"/>
        <pt x="283" y="662" on="0"/>
        <pt x="304" y="640" on="0"/>
        <pt x="301" y="625" on="1"/>
        <pt x="287" y="612" on="0"/>
        <pt x="256" y="534" on="0"/>
        <pt x="251" y="505" on="1"/>
        <pt x="261" y="487" on="0"/>
        <pt x="276" y="487" on="1"/>
        <pt x="322" y="487" on="0"/>
        <pt x="358" y="520" on="1"/>
        <pt x="372" y="520" on="0"/>
        <pt x="388" y="492" on="0"/>
        <pt x="382" y="460" on="0"/>
        <pt x="357" y="434" on="0"/>
        <pt x="342" y="434" on="1"/>
        <pt x="320" y="464" on="0"/>
        <pt x="272" y="464" on="1"/>
        <pt x="262" y="464" on="0"/>
        <pt x="241" y="445" on="0"/>
        <pt x="239" y="436" on="1"/>
        <pt x="241" y="427" on="0"/>
        <pt x="252" y="379" on="0"/>
        <pt x="255" y="365" on="1"/>
        <pt x="232" y="342" on="0"/>
        <pt x="220" y="324" on="1"/>
        <pt x="224" y="302" on="0"/>
      </contour>
    </TTGlyph>
    <TTGlyph name="dcaron" xMin="15" yMin="-7" xMax="612" yMax="732">
      <component glyphName="uni0315" x="378" y="51" flags="0x1004"/>
      <component glyphName="d" x="0" y="0" flags="0x1004"/>
    </TTGlyph>
    <TTGlyph name="dcroat" xMin="15" yMin="-7" xMax="501" yMax="690">
      <contour>
        <pt x="230" y="560" on="1"/>
        <pt x="230" y="560" on="0"/>
        <pt x="497" y="560" on="1"/>
        <pt x="503" y="560" on="0"/>
        <pt x="501" y="552" on="1"/>
        <pt x="498" y="537" on="0"/>
        <pt x="490" y="524" on="1"/>
        <pt x="490" y="524" on="0"/>
        <pt x="222" y="524" on="1"/>
        <pt x="217" y="524" on="0"/>
        <pt x="220" y="535" on="1"/>
        <pt x="224" y="553" on="0"/>
      </contour>
      <contour>
        <pt x="292" y="347" on="1"/>
        <pt x="294" y="367" on="0"/>
        <pt x="278" y="394" on="0"/>
        <pt x="262" y="394" on="1"/>
        <pt x="207" y="394" on="0"/>
        <pt x="115" y="239" on="0"/>
        <pt x="115" y="151" on="1"/>
        <pt x="115" y="67" on="0"/>
        <pt x="158" y="67" on="1"/>
        <pt x="188" y="67" on="0"/>
        <pt x="267" y="209" on="0"/>
        <pt x="280" y="278" on="1"/>
        <pt x="292" y="341" on="0"/>
      </contour>
      <contour>
        <pt x="336" y="560" on="1"/>
        <pt x="337" y="566" on="0"/>
        <pt x="342" y="590" on="0"/>
        <pt x="345" y="607" on="0"/>
        <pt x="345" y="612" on="1"/>
        <pt x="345" y="632" on="0"/>
        <pt x="284" y="632" on="1"/>
        <pt x="282" y="635" on="0"/>
        <pt x="285" y="654" on="0"/>
        <pt x="288" y="657" on="1"/>
        <pt x="375" y="665" on="0"/>
        <pt x="444" y="690" on="1"/>
        <pt x="450" y="686" on="0"/>
        <pt x="450" y="658" on="0"/>
        <pt x="437" y="596" on="1"/>
        <pt x="342" y="119" on="1"/>
        <pt x="338" y="103" on="0"/>
        <pt x="338" y="86" on="1"/>
        <pt x="338" y="64" on="0"/>
        <pt x="350" y="64" on="1"/>
        <pt x="364" y="64" on="0"/>
        <pt x="412" y="111" on="0"/>
        <pt x="421" y="123" on="1"/>
        <pt x="424" y="123" on="0"/>
        <pt x="433" y="105" on="0"/>
        <pt x="433" y="100" on="1"/>
        <pt x="419" y="74" on="0"/>
        <pt x="321" y="-7" on="0"/>
        <pt x="288" y="-7" on="1"/>
        <pt x="256" y="-7" on="0"/>
        <pt x="246" y="31" on="1"/>
        <pt x="241" y="44" on="0"/>
        <pt x="244" y="78" on="1"/>
        <pt x="249" y="113" on="1"/>
        <pt x="230" y="78" on="0"/>
        <pt x="142" y="-6" on="0"/>
        <pt x="102" y="-6" on="1"/>
        <pt x="60" y="-6" on="0"/>
        <pt x="15" y="65" on="0"/>
        <pt x="15" y="116" on="1"/>
        <pt x="15" y="233" on="0"/>
        <pt x="199" y="434" on="0"/>
        <pt x="298" y="442" on="1"/>
        <pt x="314" y="442" on="1"/>
      </contour>
    </TTGlyph>
    <TTGlyph name="degree" xMin="90" yMin="431" xMax="286" yMax="641">
      <contour>
        <pt x="129" y="530" on="1"/>
        <pt x="126" y="506" on="0"/>
        <pt x="153" y="473" on="0"/>
        <pt x="176" y="473" on="1"/>
        <pt x="202" y="473" on="0"/>
        <pt x="244" y="514" on="0"/>
        <pt x="247" y="542" on="1"/>
        <pt x="250" y="566" on="0"/>
        <pt x="222" y="600" on="0"/>
        <pt x="200" y="600" on="1"/>
        <pt x="174" y="600" on="0"/>
        <pt x="132" y="558" on="0"/>
      </contour>
      <contour>
        <pt x="90" y="527" on="1"/>
        <pt x="94" y="573" on="0"/>
        <pt x="166" y="641" on="0"/>
        <pt x="208" y="641" on="1"/>
        <pt x="245" y="641" on="0"/>
        <pt x="291" y="586" on="0"/>
        <pt x="286" y="546" on="1"/>
        <pt x="282" y="500" on="0"/>
        <pt x="210" y="431" on="0"/>
        <pt x="168" y="431" on="1"/>
        <pt x="130" y="431" on="0"/>
        <pt x="85" y="487" on="0"/>
      </contour>
    </TTGlyph>
    <TTGlyph name="dieresis" xMin="76" yMin="462" xMax="359" yMax="578">
      <contour>
        <pt x="255" y="517" on="1"/>
        <pt x="257" y="542" on="0"/>
        <pt x="293" y="578" on="0"/>
        <pt x="317" y="578" on="1"/>
        <pt x="337" y="578" on="0"/>
        <pt x="361" y="546" on="0"/>
        <pt x="359" y="525" on="1"/>
        <pt x="357" y="500" on="0"/>
        <pt x="320" y="462" on="0"/>
        <pt x="296" y="462" on="1"/>
        <pt x="276" y="462" on="0"/>
        <pt x="253" y="495" on="0"/>
      </contour>
      <contour>
        <pt x="76" y="517" on="1"/>
        <pt x="78" y="542" on="0"/>
        <pt x="114" y="578" on="0"/>
        <pt x="138" y="578" on="1"/>
        <pt x="158" y="578" on="0"/>
        <pt x="182" y="546" on="0"/>
        <pt x="180" y="525" on="1"/>
        <pt x="178" y="500" on="0"/>
        <pt x="142" y="462" on="0"/>
        <pt x="118" y="462" on="1"/>
        <pt x="97" y="462" on="0"/>
        <pt x="74" y="495" on="0"/>
      </contour>
    </TTGlyph>
    <TTGlyph name="divide" xMin="41" yMin="2" xMax="476" yMax="494">
      <contour>
        <pt x="46" y="224" on="1"/>
        <pt x="41" y="224" on="0"/>
        <pt x="41" y="232" on="1"/>
        <pt x="41" y="257" on="0"/>
        <pt x="54" y="273" on="1"/>
        <pt x="473" y="273" on="1"/>
        <pt x="476" y="273" on="0"/>
        <pt x="476" y="264" on="1"/>
        <pt x="476" y="240" on="0"/>
        <pt x="464" y="224" on="1"/>
      </contour>
      <contour>
        <pt x="304" y="494" on="1"/>
        <pt x="322" y="494" on="0"/>
        <pt x="345" y="468" on="0"/>
        <pt x="345" y="450" on="1"/>
        <pt x="345" y="426" on="0"/>
        <pt x="312" y="388" on="0"/>
        <pt x="288" y="388" on="1"/>
        <pt x="271" y="388" on="0"/>
        <pt x="249" y="415" on="0"/>
        <pt x="249" y="434" on="1"/>
        <pt x="249" y="459" on="0"/>
        <pt x="280" y="494" on="0"/>
      </contour>
      <contour>
        <pt x="230" y="108" on="1"/>
        <pt x="248" y="108" on="0"/>
        <pt x="272" y="82" on="0"/>
        <pt x="272" y="64" on="1"/>
        <pt x="272" y="40" on="0"/>
        <pt x="238" y="2" on="0"/>
        <pt x="214" y="2" on="1"/>
        <pt x="197" y="2" on="0"/>
        <pt x="176" y="29" on="0"/>
        <pt x="176" y="48" on="1"/>
        <pt x="176" y="73" on="0"/>
        <pt x="207" y="108" on="0"/>
      </contour>
    </TTGlyph>
    <TTGlyph name="dollar" xMin="24" yMin="-58" xMax="451" yMax="683">
      <contour>
        <pt x="136" y="-58" on="1"/>
        <pt x="131" y="-58" on="0"/>
        <pt x="117" y="-55" on="0"/>
        <pt x="104" y="-49" on="0"/>
        <pt x="105" y="-46" on="1"/>
        <pt x="119" y="-4" on="1"/>
        <pt x="84" y="1" on="0"/>
        <pt x="24" y="15" on="1"/>
        <pt x="18" y="91" on="0"/>
        <pt x="30" y="172" on="1"/>
        <pt x="36" y="183" on="0"/>
        <pt x="54" y="183" on="1"/>
        <pt x="66" y="183" on="0"/>
        <pt x="68" y="175" on="1"/>
        <pt x="68" y="139" on="0"/>
        <pt x="99" y="61" on="0"/>
        <pt x="135" y="43" on="1"/>
        <pt x="212" y="276" on="1"/>
        <pt x="198" y="286" on="0"/>
        <pt x="179" y="300" on="0"/>
        <pt x="154" y="320" on="0"/>
        <pt x="138" y="336" on="0"/>
        <pt x="119" y="357" on="0"/>
        <pt x="108" y="376" on="0"/>
        <pt x="97" y="401" on="0"/>
        <pt x="94" y="426" on="0"/>
        <pt x="94" y="455" on="0"/>
        <pt x="97" y="471" on="1"/>
        <pt x="111" y="543" on="0"/>
        <pt x="242" y="643" on="0"/>
        <pt x="313" y="643" on="1"/>
        <pt x="323" y="643" on="0"/>
        <pt x="334" y="642" on="1"/>
        <pt x="348" y="683" on="1"/>
        <pt x="351" y="683" on="0"/>
        <pt x="362" y="682" on="0"/>
        <pt x="373" y="680" on="0"/>
        <pt x="380" y="675" on="0"/>
        <pt x="379" y="673" on="1"/>
        <pt x="367" y="638" on="1"/>
        <pt x="385" y="634" on="0"/>
        <pt x="444" y="620" on="0"/>
        <pt x="451" y="618" on="1"/>
        <pt x="444" y="542" on="0"/>
        <pt x="432" y="470" on="1"/>
        <pt x="429" y="464" on="0"/>
        <pt x="423" y="464" on="1"/>
        <pt x="399" y="464" on="0"/>
        <pt x="399" y="472" on="1"/>
        <pt x="400" y="501" on="0"/>
        <pt x="376" y="570" on="0"/>
        <pt x="351" y="588" on="1"/>
        <pt x="280" y="374" on="1"/>
        <pt x="285" y="371" on="0"/>
        <pt x="291" y="366" on="1"/>
        <pt x="296" y="363" on="0"/>
        <pt x="323" y="342" on="0"/>
        <pt x="334" y="333" on="0"/>
        <pt x="359" y="313" on="0"/>
        <pt x="370" y="301" on="0"/>
        <pt x="390" y="279" on="0"/>
        <pt x="398" y="262" on="0"/>
        <pt x="409" y="237" on="0"/>
        <pt x="412" y="214" on="0"/>
        <pt x="412" y="184" on="0"/>
        <pt x="409" y="169" on="1"/>
        <pt x="394" y="92" on="0"/>
        <pt x="259" y="-9" on="0"/>
        <pt x="182" y="-9" on="1"/>
        <pt x="168" y="-9" on="0"/>
        <pt x="153" y="-8" on="1"/>
      </contour>
      <contour>
        <pt x="166" y="33" on="1"/>
        <pt x="176" y="31" on="0"/>
        <pt x="186" y="31" on="1"/>
        <pt x="227" y="31" on="0"/>
        <pt x="295" y="82" on="0"/>
        <pt x="305" y="132" on="1"/>
        <pt x="313" y="171" on="0"/>
        <pt x="275" y="229" on="0"/>
        <pt x="240" y="255" on="1"/>
      </contour>
      <contour>
        <pt x="321" y="601" on="1"/>
        <pt x="313" y="602" on="0"/>
        <pt x="305" y="602" on="1"/>
        <pt x="265" y="602" on="0"/>
        <pt x="208" y="558" on="0"/>
        <pt x="199" y="512" on="1"/>
        <pt x="188" y="453" on="0"/>
        <pt x="253" y="397" on="1"/>
      </contour>
    </TTGlyph>
    <TTGlyph name="dotbelowcomb" xMin="57" yMin="-162" xMax="173" yMax="-38">
      <contour>
        <pt x="57" y="-100" on="1"/>
        <pt x="61" y="-75" on="0"/>
        <pt x="103" y="-38" on="0"/>
        <pt x="151" y="-38" on="0"/>
        <pt x="178" y="-74" on="0"/>
        <pt x="173" y="-100" on="1"/>
        <pt x="169" y="-125" on="0"/>
        <pt x="127" y="-162" on="0"/>
        <pt x="79" y="-162" on="0"/>
        <pt x="52" y="-126" on="0"/>
      </contour>
    </TTGlyph>
    <TTGlyph name="dotlessi" xMin="17" yMin="-7" xMax="249" yMax="442">
      <contour>
        <pt x="108" y="316" on="1"/>
        <pt x="112" y="336" on="0"/>
        <pt x="112" y="348" on="1"/>
        <pt x="112" y="372" on="0"/>
        <pt x="100" y="372" on="1"/>
        <pt x="86" y="372" on="0"/>
        <pt x="39" y="325" on="0"/>
        <pt x="29" y="312" on="1"/>
        <pt x="26" y="312" on="0"/>
        <pt x="17" y="330" on="0"/>
        <pt x="17" y="335" on="1"/>
        <pt x="31" y="361" on="0"/>
        <pt x="125" y="442" on="0"/>
        <pt x="158" y="442" on="1"/>
        <pt x="181" y="442" on="0"/>
        <pt x="210" y="408" on="0"/>
        <pt x="210" y="380" on="1"/>
        <pt x="210" y="367" on="0"/>
        <pt x="202" y="324" on="1"/>
        <pt x="158" y="119" on="1"/>
        <pt x="155" y="108" on="0"/>
        <pt x="155" y="86" on="1"/>
        <pt x="155" y="63" on="0"/>
        <pt x="166" y="63" on="1"/>
        <pt x="180" y="63" on="0"/>
        <pt x="227" y="110" on="0"/>
        <pt x="237" y="123" on="1"/>
        <pt x="240" y="123" on="0"/>
        <pt x="249" y="105" on="0"/>
        <pt x="249" y="100" on="1"/>
        <pt x="235" y="74" on="0"/>
        <pt x="137" y="-7" on="0"/>
        <pt x="104" y="-7" on="1"/>
        <pt x="83" y="-7" on="0"/>
        <pt x="56" y="25" on="0"/>
        <pt x="56" y="54" on="1"/>
        <pt x="56" y="74" on="0"/>
        <pt x="64" y="111" on="1"/>
      </contour>
    </TTGlyph>
    <TTGlyph name="e" xMin="20" yMin="-6" xMax="360" yMax="442">
      <contour>
        <pt x="272" y="442" on="1"/>
        <pt x="311" y="442" on="0"/>
        <pt x="360" y="402" on="0"/>
        <pt x="360" y="365" on="1"/>
        <pt x="360" y="319" on="0"/>
        <pt x="266" y="234" on="0"/>
        <pt x="157" y="190" on="0"/>
        <pt x="123" y="190" on="1"/>
        <pt x="121" y="184" on="0"/>
        <pt x="121" y="162" on="1"/>
        <pt x="121" y="65" on="0"/>
        <pt x="186" y="65" on="1"/>
        <pt x="193" y="65" on="0"/>
        <pt x="209" y="69" on="0"/>
        <pt x="224" y="77" on="0"/>
        <pt x="239" y="86" on="0"/>
        <pt x="253" y="98" on="0"/>
        <pt x="265" y="108" on="0"/>
        <pt x="276" y="119" on="0"/>
        <pt x="283" y="126" on="0"/>
        <pt x="286" y="129" on="1"/>
        <pt x="288" y="132" on="1"/>
        <pt x="292" y="132" on="0"/>
        <pt x="302" y="112" on="0"/>
        <pt x="302" y="107" on="1"/>
        <pt x="287" y="82" on="0"/>
        <pt x="173" y="-6" on="0"/>
        <pt x="132" y="-6" on="1"/>
        <pt x="79" y="-6" on="0"/>
        <pt x="20" y="70" on="0"/>
        <pt x="20" y="140" on="1"/>
        <pt x="20" y="249" on="0"/>
        <pt x="184" y="442" on="0"/>
      </contour>
      <contour>
        <pt x="126" y="222" on="1"/>
        <pt x="161" y="222" on="0"/>
        <pt x="264" y="313" on="0"/>
        <pt x="264" y="364" on="1"/>
        <pt x="264" y="381" on="0"/>
        <pt x="245" y="403" on="0"/>
        <pt x="230" y="403" on="1"/>
        <pt x="203" y="403" on="0"/>
        <pt x="155" y="332" on="0"/>
        <pt x="129" y="251" on="0"/>
      </contour>
    </TTGlyph>
    <TTGlyph name="eacute" xMin="20" yMin="-6" xMax="420" yMax="644">
      <component glyphName="acutecomb" x="92" y="-26" flags="0x1004"/>
      <component glyphName="e" x="0" y="0" flags="0x1204"/>
    </TTGlyph>
    <TTGlyph name="ebreve" xMin="20" yMin="-6" xMax="383" yMax="624">
      <component glyphName="uni0306" x="47" y="-17" flags="0x1004"/>
      <component glyphName="e" x="0" y="0" flags="0x1204"/>
    </TTGlyph>
    <TTGlyph name="ecaron" xMin="20" yMin="-6" xMax="392" yMax="654">
      <component glyphName="uni030C" x="11" y="6" flags="0x1004"/>
      <component glyphName="e" x="0" y="0" flags="0x1204"/>
    </TTGlyph>
    <TTGlyph name="ecircumflex" xMin="20" yMin="-6" xMax="372" yMax="655">
      <component glyphName="uni0302" x="-22" y="-95" flags="0x1004"/>
      <component glyphName="e" x="0" y="0" flags="0x1204"/>
    </TTGlyph>
    <TTGlyph name="edieresis" xMin="20" yMin="-6" xMax="414" yMax="619">
      <component glyphName="dieresis" x="55" y="41" flags="0x1004"/>
      <component glyphName="e" x="0" y="0" flags="0x1204"/>
    </TTGlyph>
    <TTGlyph name="edotaccent" xMin="20" yMin="-6" xMax="360" yMax="621">
      <component glyphName="uni0307" x="40" y="-18" flags="0x1004"/>
      <component glyphName="e" x="0" y="0" flags="0x1204"/>
    </TTGlyph>
    <TTGlyph name="egrave" xMin="20" yMin="-6" xMax="360" yMax="644">
      <component glyphName="gravecomb" x="-21" y="-26" flags="0x1004"/>
      <component glyphName="e" x="0" y="0" flags="0x1204"/>
    </TTGlyph>
</ttFont>
